<svg width="155" height="36" viewBox="0 0 155 36" fill="none" xmlns="http://www.w3.org/2000/svg">
<path d="M7.72266 6.46875L9.77344 9.73828L11.8242 6.46875H13.1426L10.4473 10.6934L13.207 15H11.877L9.77344 11.666L7.66992 15H6.33984L9.09961 10.6934L6.4043 6.46875H7.72266ZM16.8281 15.1172C16.3867 15.1172 15.9863 15.043 15.627 14.8945C15.2715 14.7422 14.9648 14.5293 14.707 14.2559C14.4531 13.9824 14.2578 13.6582 14.1211 13.2832C13.9844 12.9082 13.916 12.498 13.916 12.0527V11.8066C13.916 11.291 13.9922 10.832 14.1445 10.4297C14.2969 10.0234 14.5039 9.67969 14.7656 9.39844C15.0273 9.11719 15.3242 8.9043 15.6562 8.75977C15.9883 8.61523 16.332 8.54297 16.6875 8.54297C17.1406 8.54297 17.5312 8.62109 17.8594 8.77734C18.1914 8.93359 18.4629 9.15234 18.6738 9.43359C18.8848 9.71094 19.041 10.0391 19.1426 10.418C19.2441 10.793 19.2949 11.2031 19.2949 11.6484V12.1348H14.5605V11.25H18.2109V11.168C18.1953 10.8867 18.1367 10.6133 18.0352 10.3477C17.9375 10.082 17.7812 9.86328 17.5664 9.69141C17.3516 9.51953 17.0586 9.43359 16.6875 9.43359C16.4414 9.43359 16.2148 9.48633 16.0078 9.5918C15.8008 9.69336 15.623 9.8457 15.4746 10.0488C15.3262 10.252 15.2109 10.5 15.1289 10.793C15.0469 11.0859 15.0059 11.4238 15.0059 11.8066V12.0527C15.0059 12.3535 15.0469 12.6367 15.1289 12.9023C15.2148 13.1641 15.3379 13.3945 15.498 13.5938C15.6621 13.793 15.8594 13.9492 16.0898 14.0625C16.3242 14.1758 16.5898 14.2324 16.8867 14.2324C17.2695 14.2324 17.5938 14.1543 17.8594 13.998C18.125 13.8418 18.3574 13.6328 18.5566 13.3711L19.2129 13.8926C19.0762 14.0996 18.9023 14.2969 18.6914 14.4844C18.4805 14.6719 18.2207 14.8242 17.9121 14.9414C17.6074 15.0586 17.2461 15.1172 16.8281 15.1172ZM21.6387 9.91992V15H20.5488V8.66016H21.5801L21.6387 9.91992ZM21.416 11.5898L20.9121 11.5723C20.916 11.1387 20.9727 10.7383 21.082 10.3711C21.1914 10 21.3535 9.67773 21.5684 9.4043C21.7832 9.13086 22.0508 8.91992 22.3711 8.77148C22.6914 8.61914 23.0625 8.54297 23.4844 8.54297C23.7812 8.54297 24.0547 8.58594 24.3047 8.67188C24.5547 8.75391 24.7715 8.88477 24.9551 9.06445C25.1387 9.24414 25.2812 9.47461 25.3828 9.75586C25.4844 10.0371 25.5352 10.377 25.5352 10.7754V15H24.4512V10.8281C24.4512 10.4961 24.3945 10.2305 24.2812 10.0312C24.1719 9.83203 24.0156 9.6875 23.8125 9.59766C23.6094 9.50391 23.3711 9.45703 23.0977 9.45703C22.7773 9.45703 22.5098 9.51367 22.2949 9.62695C22.0801 9.74023 21.9082 9.89648 21.7793 10.0957C21.6504 10.2949 21.5566 10.5234 21.498 10.7812C21.4434 11.0352 21.416 11.3047 21.416 11.5898ZM25.5234 10.9922L24.7969 11.2148C24.8008 10.8672 24.8574 10.5332 24.9668 10.2129C25.0801 9.89258 25.2422 9.60742 25.4531 9.35742C25.668 9.10742 25.9316 8.91016 26.2441 8.76562C26.5566 8.61719 26.9141 8.54297 27.3164 8.54297C27.6562 8.54297 27.957 8.58789 28.2188 8.67773C28.4844 8.76758 28.707 8.90625 28.8867 9.09375C29.0703 9.27734 29.209 9.51367 29.3027 9.80273C29.3965 10.0918 29.4434 10.4355 29.4434 10.834V15H28.3535V10.8223C28.3535 10.4668 28.2969 10.1914 28.1836 9.99609C28.0742 9.79688 27.918 9.6582 27.7148 9.58008C27.5156 9.49805 27.2773 9.45703 27 9.45703C26.7617 9.45703 26.5508 9.49805 26.3672 9.58008C26.1836 9.66211 26.0293 9.77539 25.9043 9.91992C25.7793 10.0605 25.6836 10.2227 25.6172 10.4062C25.5547 10.5898 25.5234 10.7852 25.5234 10.9922ZM36.7148 8.66016V9.49219H33.2871V8.66016H36.7148ZM34.4473 7.11914H35.5312V13.4297C35.5312 13.6445 35.5645 13.8066 35.6309 13.916C35.6973 14.0254 35.7832 14.0977 35.8887 14.1328C35.9941 14.168 36.1074 14.1855 36.2285 14.1855C36.3184 14.1855 36.4121 14.1777 36.5098 14.1621C36.6113 14.1426 36.6875 14.127 36.7383 14.1152L36.7441 15C36.6582 15.0273 36.5449 15.0527 36.4043 15.0762C36.2676 15.1035 36.1016 15.1172 35.9062 15.1172C35.6406 15.1172 35.3965 15.0645 35.1738 14.959C34.9512 14.8535 34.7734 14.6777 34.6406 14.4316C34.5117 14.1816 34.4473 13.8457 34.4473 13.4238V7.11914ZM39.0703 6V15H37.9863V6H39.0703ZM38.8125 11.5898L38.3613 11.5723C38.3652 11.1387 38.4297 10.7383 38.5547 10.3711C38.6797 10 38.8555 9.67773 39.082 9.4043C39.3086 9.13086 39.5781 8.91992 39.8906 8.77148C40.207 8.61914 40.5566 8.54297 40.9395 8.54297C41.252 8.54297 41.5332 8.58594 41.7832 8.67188C42.0332 8.75391 42.2461 8.88672 42.4219 9.07031C42.6016 9.25391 42.7383 9.49219 42.832 9.78516C42.9258 10.0742 42.9727 10.4277 42.9727 10.8457V15H41.8828V10.834C41.8828 10.502 41.834 10.2363 41.7363 10.0371C41.6387 9.83398 41.4961 9.6875 41.3086 9.59766C41.1211 9.50391 40.8906 9.45703 40.6172 9.45703C40.3477 9.45703 40.1016 9.51367 39.8789 9.62695C39.6602 9.74023 39.4707 9.89648 39.3105 10.0957C39.1543 10.2949 39.0312 10.5234 38.9414 10.7812C38.8555 11.0352 38.8125 11.3047 38.8125 11.5898ZM47.2266 15.1172C46.7852 15.1172 46.3848 15.043 46.0254 14.8945C45.6699 14.7422 45.3633 14.5293 45.1055 14.2559C44.8516 13.9824 44.6562 13.6582 44.5195 13.2832C44.3828 12.9082 44.3145 12.498 44.3145 12.0527V11.8066C44.3145 11.291 44.3906 10.832 44.543 10.4297C44.6953 10.0234 44.9023 9.67969 45.1641 9.39844C45.4258 9.11719 45.7227 8.9043 46.0547 8.75977C46.3867 8.61523 46.7305 8.54297 47.0859 8.54297C47.5391 8.54297 47.9297 8.62109 48.2578 8.77734C48.5898 8.93359 48.8613 9.15234 49.0723 9.43359C49.2832 9.71094 49.4395 10.0391 49.541 10.418C49.6426 10.793 49.6934 11.2031 49.6934 11.6484V12.1348H44.959V11.25H48.6094V11.168C48.5938 10.8867 48.5352 10.6133 48.4336 10.3477C48.3359 10.082 48.1797 9.86328 47.9648 9.69141C47.75 9.51953 47.457 9.43359 47.0859 9.43359C46.8398 9.43359 46.6133 9.48633 46.4062 9.5918C46.1992 9.69336 46.0215 9.8457 45.873 10.0488C45.7246 10.252 45.6094 10.5 45.5273 10.793C45.4453 11.0859 45.4043 11.4238 45.4043 11.8066V12.0527C45.4043 12.3535 45.4453 12.6367 45.5273 12.9023C45.6133 13.1641 45.7363 13.3945 45.8965 13.5938C46.0605 13.793 46.2578 13.9492 46.4883 14.0625C46.7227 14.1758 46.9883 14.2324 47.2852 14.2324C47.668 14.2324 47.9922 14.1543 48.2578 13.998C48.5234 13.8418 48.7559 13.6328 48.9551 13.3711L49.6113 13.8926C49.4746 14.0996 49.3008 14.2969 49.0898 14.4844C48.8789 14.6719 48.6191 14.8242 48.3105 14.9414C48.0059 15.0586 47.6445 15.1172 47.2266 15.1172ZM47.4082 6L48.8613 7.59961V7.6582H47.959L47.0801 6.66797L46.207 7.6582H45.3164V7.59375L46.752 6H47.4082ZM52.0371 9.91992V15H50.9473V8.66016H51.9785L52.0371 9.91992ZM51.8145 11.5898L51.3105 11.5723C51.3145 11.1387 51.3711 10.7383 51.4805 10.3711C51.5898 10 51.752 9.67773 51.9668 9.4043C52.1816 9.13086 52.4492 8.91992 52.7695 8.77148C53.0898 8.61914 53.4609 8.54297 53.8828 8.54297C54.1797 8.54297 54.4531 8.58594 54.7031 8.67188C54.9531 8.75391 55.1699 8.88477 55.3535 9.06445C55.5371 9.24414 55.6797 9.47461 55.7812 9.75586C55.8828 10.0371 55.9336 10.377 55.9336 10.7754V15H54.8496V10.8281C54.8496 10.4961 54.793 10.2305 54.6797 10.0312C54.5703 9.83203 54.4141 9.6875 54.2109 9.59766C54.0078 9.50391 53.7695 9.45703 53.4961 9.45703C53.1758 9.45703 52.9082 9.51367 52.6934 9.62695C52.4785 9.74023 52.3066 9.89648 52.1777 10.0957C52.0488 10.2949 51.9551 10.5234 51.8965 10.7812C51.8418 11.0352 51.8145 11.3047 51.8145 11.5898ZM55.9219 10.9922L55.1953 11.2148C55.1992 10.8672 55.2559 10.5332 55.3652 10.2129C55.4785 9.89258 55.6406 9.60742 55.8516 9.35742C56.0664 9.10742 56.3301 8.91016 56.6426 8.76562C56.9551 8.61719 57.3125 8.54297 57.7148 8.54297C58.0547 8.54297 58.3555 8.58789 58.6172 8.67773C58.8828 8.76758 59.1055 8.90625 59.2852 9.09375C59.4688 9.27734 59.6074 9.51367 59.7012 9.80273C59.7949 10.0918 59.8418 10.4355 59.8418 10.834V15H58.752V10.8223C58.752 10.4668 58.6953 10.1914 58.582 9.99609C58.4727 9.79688 58.3164 9.6582 58.1133 9.58008C57.9141 9.49805 57.6758 9.45703 57.3984 9.45703C57.1602 9.45703 56.9492 9.49805 56.7656 9.58008C56.582 9.66211 56.4277 9.77539 56.3027 9.91992C56.1777 10.0605 56.082 10.2227 56.0156 10.4062C55.9531 10.5898 55.9219 10.7852 55.9219 10.9922ZM67.9043 6.42188V15H66.8203V7.77539L64.6348 8.57227V7.59375L67.7344 6.42188H67.9043ZM76.4473 10.0547V11.3555C76.4473 12.0547 76.3848 12.6445 76.2598 13.125C76.1348 13.6055 75.9551 13.9922 75.7207 14.2852C75.4863 14.5781 75.2031 14.791 74.8711 14.9238C74.543 15.0527 74.1719 15.1172 73.7578 15.1172C73.4297 15.1172 73.127 15.0762 72.8496 14.9941C72.5723 14.9121 72.3223 14.7812 72.0996 14.6016C71.8809 14.418 71.6934 14.1797 71.5371 13.8867C71.3809 13.5938 71.2617 13.2383 71.1797 12.8203C71.0977 12.4023 71.0566 11.9141 71.0566 11.3555V10.0547C71.0566 9.35547 71.1191 8.76953 71.2441 8.29688C71.373 7.82422 71.5547 7.44531 71.7891 7.16016C72.0234 6.87109 72.3047 6.66406 72.6328 6.53906C72.9648 6.41406 73.3359 6.35156 73.7461 6.35156C74.0781 6.35156 74.3828 6.39258 74.6602 6.47461C74.9414 6.55273 75.1914 6.67969 75.4102 6.85547C75.6289 7.02734 75.8145 7.25781 75.9668 7.54688C76.123 7.83203 76.2422 8.18164 76.3242 8.5957C76.4062 9.00977 76.4473 9.49609 76.4473 10.0547ZM75.3574 11.5312V9.87305C75.3574 9.49023 75.334 9.1543 75.2871 8.86523C75.2441 8.57227 75.1797 8.32227 75.0938 8.11523C75.0078 7.9082 74.8984 7.74023 74.7656 7.61133C74.6367 7.48242 74.4863 7.38867 74.3145 7.33008C74.1465 7.26758 73.957 7.23633 73.7461 7.23633C73.4883 7.23633 73.2598 7.28516 73.0605 7.38281C72.8613 7.47656 72.6934 7.62695 72.5566 7.83398C72.4238 8.04102 72.3223 8.3125 72.252 8.64844C72.1816 8.98438 72.1465 9.39258 72.1465 9.87305V11.5312C72.1465 11.9141 72.168 12.252 72.2109 12.5449C72.2578 12.8379 72.3262 13.0918 72.416 13.3066C72.5059 13.5176 72.6152 13.6914 72.7441 13.8281C72.873 13.9648 73.0215 14.0664 73.1895 14.1328C73.3613 14.1953 73.5508 14.2266 73.7578 14.2266C74.0234 14.2266 74.2559 14.1758 74.4551 14.0742C74.6543 13.9727 74.8203 13.8145 74.9531 13.5996C75.0898 13.3809 75.1914 13.1016 75.2578 12.7617C75.3242 12.418 75.3574 12.0078 75.3574 11.5312ZM77.9766 14.4258C77.9766 14.2422 78.0332 14.0879 78.1465 13.9629C78.2637 13.834 78.4316 13.7695 78.6504 13.7695C78.8691 13.7695 79.0352 13.834 79.1484 13.9629C79.2656 14.0879 79.3242 14.2422 79.3242 14.4258C79.3242 14.6055 79.2656 14.7578 79.1484 14.8828C79.0352 15.0078 78.8691 15.0703 78.6504 15.0703C78.4316 15.0703 78.2637 15.0078 78.1465 14.8828C78.0332 14.7578 77.9766 14.6055 77.9766 14.4258ZM86.3613 10.0547V11.3555C86.3613 12.0547 86.2988 12.6445 86.1738 13.125C86.0488 13.6055 85.8691 13.9922 85.6348 14.2852C85.4004 14.5781 85.1172 14.791 84.7852 14.9238C84.457 15.0527 84.0859 15.1172 83.6719 15.1172C83.3438 15.1172 83.041 15.0762 82.7637 14.9941C82.4863 14.9121 82.2363 14.7812 82.0137 14.6016C81.7949 14.418 81.6074 14.1797 81.4512 13.8867C81.2949 13.5938 81.1758 13.2383 81.0938 12.8203C81.0117 12.4023 80.9707 11.9141 80.9707 11.3555V10.0547C80.9707 9.35547 81.0332 8.76953 81.1582 8.29688C81.2871 7.82422 81.4688 7.44531 81.7031 7.16016C81.9375 6.87109 82.2188 6.66406 82.5469 6.53906C82.8789 6.41406 83.25 6.35156 83.6602 6.35156C83.9922 6.35156 84.2969 6.39258 84.5742 6.47461C84.8555 6.55273 85.1055 6.67969 85.3242 6.85547C85.543 7.02734 85.7285 7.25781 85.8809 7.54688C86.0371 7.83203 86.1562 8.18164 86.2383 8.5957C86.3203 9.00977 86.3613 9.49609 86.3613 10.0547ZM85.2715 11.5312V9.87305C85.2715 9.49023 85.248 9.1543 85.2012 8.86523C85.1582 8.57227 85.0938 8.32227 85.0078 8.11523C84.9219 7.9082 84.8125 7.74023 84.6797 7.61133C84.5508 7.48242 84.4004 7.38867 84.2285 7.33008C84.0605 7.26758 83.8711 7.23633 83.6602 7.23633C83.4023 7.23633 83.1738 7.28516 82.9746 7.38281C82.7754 7.47656 82.6074 7.62695 82.4707 7.83398C82.3379 8.04102 82.2363 8.3125 82.166 8.64844C82.0957 8.98438 82.0605 9.39258 82.0605 9.87305V11.5312C82.0605 11.9141 82.082 12.252 82.125 12.5449C82.1719 12.8379 82.2402 13.0918 82.3301 13.3066C82.4199 13.5176 82.5293 13.6914 82.6582 13.8281C82.7871 13.9648 82.9355 14.0664 83.1035 14.1328C83.2754 14.1953 83.4648 14.2266 83.6719 14.2266C83.9375 14.2266 84.1699 14.1758 84.3691 14.0742C84.5684 13.9727 84.7344 13.8145 84.8672 13.5996C85.0039 13.3809 85.1055 13.1016 85.1719 12.7617C85.2383 12.418 85.2715 12.0078 85.2715 11.5312ZM93.1113 10.0547V11.3555C93.1113 12.0547 93.0488 12.6445 92.9238 13.125C92.7988 13.6055 92.6191 13.9922 92.3848 14.2852C92.1504 14.5781 91.8672 14.791 91.5352 14.9238C91.207 15.0527 90.8359 15.1172 90.4219 15.1172C90.0938 15.1172 89.791 15.0762 89.5137 14.9941C89.2363 14.9121 88.9863 14.7812 88.7637 14.6016C88.5449 14.418 88.3574 14.1797 88.2012 13.8867C88.0449 13.5938 87.9258 13.2383 87.8438 12.8203C87.7617 12.4023 87.7207 11.9141 87.7207 11.3555V10.0547C87.7207 9.35547 87.7832 8.76953 87.9082 8.29688C88.0371 7.82422 88.2188 7.44531 88.4531 7.16016C88.6875 6.87109 88.9688 6.66406 89.2969 6.53906C89.6289 6.41406 90 6.35156 90.4102 6.35156C90.7422 6.35156 91.0469 6.39258 91.3242 6.47461C91.6055 6.55273 91.8555 6.67969 92.0742 6.85547C92.293 7.02734 92.4785 7.25781 92.6309 7.54688C92.7871 7.83203 92.9062 8.18164 92.9883 8.5957C93.0703 9.00977 93.1113 9.49609 93.1113 10.0547ZM92.0215 11.5312V9.87305C92.0215 9.49023 91.998 9.1543 91.9512 8.86523C91.9082 8.57227 91.8438 8.32227 91.7578 8.11523C91.6719 7.9082 91.5625 7.74023 91.4297 7.61133C91.3008 7.48242 91.1504 7.38867 90.9785 7.33008C90.8105 7.26758 90.6211 7.23633 90.4102 7.23633C90.1523 7.23633 89.9238 7.28516 89.7246 7.38281C89.5254 7.47656 89.3574 7.62695 89.2207 7.83398C89.0879 8.04102 88.9863 8.3125 88.916 8.64844C88.8457 8.98438 88.8105 9.39258 88.8105 9.87305V11.5312C88.8105 11.9141 88.832 12.252 88.875 12.5449C88.9219 12.8379 88.9902 13.0918 89.0801 13.3066C89.1699 13.5176 89.2793 13.6914 89.4082 13.8281C89.5371 13.9648 89.6855 14.0664 89.8535 14.1328C90.0254 14.1953 90.2148 14.2266 90.4219 14.2266C90.6875 14.2266 90.9199 14.1758 91.1191 14.0742C91.3184 13.9727 91.4844 13.8145 91.6172 13.5996C91.7539 13.3809 91.8555 13.1016 91.9219 12.7617C91.9883 12.418 92.0215 12.0078 92.0215 11.5312ZM99.8613 10.0547V11.3555C99.8613 12.0547 99.7988 12.6445 99.6738 13.125C99.5488 13.6055 99.3691 13.9922 99.1348 14.2852C98.9004 14.5781 98.6172 14.791 98.2852 14.9238C97.957 15.0527 97.5859 15.1172 97.1719 15.1172C96.8438 15.1172 96.541 15.0762 96.2637 14.9941C95.9863 14.9121 95.7363 14.7812 95.5137 14.6016C95.2949 14.418 95.1074 14.1797 94.9512 13.8867C94.7949 13.5938 94.6758 13.2383 94.5938 12.8203C94.5117 12.4023 94.4707 11.9141 94.4707 11.3555V10.0547C94.4707 9.35547 94.5332 8.76953 94.6582 8.29688C94.7871 7.82422 94.9688 7.44531 95.2031 7.16016C95.4375 6.87109 95.7188 6.66406 96.0469 6.53906C96.3789 6.41406 96.75 6.35156 97.1602 6.35156C97.4922 6.35156 97.7969 6.39258 98.0742 6.47461C98.3555 6.55273 98.6055 6.67969 98.8242 6.85547C99.043 7.02734 99.2285 7.25781 99.3809 7.54688C99.5371 7.83203 99.6562 8.18164 99.7383 8.5957C99.8203 9.00977 99.8613 9.49609 99.8613 10.0547ZM98.7715 11.5312V9.87305C98.7715 9.49023 98.748 9.1543 98.7012 8.86523C98.6582 8.57227 98.5938 8.32227 98.5078 8.11523C98.4219 7.9082 98.3125 7.74023 98.1797 7.61133C98.0508 7.48242 97.9004 7.38867 97.7285 7.33008C97.5605 7.26758 97.3711 7.23633 97.1602 7.23633C96.9023 7.23633 96.6738 7.28516 96.4746 7.38281C96.2754 7.47656 96.1074 7.62695 95.9707 7.83398C95.8379 8.04102 95.7363 8.3125 95.666 8.64844C95.5957 8.98438 95.5605 9.39258 95.5605 9.87305V11.5312C95.5605 11.9141 95.582 12.252 95.625 12.5449C95.6719 12.8379 95.7402 13.0918 95.8301 13.3066C95.9199 13.5176 96.0293 13.6914 96.1582 13.8281C96.2871 13.9648 96.4355 14.0664 96.6035 14.1328C96.7754 14.1953 96.9648 14.2266 97.1719 14.2266C97.4375 14.2266 97.6699 14.1758 97.8691 14.0742C98.0684 13.9727 98.2344 13.8145 98.3672 13.5996C98.5039 13.3809 98.6055 13.1016 98.6719 12.7617C98.7383 12.418 98.7715 12.0078 98.7715 11.5312ZM106.852 10.4238V11.4434H101.004V10.4238H106.852ZM104.473 7.93359V14.1445H103.389V7.93359H104.473ZM10.5176 27.3184C10.5176 27.1621 10.4824 27.0176 10.4121 26.8848C10.3457 26.748 10.207 26.625 9.99609 26.5156C9.78906 26.4023 9.47656 26.3047 9.05859 26.2227C8.70703 26.1484 8.38867 26.0605 8.10352 25.959C7.82227 25.8574 7.58203 25.7344 7.38281 25.5898C7.1875 25.4453 7.03711 25.2754 6.93164 25.0801C6.82617 24.8848 6.77344 24.6562 6.77344 24.3945C6.77344 24.1445 6.82812 23.9082 6.9375 23.6855C7.05078 23.4629 7.20898 23.2656 7.41211 23.0938C7.61914 22.9219 7.86719 22.7871 8.15625 22.6895C8.44531 22.5918 8.76758 22.543 9.12305 22.543C9.63086 22.543 10.0645 22.6328 10.4238 22.8125C10.7832 22.9922 11.0586 23.2324 11.25 23.5332C11.4414 23.8301 11.5371 24.1602 11.5371 24.5234H10.4531C10.4531 24.3477 10.4004 24.1777 10.2949 24.0137C10.1934 23.8457 10.043 23.707 9.84375 23.5977C9.64844 23.4883 9.4082 23.4336 9.12305 23.4336C8.82227 23.4336 8.57812 23.4805 8.39062 23.5742C8.20703 23.6641 8.07227 23.7793 7.98633 23.9199C7.9043 24.0605 7.86328 24.209 7.86328 24.3652C7.86328 24.4824 7.88281 24.5879 7.92188 24.6816C7.96484 24.7715 8.03906 24.8555 8.14453 24.9336C8.25 25.0078 8.39844 25.0781 8.58984 25.1445C8.78125 25.2109 9.02539 25.2773 9.32227 25.3438C9.8418 25.4609 10.2695 25.6016 10.6055 25.7656C10.9414 25.9297 11.1914 26.1309 11.3555 26.3691C11.5195 26.6074 11.6016 26.8965 11.6016 27.2363C11.6016 27.5137 11.543 27.7676 11.4258 27.998C11.3125 28.2285 11.1465 28.4277 10.9277 28.5957C10.7129 28.7598 10.4551 28.8887 10.1543 28.9824C9.85742 29.0723 9.52344 29.1172 9.15234 29.1172C8.59375 29.1172 8.12109 29.0176 7.73438 28.8184C7.34766 28.6191 7.05469 28.3613 6.85547 28.0449C6.65625 27.7285 6.55664 27.3945 6.55664 27.043H7.64648C7.66211 27.3398 7.74805 27.5762 7.9043 27.752C8.06055 27.9238 8.25195 28.0469 8.47852 28.1211C8.70508 28.1914 8.92969 28.2266 9.15234 28.2266C9.44922 28.2266 9.69727 28.1875 9.89648 28.1094C10.0996 28.0312 10.2539 27.9238 10.3594 27.7871C10.4648 27.6504 10.5176 27.4941 10.5176 27.3184ZM16.7637 27.916V24.6523C16.7637 24.4023 16.7129 24.1855 16.6113 24.002C16.5137 23.8145 16.3652 23.6699 16.166 23.5684C15.9668 23.4668 15.7207 23.416 15.4277 23.416C15.1543 23.416 14.9141 23.4629 14.707 23.5566C14.5039 23.6504 14.3438 23.7734 14.2266 23.9258C14.1133 24.0781 14.0566 24.2422 14.0566 24.418H12.9727C12.9727 24.1914 13.0312 23.9668 13.1484 23.7441C13.2656 23.5215 13.4336 23.3203 13.6523 23.1406C13.875 22.957 14.1406 22.8125 14.4492 22.707C14.7617 22.5977 15.1094 22.543 15.4922 22.543C15.9531 22.543 16.3594 22.6211 16.7109 22.7773C17.0664 22.9336 17.3438 23.1699 17.543 23.4863C17.7461 23.7988 17.8477 24.1914 17.8477 24.6641V27.6172C17.8477 27.8281 17.8652 28.0527 17.9004 28.291C17.9395 28.5293 17.9961 28.7344 18.0703 28.9062V29H16.9395C16.8848 28.875 16.8418 28.709 16.8105 28.502C16.7793 28.291 16.7637 28.0957 16.7637 27.916ZM16.9512 25.1562L16.9629 25.918H15.8672C15.5586 25.918 15.2832 25.9434 15.041 25.9941C14.7988 26.041 14.5957 26.1133 14.4316 26.2109C14.2676 26.3086 14.1426 26.4316 14.0566 26.5801C13.9707 26.7246 13.9277 26.8945 13.9277 27.0898C13.9277 27.2891 13.9727 27.4707 14.0625 27.6348C14.1523 27.7988 14.2871 27.9297 14.4668 28.0273C14.6504 28.1211 14.875 28.168 15.1406 28.168C15.4727 28.168 15.7656 28.0977 16.0195 27.957C16.2734 27.8164 16.4746 27.6445 16.623 27.4414C16.7754 27.2383 16.8574 27.041 16.8691 26.8496L17.332 27.3711C17.3047 27.5352 17.2305 27.7168 17.1094 27.916C16.9883 28.1152 16.8262 28.3066 16.623 28.4902C16.4238 28.6699 16.1855 28.8203 15.9082 28.9414C15.6348 29.0586 15.3262 29.1172 14.9824 29.1172C14.5527 29.1172 14.1758 29.0332 13.8516 28.8652C13.5312 28.6973 13.2812 28.4727 13.1016 28.1914C12.9258 27.9062 12.8379 27.5879 12.8379 27.2363C12.8379 26.8965 12.9043 26.5977 13.0371 26.3398C13.1699 26.0781 13.3613 25.8613 13.6113 25.6895C13.8613 25.5137 14.1621 25.3809 14.5137 25.291C14.8652 25.2012 15.2578 25.1562 15.6914 25.1562H16.9512ZM16.0195 21.6289H15.2402L15.2344 20.7383C15.4336 20.7266 15.5957 20.707 15.7207 20.6797C15.8457 20.6484 15.9375 20.6035 15.9961 20.5449C16.0547 20.4824 16.084 20.4004 16.084 20.2988C16.084 20.2168 16.0586 20.1484 16.0078 20.0938C15.957 20.0352 15.8867 19.9883 15.7969 19.9531C15.707 19.9141 15.6035 19.8867 15.4863 19.8711C15.3691 19.8555 15.2441 19.8477 15.1113 19.8477L15.1523 19.2266C15.4414 19.2266 15.6953 19.252 15.9141 19.3027C16.1367 19.3535 16.3223 19.4277 16.4707 19.5254C16.623 19.623 16.7363 19.7402 16.8105 19.877C16.8887 20.0098 16.9277 20.1582 16.9277 20.3223C16.9277 20.6191 16.834 20.8359 16.6465 20.9727C16.459 21.1055 16.252 21.1875 16.0254 21.2188L16.0195 21.6289ZM20.6367 24.0137V29H19.5527V22.6602H20.5781L20.6367 24.0137ZM20.3789 25.5898L19.9277 25.5723C19.9316 25.1387 19.9961 24.7383 20.1211 24.3711C20.2461 24 20.4219 23.6777 20.6484 23.4043C20.875 23.1309 21.1445 22.9199 21.457 22.7715C21.7734 22.6191 22.123 22.543 22.5059 22.543C22.8184 22.543 23.0996 22.5859 23.3496 22.6719C23.5996 22.7539 23.8125 22.8867 23.9883 23.0703C24.168 23.2539 24.3047 23.4922 24.3984 23.7852C24.4922 24.0742 24.5391 24.4277 24.5391 24.8457V29H23.4492V24.834C23.4492 24.502 23.4004 24.2363 23.3027 24.0371C23.2051 23.834 23.0625 23.6875 22.875 23.5977C22.6875 23.5039 22.457 23.457 22.1836 23.457C21.9141 23.457 21.668 23.5137 21.4453 23.627C21.2266 23.7402 21.0371 23.8965 20.877 24.0957C20.7207 24.2949 20.5977 24.5234 20.5078 24.7812C20.4219 25.0352 20.3789 25.3047 20.3789 25.5898ZM30.2461 23.8789V31.4375H29.1562V22.6602H30.1523L30.2461 23.8789ZM34.5176 25.7773V25.9004C34.5176 26.3613 34.4629 26.7891 34.3535 27.1836C34.2441 27.5742 34.084 27.9141 33.873 28.2031C33.666 28.4922 33.4102 28.7168 33.1055 28.877C32.8008 29.0371 32.4512 29.1172 32.0566 29.1172C31.6543 29.1172 31.2988 29.0508 30.9902 28.918C30.6816 28.7852 30.4199 28.5918 30.2051 28.3379C29.9902 28.084 29.8184 27.7793 29.6895 27.4238C29.5645 27.0684 29.4785 26.668 29.4316 26.2227V25.5664C29.4785 25.0977 29.5664 24.6777 29.6953 24.3066C29.8242 23.9355 29.9941 23.6191 30.2051 23.3574C30.4199 23.0918 30.6797 22.8906 30.9844 22.7539C31.2891 22.6133 31.6406 22.543 32.0391 22.543C32.4375 22.543 32.791 22.6211 33.0996 22.7773C33.4082 22.9297 33.668 23.1484 33.8789 23.4336C34.0898 23.7188 34.248 24.0605 34.3535 24.459C34.4629 24.8535 34.5176 25.293 34.5176 25.7773ZM33.4277 25.9004V25.7773C33.4277 25.4609 33.3945 25.1641 33.3281 24.8867C33.2617 24.6055 33.1582 24.3594 33.0176 24.1484C32.8809 23.9336 32.7051 23.7656 32.4902 23.6445C32.2754 23.5195 32.0195 23.457 31.7227 23.457C31.4492 23.457 31.2109 23.5039 31.0078 23.5977C30.8086 23.6914 30.6387 23.8184 30.498 23.9785C30.3574 24.1348 30.2422 24.3145 30.1523 24.5176C30.0664 24.7168 30.002 24.9238 29.959 25.1387V26.6562C30.0371 26.9297 30.1465 27.1875 30.2871 27.4297C30.4277 27.668 30.6152 27.8613 30.8496 28.0098C31.084 28.1543 31.3789 28.2266 31.7344 28.2266C32.0273 28.2266 32.2793 28.166 32.4902 28.0449C32.7051 27.9199 32.8809 27.75 33.0176 27.5352C33.1582 27.3203 33.2617 27.0742 33.3281 26.7969C33.3945 26.5156 33.4277 26.2168 33.4277 25.9004ZM36.9844 20V29H35.9004V20H36.9844ZM36.7266 25.5898L36.2754 25.5723C36.2793 25.1387 36.3438 24.7383 36.4688 24.3711C36.5938 24 36.7695 23.6777 36.9961 23.4043C37.2227 23.1309 37.4922 22.9199 37.8047 22.7715C38.1211 22.6191 38.4707 22.543 38.8535 22.543C39.166 22.543 39.4473 22.5859 39.6973 22.6719C39.9473 22.7539 40.1602 22.8867 40.3359 23.0703C40.5156 23.2539 40.6523 23.4922 40.7461 23.7852C40.8398 24.0742 40.8867 24.4277 40.8867 24.8457V29H39.7969V24.834C39.7969 24.502 39.748 24.2363 39.6504 24.0371C39.5527 23.834 39.4102 23.6875 39.2227 23.5977C39.0352 23.5039 38.8047 23.457 38.5312 23.457C38.2617 23.457 38.0156 23.5137 37.793 23.627C37.5742 23.7402 37.3848 23.8965 37.2246 24.0957C37.0684 24.2949 36.9453 24.5234 36.8555 24.7812C36.7695 25.0352 36.7266 25.3047 36.7266 25.5898ZM46.248 27.916V24.6523C46.248 24.4023 46.1973 24.1855 46.0957 24.002C45.998 23.8145 45.8496 23.6699 45.6504 23.5684C45.4512 23.4668 45.2051 23.416 44.9121 23.416C44.6387 23.416 44.3984 23.4629 44.1914 23.5566C43.9883 23.6504 43.8281 23.7734 43.7109 23.9258C43.5977 24.0781 43.541 24.2422 43.541 24.418H42.457C42.457 24.1914 42.5156 23.9668 42.6328 23.7441C42.75 23.5215 42.918 23.3203 43.1367 23.1406C43.3594 22.957 43.625 22.8125 43.9336 22.707C44.2461 22.5977 44.5938 22.543 44.9766 22.543C45.4375 22.543 45.8438 22.6211 46.1953 22.7773C46.5508 22.9336 46.8281 23.1699 47.0273 23.4863C47.2305 23.7988 47.332 24.1914 47.332 24.6641V27.6172C47.332 27.8281 47.3496 28.0527 47.3848 28.291C47.4238 28.5293 47.4805 28.7344 47.5547 28.9062V29H46.4238C46.3691 28.875 46.3262 28.709 46.2949 28.502C46.2637 28.291 46.248 28.0957 46.248 27.916ZM46.4355 25.1562L46.4473 25.918H45.3516C45.043 25.918 44.7676 25.9434 44.5254 25.9941C44.2832 26.041 44.0801 26.1133 43.916 26.2109C43.752 26.3086 43.627 26.4316 43.541 26.5801C43.4551 26.7246 43.4121 26.8945 43.4121 27.0898C43.4121 27.2891 43.457 27.4707 43.5469 27.6348C43.6367 27.7988 43.7715 27.9297 43.9512 28.0273C44.1348 28.1211 44.3594 28.168 44.625 28.168C44.957 28.168 45.25 28.0977 45.5039 27.957C45.7578 27.8164 45.959 27.6445 46.1074 27.4414C46.2598 27.2383 46.3418 27.041 46.3535 26.8496L46.8164 27.3711C46.7891 27.5352 46.7148 27.7168 46.5938 27.916C46.4727 28.1152 46.3105 28.3066 46.1074 28.4902C45.9082 28.6699 45.6699 28.8203 45.3926 28.9414C45.1191 29.0586 44.8105 29.1172 44.4668 29.1172C44.0371 29.1172 43.6602 29.0332 43.3359 28.8652C43.0156 28.6973 42.7656 28.4727 42.5859 28.1914C42.4102 27.9062 42.3223 27.5879 42.3223 27.2363C42.3223 26.8965 42.3887 26.5977 42.5215 26.3398C42.6543 26.0781 42.8457 25.8613 43.0957 25.6895C43.3457 25.5137 43.6465 25.3809 43.998 25.291C44.3496 25.2012 44.7422 25.1562 45.1758 25.1562H46.4355ZM45.6328 20.2812L47.2383 21.8223H46.2363L45.082 20.7324L43.9336 21.8223H42.9375L44.5312 20.2812H45.6328ZM47.4199 21.0137H46.7461L46.7402 20.2402C46.9121 20.2285 47.0508 20.2109 47.1562 20.1875C47.2617 20.1641 47.3398 20.1289 47.3906 20.082C47.4414 20.0312 47.4668 19.9629 47.4668 19.877C47.4668 19.7793 47.4297 19.7031 47.3555 19.6484C47.2812 19.5898 47.1816 19.5488 47.0566 19.5254C46.9316 19.498 46.793 19.4844 46.6406 19.4844L46.6758 18.9395C46.9258 18.9395 47.1445 18.9629 47.332 19.0098C47.5234 19.0527 47.6836 19.1172 47.8125 19.2031C47.9453 19.2852 48.0449 19.3848 48.1113 19.502C48.1777 19.6152 48.2109 19.7441 48.2109 19.8887C48.2109 20.1426 48.1289 20.3281 47.9648 20.4453C47.8047 20.5586 47.625 20.6289 47.4258 20.6562L47.4199 21.0137ZM50.1152 23.9199V29H49.0254V22.6602H50.0566L50.1152 23.9199ZM49.8926 25.5898L49.3887 25.5723C49.3926 25.1387 49.4492 24.7383 49.5586 24.3711C49.668 24 49.8301 23.6777 50.0449 23.4043C50.2598 23.1309 50.5273 22.9199 50.8477 22.7715C51.168 22.6191 51.5391 22.543 51.9609 22.543C52.2578 22.543 52.5312 22.5859 52.7812 22.6719C53.0312 22.7539 53.248 22.8848 53.4316 23.0645C53.6152 23.2441 53.7578 23.4746 53.8594 23.7559C53.9609 24.0371 54.0117 24.377 54.0117 24.7754V29H52.9277V24.8281C52.9277 24.4961 52.8711 24.2305 52.7578 24.0312C52.6484 23.832 52.4922 23.6875 52.2891 23.5977C52.0859 23.5039 51.8477 23.457 51.5742 23.457C51.2539 23.457 50.9863 23.5137 50.7715 23.627C50.5566 23.7402 50.3848 23.8965 50.2559 24.0957C50.127 24.2949 50.0332 24.5234 49.9746 24.7812C49.9199 25.0352 49.8926 25.3047 49.8926 25.5898ZM54 24.9922L53.2734 25.2148C53.2773 24.8672 53.334 24.5332 53.4434 24.2129C53.5566 23.8926 53.7188 23.6074 53.9297 23.3574C54.1445 23.1074 54.4082 22.9102 54.7207 22.7656C55.0332 22.6172 55.3906 22.543 55.793 22.543C56.1328 22.543 56.4336 22.5879 56.6953 22.6777C56.9609 22.7676 57.1836 22.9062 57.3633 23.0938C57.5469 23.2773 57.6855 23.5137 57.7793 23.8027C57.873 24.0918 57.9199 24.4355 57.9199 24.834V29H56.8301V24.8223C56.8301 24.4668 56.7734 24.1914 56.6602 23.9961C56.5508 23.7969 56.3945 23.6582 56.1914 23.5801C55.9922 23.498 55.7539 23.457 55.4766 23.457C55.2383 23.457 55.0273 23.498 54.8438 23.5801C54.6602 23.6621 54.5059 23.7754 54.3809 23.9199C54.2559 24.0605 54.1602 24.2227 54.0938 24.4062C54.0312 24.5898 54 24.7852 54 24.9922ZM63.627 20V29H62.5371V20H63.627ZM67.5 22.6602L64.7344 25.6191L63.1875 27.2246L63.0996 26.0703L64.207 24.7461L66.1758 22.6602H67.5ZM66.5098 29L64.248 25.9766L64.8105 25.0098L67.7871 29H66.5098ZM69.7031 20V29H68.6191V20H69.7031ZM69.4453 25.5898L68.9941 25.5723C68.998 25.1387 69.0625 24.7383 69.1875 24.3711C69.3125 24 69.4883 23.6777 69.7148 23.4043C69.9414 23.1309 70.2109 22.9199 70.5234 22.7715C70.8398 22.6191 71.1895 22.543 71.5723 22.543C71.8848 22.543 72.166 22.5859 72.416 22.6719C72.666 22.7539 72.8789 22.8867 73.0547 23.0703C73.2344 23.2539 73.3711 23.4922 73.4648 23.7852C73.5586 24.0742 73.6055 24.4277 73.6055 24.8457V29H72.5156V24.834C72.5156 24.502 72.4668 24.2363 72.3691 24.0371C72.2715 23.834 72.1289 23.6875 71.9414 23.5977C71.7539 23.5039 71.5234 23.457 71.25 23.457C70.9805 23.457 70.7344 23.5137 70.5117 23.627C70.293 23.7402 70.1035 23.8965 69.9434 24.0957C69.7871 24.2949 69.6641 24.5234 69.5742 24.7812C69.4883 25.0352 69.4453 25.3047 69.4453 25.5898ZM79.1074 27.5352V22.6602H80.1973V29H79.1602L79.1074 27.5352ZM79.3125 26.1992L79.7637 26.1875C79.7637 26.6094 79.7188 27 79.6289 27.3594C79.543 27.7148 79.4023 28.0234 79.207 28.2852C79.0117 28.5469 78.7559 28.752 78.4395 28.9004C78.123 29.0449 77.7383 29.1172 77.2852 29.1172C76.9766 29.1172 76.6934 29.0723 76.4355 28.9824C76.1816 28.8926 75.9629 28.7539 75.7793 28.5664C75.5957 28.3789 75.4531 28.1348 75.3516 27.834C75.2539 27.5332 75.2051 27.1719 75.2051 26.75V22.6602H76.2891V26.7617C76.2891 27.0469 76.3203 27.2832 76.3828 27.4707C76.4492 27.6543 76.5371 27.8008 76.6465 27.9102C76.7598 28.0156 76.8848 28.0898 77.0215 28.1328C77.1621 28.1758 77.3066 28.1973 77.4551 28.1973C77.916 28.1973 78.2812 28.1094 78.5508 27.9336C78.8203 27.7539 79.0137 27.5137 79.1309 27.2129C79.252 26.9082 79.3125 26.5703 79.3125 26.1992ZM83.6309 28.3438L85.3945 22.6602H86.5547L84.0117 29.9785C83.9531 30.1348 83.875 30.3027 83.7773 30.4824C83.6836 30.666 83.5625 30.8398 83.4141 31.0039C83.2656 31.168 83.0859 31.3008 82.875 31.4023C82.668 31.5078 82.4199 31.5605 82.1309 31.5605C82.0449 31.5605 81.9355 31.5488 81.8027 31.5254C81.6699 31.502 81.5762 31.4824 81.5215 31.4668L81.5156 30.5879C81.5469 30.5918 81.5957 30.5957 81.6621 30.5996C81.7324 30.6074 81.7812 30.6113 81.8086 30.6113C82.0547 30.6113 82.2637 30.5781 82.4355 30.5117C82.6074 30.4492 82.752 30.3418 82.8691 30.1895C82.9902 30.041 83.0938 29.8359 83.1797 29.5742L83.6309 28.3438ZM82.3359 22.6602L83.9824 27.582L84.2637 28.7246L83.4844 29.123L81.1523 22.6602H82.3359ZM90.082 29.1172C89.6406 29.1172 89.2402 29.043 88.8809 28.8945C88.5254 28.7422 88.2188 28.5293 87.9609 28.2559C87.707 27.9824 87.5117 27.6582 87.375 27.2832C87.2383 26.9082 87.1699 26.498 87.1699 26.0527V25.8066C87.1699 25.291 87.2461 24.832 87.3984 24.4297C87.5508 24.0234 87.7578 23.6797 88.0195 23.3984C88.2812 23.1172 88.5781 22.9043 88.9102 22.7598C89.2422 22.6152 89.5859 22.543 89.9414 22.543C90.3945 22.543 90.7852 22.6211 91.1133 22.7773C91.4453 22.9336 91.7168 23.1523 91.9277 23.4336C92.1387 23.7109 92.2949 24.0391 92.3965 24.418C92.498 24.793 92.5488 25.2031 92.5488 25.6484V26.1348H87.8145V25.25H91.4648V25.168C91.4492 24.8867 91.3906 24.6133 91.2891 24.3477C91.1914 24.082 91.0352 23.8633 90.8203 23.6914C90.6055 23.5195 90.3125 23.4336 89.9414 23.4336C89.6953 23.4336 89.4688 23.4863 89.2617 23.5918C89.0547 23.6934 88.877 23.8457 88.7285 24.0488C88.5801 24.252 88.4648 24.5 88.3828 24.793C88.3008 25.0859 88.2598 25.4238 88.2598 25.8066V26.0527C88.2598 26.3535 88.3008 26.6367 88.3828 26.9023C88.4688 27.1641 88.5918 27.3945 88.752 27.5938C88.916 27.793 89.1133 27.9492 89.3438 28.0625C89.5781 28.1758 89.8438 28.2324 90.1406 28.2324C90.5234 28.2324 90.8477 28.1543 91.1133 27.998C91.3789 27.8418 91.6113 27.6328 91.8105 27.3711L92.4668 27.8926C92.3301 28.0996 92.1562 28.2969 91.9453 28.4844C91.7344 28.6719 91.4746 28.8242 91.166 28.9414C90.8613 29.0586 90.5 29.1172 90.082 29.1172ZM87.7852 21.7227L89.4902 20.1875H90.3809L92.0859 21.7227H90.9316L89.9355 20.7969L88.9395 21.7227H87.7852ZM91.6523 20.6855L92.4785 19.1738H93.6504L92.4727 20.6855H91.6523ZM94.8984 24.0137V29H93.8145V22.6602H94.8398L94.8984 24.0137ZM94.6406 25.5898L94.1895 25.5723C94.1934 25.1387 94.2578 24.7383 94.3828 24.3711C94.5078 24 94.6836 23.6777 94.9102 23.4043C95.1367 23.1309 95.4062 22.9199 95.7188 22.7715C96.0352 22.6191 96.3848 22.543 96.7676 22.543C97.0801 22.543 97.3613 22.5859 97.6113 22.6719C97.8613 22.7539 98.0742 22.8867 98.25 23.0703C98.4297 23.2539 98.5664 23.4922 98.6602 23.7852C98.7539 24.0742 98.8008 24.4277 98.8008 24.8457V29H97.7109V24.834C97.7109 24.502 97.6621 24.2363 97.5645 24.0371C97.4668 23.834 97.3242 23.6875 97.1367 23.5977C96.9492 23.5039 96.7188 23.457 96.4453 23.457C96.1758 23.457 95.9297 23.5137 95.707 23.627C95.4883 23.7402 95.2988 23.8965 95.1387 24.0957C94.9824 24.2949 94.8594 24.5234 94.7695 24.7812C94.6836 25.0352 94.6406 25.3047 94.6406 25.5898ZM104.502 23.9199V29H103.412V22.6602H104.443L104.502 23.9199ZM104.279 25.5898L103.775 25.5723C103.779 25.1387 103.836 24.7383 103.945 24.3711C104.055 24 104.217 23.6777 104.432 23.4043C104.646 23.1309 104.914 22.9199 105.234 22.7715C105.555 22.6191 105.926 22.543 106.348 22.543C106.645 22.543 106.918 22.5859 107.168 22.6719C107.418 22.7539 107.635 22.8848 107.818 23.0645C108.002 23.2441 108.145 23.4746 108.246 23.7559C108.348 24.0371 108.398 24.377 108.398 24.7754V29H107.314V24.8281C107.314 24.4961 107.258 24.2305 107.145 24.0312C107.035 23.832 106.879 23.6875 106.676 23.5977C106.473 23.5039 106.234 23.457 105.961 23.457C105.641 23.457 105.373 23.5137 105.158 23.627C104.943 23.7402 104.771 23.8965 104.643 24.0957C104.514 24.2949 104.42 24.5234 104.361 24.7812C104.307 25.0352 104.279 25.3047 104.279 25.5898ZM108.387 24.9922L107.66 25.2148C107.664 24.8672 107.721 24.5332 107.83 24.2129C107.943 23.8926 108.105 23.6074 108.316 23.3574C108.531 23.1074 108.795 22.9102 109.107 22.7656C109.42 22.6172 109.777 22.543 110.18 22.543C110.52 22.543 110.82 22.5879 111.082 22.6777C111.348 22.7676 111.57 22.9062 111.75 23.0938C111.934 23.2773 112.072 23.5137 112.166 23.8027C112.26 24.0918 112.307 24.4355 112.307 24.834V29H111.217V24.8223C111.217 24.4668 111.16 24.1914 111.047 23.9961C110.938 23.7969 110.781 23.6582 110.578 23.5801C110.379 23.498 110.141 23.457 109.863 23.457C109.625 23.457 109.414 23.498 109.23 23.5801C109.047 23.6621 108.893 23.7754 108.768 23.9199C108.643 24.0605 108.547 24.2227 108.48 24.4062C108.418 24.5898 108.387 24.7852 108.387 24.9922ZM117.686 27.916V24.6523C117.686 24.4023 117.635 24.1855 117.533 24.002C117.436 23.8145 117.287 23.6699 117.088 23.5684C116.889 23.4668 116.643 23.416 116.35 23.416C116.076 23.416 115.836 23.4629 115.629 23.5566C115.426 23.6504 115.266 23.7734 115.148 23.9258C115.035 24.0781 114.979 24.2422 114.979 24.418H113.895C113.895 24.1914 113.953 23.9668 114.07 23.7441C114.188 23.5215 114.355 23.3203 114.574 23.1406C114.797 22.957 115.062 22.8125 115.371 22.707C115.684 22.5977 116.031 22.543 116.414 22.543C116.875 22.543 117.281 22.6211 117.633 22.7773C117.988 22.9336 118.266 23.1699 118.465 23.4863C118.668 23.7988 118.77 24.1914 118.77 24.6641V27.6172C118.77 27.8281 118.787 28.0527 118.822 28.291C118.861 28.5293 118.918 28.7344 118.992 28.9062V29H117.861C117.807 28.875 117.764 28.709 117.732 28.502C117.701 28.291 117.686 28.0957 117.686 27.916ZM117.873 25.1562L117.885 25.918H116.789C116.48 25.918 116.205 25.9434 115.963 25.9941C115.721 26.041 115.518 26.1133 115.354 26.2109C115.189 26.3086 115.064 26.4316 114.979 26.5801C114.893 26.7246 114.85 26.8945 114.85 27.0898C114.85 27.2891 114.895 27.4707 114.984 27.6348C115.074 27.7988 115.209 27.9297 115.389 28.0273C115.572 28.1211 115.797 28.168 116.062 28.168C116.395 28.168 116.688 28.0977 116.941 27.957C117.195 27.8164 117.396 27.6445 117.545 27.4414C117.697 27.2383 117.779 27.041 117.791 26.8496L118.254 27.3711C118.227 27.5352 118.152 27.7168 118.031 27.916C117.91 28.1152 117.748 28.3066 117.545 28.4902C117.346 28.6699 117.107 28.8203 116.83 28.9414C116.557 29.0586 116.248 29.1172 115.904 29.1172C115.475 29.1172 115.098 29.0332 114.773 28.8652C114.453 28.6973 114.203 28.4727 114.023 28.1914C113.848 27.9062 113.76 27.5879 113.76 27.2363C113.76 26.8965 113.826 26.5977 113.959 26.3398C114.092 26.0781 114.283 25.8613 114.533 25.6895C114.783 25.5137 115.084 25.3809 115.436 25.291C115.787 25.2012 116.18 25.1562 116.613 25.1562H117.873ZM117.879 20.1172L118.611 20.1816C118.611 20.4668 118.555 20.7168 118.441 20.9316C118.328 21.1465 118.176 21.3125 117.984 21.4297C117.797 21.5469 117.584 21.6055 117.346 21.6055C117.146 21.6055 116.982 21.5781 116.854 21.5234C116.725 21.4648 116.609 21.4004 116.508 21.3301C116.406 21.2559 116.299 21.1914 116.186 21.1367C116.076 21.0781 115.939 21.0488 115.775 21.0488C115.611 21.0488 115.473 21.1113 115.359 21.2363C115.25 21.3613 115.195 21.5156 115.195 21.6992L114.463 21.6641C114.463 21.3789 114.518 21.1289 114.627 20.9141C114.74 20.6953 114.893 20.5254 115.084 20.4043C115.275 20.2793 115.488 20.2168 115.723 20.2168C115.891 20.2168 116.037 20.2461 116.162 20.3047C116.291 20.3594 116.412 20.4238 116.525 20.498C116.639 20.5684 116.756 20.6328 116.877 20.6914C116.998 20.7461 117.137 20.7734 117.293 20.7734C117.457 20.7734 117.596 20.7109 117.709 20.5859C117.822 20.457 117.879 20.3008 117.879 20.1172ZM121.652 22.6602V29H120.562V22.6602H121.652ZM120.48 20.9785C120.48 20.8027 120.533 20.6543 120.639 20.5332C120.748 20.4121 120.908 20.3516 121.119 20.3516C121.326 20.3516 121.484 20.4121 121.594 20.5332C121.707 20.6543 121.764 20.8027 121.764 20.9785C121.764 21.1465 121.707 21.291 121.594 21.4121C121.484 21.5293 121.326 21.5879 121.119 21.5879C120.908 21.5879 120.748 21.5293 120.639 21.4121C120.533 21.291 120.48 21.1465 120.48 20.9785Z" fill="white"/>
<path d="M139.5 9.25V21.75M133.25 15.5H145.75" stroke="white" stroke-width="1.5" stroke-linecap="round" stroke-linejoin="round"/>
<path d="M139.5 28C146.404 28 152 22.4036 152 15.5C152 8.59644 146.404 3 139.5 3C132.596 3 127 8.59644 127 15.5C127 22.4036 132.596 28 139.5 28Z" stroke="white" stroke-width="1.5" stroke-linecap="round" stroke-linejoin="round"/>
</svg>
