<svg width="106" height="30" viewBox="0 0 106 30" fill="none" xmlns="http://www.w3.org/2000/svg">
<rect x="0.5" y="0.930908" width="102.082" height="28" rx="3.5" fill="#FFAC0A" fill-opacity="0.6" stroke="black"/>
<path d="M7.83948 18.4309H5.1463V9.70364H7.9588C8.80539 9.70364 9.52982 9.87835 10.1321 10.2278C10.7344 10.5744 11.196 11.073 11.517 11.7235C11.8381 12.3712 11.9986 13.1468 11.9986 14.0502C11.9986 14.9593 11.8366 15.742 11.5128 16.3982C11.1889 17.0516 10.7173 17.5545 10.098 17.9068C9.47868 18.2562 8.72584 18.4309 7.83948 18.4309ZM6.20311 17.4934H7.7713C8.49289 17.4934 9.0909 17.3542 9.56533 17.0758C10.0398 16.7974 10.3935 16.4011 10.6264 15.8869C10.8594 15.3727 10.9758 14.7605 10.9758 14.0502C10.9758 13.3457 10.8608 12.7391 10.6307 12.2306C10.4006 11.7193 10.0568 11.3272 9.59942 11.0545C9.14203 10.7789 8.57243 10.6411 7.89061 10.6411H6.20311V17.4934ZM13.6349 18.4309V11.8855H14.6406V18.4309H13.6349ZM14.1463 10.7945C13.9503 10.7945 13.7812 10.7278 13.6392 10.5943C13.5 10.4607 13.4304 10.3002 13.4304 10.1127C13.4304 9.92523 13.5 9.76471 13.6392 9.63119C13.7812 9.49767 13.9503 9.43091 14.1463 9.43091C14.3423 9.43091 14.5099 9.49767 14.6491 9.63119C14.7912 9.76471 14.8622 9.92523 14.8622 10.1127C14.8622 10.3002 14.7912 10.4607 14.6491 10.5943C14.5099 10.7278 14.3423 10.7945 14.1463 10.7945ZM14.1463 20.5957C13.9503 20.5957 13.7812 20.5289 13.6392 20.3954C13.5 20.2619 13.4304 20.1014 13.4304 19.9139C13.4304 19.7264 13.5 19.5659 13.6392 19.4323C13.7812 19.2988 13.9503 19.232 14.1463 19.232C14.3423 19.232 14.5099 19.2988 14.6491 19.4323C14.7912 19.5659 14.8622 19.7264 14.8622 19.9139C14.8622 20.1014 14.7912 20.2619 14.6491 20.3954C14.5099 20.5289 14.3423 20.5957 14.1463 20.5957ZM19.1417 18.5673C18.528 18.5673 17.9996 18.4224 17.5565 18.1326C17.1133 17.8428 16.7724 17.4437 16.5337 16.9352C16.2951 16.4266 16.1758 15.8457 16.1758 15.1923C16.1758 14.5275 16.2979 13.9409 16.5422 13.4323C16.7894 12.921 17.1332 12.5218 17.5735 12.2349C18.0167 11.9451 18.5337 11.8002 19.1246 11.8002C19.5849 11.8002 19.9996 11.8855 20.369 12.0559C20.7383 12.2264 21.0408 12.465 21.2766 12.7718C21.5124 13.0786 21.6587 13.4366 21.7155 13.8457H20.7099C20.6332 13.5474 20.4627 13.2832 20.1985 13.0531C19.9371 12.8201 19.5849 12.7036 19.1417 12.7036C18.7496 12.7036 18.4059 12.8059 18.1104 13.0105C17.8178 13.2122 17.5891 13.4977 17.4243 13.867C17.2624 14.2335 17.1815 14.6639 17.1815 15.1582C17.1815 15.6639 17.261 16.1042 17.4201 16.4792C17.582 16.8542 17.8093 17.1454 18.1019 17.3528C18.3974 17.5602 18.744 17.6639 19.1417 17.6639C19.403 17.6639 19.6403 17.6184 19.8533 17.5275C20.0664 17.4366 20.2468 17.3059 20.3945 17.1355C20.5422 16.965 20.6474 16.7605 20.7099 16.5218H21.7155C21.6587 16.9082 21.5181 17.2562 21.2937 17.5659C21.0721 17.8727 20.778 18.117 20.4116 18.2988C20.0479 18.4778 19.6246 18.5673 19.1417 18.5673ZM24.1914 14.4934V18.4309H23.1857V9.70364H24.1914V12.9082H24.2766C24.43 12.5701 24.6601 12.3016 24.967 12.1028C25.2766 11.9011 25.6886 11.8002 26.2028 11.8002C26.6488 11.8002 27.0394 11.8897 27.3746 12.0687C27.7099 12.2448 27.9698 12.5161 28.1545 12.8826C28.342 13.2462 28.4357 13.7093 28.4357 14.2718V18.4309H27.43V14.34C27.43 13.8201 27.2951 13.4181 27.0252 13.134C26.7582 12.8471 26.3874 12.7036 25.913 12.7036C25.5834 12.7036 25.288 12.7732 25.0266 12.9124C24.7681 13.0516 24.5636 13.2548 24.413 13.5218C24.2653 13.7889 24.1914 14.1127 24.1914 14.4934ZM39.0028 11.8855L36.5824 18.4309H35.5596L33.1392 11.8855H34.2301L36.0369 17.1014H36.1051L37.9119 11.8855H39.0028ZM44.4552 15.7548V11.8855H45.4609V18.4309H44.4552V17.323H44.3871C44.2337 17.6553 43.995 17.938 43.6712 18.171C43.3473 18.4011 42.9382 18.5161 42.4439 18.5161C42.0348 18.5161 41.6712 18.4266 41.353 18.2477C41.0348 18.0659 40.7848 17.7931 40.603 17.4295C40.4212 17.063 40.3302 16.6014 40.3302 16.0445V11.8855H41.3359V15.9764C41.3359 16.4536 41.4694 16.8343 41.7365 17.1184C42.0064 17.4025 42.3501 17.5445 42.7677 17.5445C43.0177 17.5445 43.272 17.4806 43.5305 17.3528C43.7919 17.2249 44.0106 17.0289 44.1868 16.7647C44.3658 16.5005 44.4552 16.1639 44.4552 15.7548ZM42.9041 20.5957C42.7081 20.5957 42.5391 20.5289 42.397 20.3954C42.2578 20.2619 42.1882 20.1014 42.1882 19.9139C42.1882 19.7264 42.2578 19.5659 42.397 19.4323C42.5391 19.2988 42.7081 19.232 42.9041 19.232C43.1001 19.232 43.2677 19.2988 43.4069 19.4323C43.549 19.5659 43.62 19.7264 43.62 19.9139C43.62 20.1014 43.549 20.2619 43.4069 20.3954C43.2677 20.5289 43.1001 20.5957 42.9041 20.5957ZM53.5245 11.8855V12.7377H50.1324V11.8855H53.5245ZM51.1211 10.3173H52.1268V16.5559C52.1268 16.84 52.168 17.0531 52.2503 17.1951C52.3356 17.3343 52.4435 17.4281 52.5742 17.4764C52.7077 17.5218 52.8484 17.5445 52.9961 17.5445C53.1069 17.5445 53.1978 17.5389 53.2688 17.5275C53.3398 17.5133 53.3967 17.5019 53.4393 17.4934L53.6438 18.3968C53.5756 18.4224 53.4805 18.448 53.3583 18.4735C53.2361 18.5019 53.0813 18.5161 52.8938 18.5161C52.6097 18.5161 52.3313 18.4551 52.0586 18.3329C51.7887 18.2107 51.5643 18.0247 51.3853 17.7747C51.2092 17.5247 51.1211 17.2093 51.1211 16.8286V10.3173ZM55.0373 18.4309V11.8855H56.043V18.4309H55.0373ZM55.5486 10.7945C55.3526 10.7945 55.1836 10.7278 55.0415 10.5943C54.9023 10.4607 54.8327 10.3002 54.8327 10.1127C54.8327 9.92523 54.9023 9.76471 55.0415 9.63119C55.1836 9.49767 55.3526 9.43091 55.5486 9.43091C55.7447 9.43091 55.9123 9.49767 56.0515 9.63119C56.1935 9.76471 56.2645 9.92523 56.2645 10.1127C56.2645 10.3002 56.1935 10.4607 56.0515 10.5943C55.9123 10.7278 55.7447 10.7945 55.5486 10.7945ZM60.6293 18.5673C59.9986 18.5673 59.4545 18.4281 58.9971 18.1497C58.5426 17.8684 58.1918 17.4764 57.9446 16.9735C57.7003 16.4678 57.5781 15.8798 57.5781 15.2093C57.5781 14.5389 57.7003 13.948 57.9446 13.4366C58.1918 12.9224 58.5355 12.5218 58.9758 12.2349C59.419 11.9451 59.9361 11.8002 60.527 11.8002C60.8679 11.8002 61.2045 11.857 61.5369 11.9707C61.8693 12.0843 62.1719 12.269 62.4446 12.5247C62.7173 12.7775 62.9346 13.1127 63.0966 13.5303C63.2585 13.948 63.3395 14.4622 63.3395 15.073V15.4991H58.294V14.6298H62.3168C62.3168 14.2605 62.2429 13.9309 62.0952 13.6411C61.9503 13.3514 61.7429 13.1227 61.473 12.9551C61.206 12.7874 60.8906 12.7036 60.527 12.7036C60.1264 12.7036 59.7798 12.8031 59.4872 13.0019C59.1974 13.198 58.9744 13.4536 58.8182 13.769C58.6619 14.0843 58.5838 14.4224 58.5838 14.7832V15.3627C58.5838 15.857 58.669 16.2761 58.8395 16.6198C59.0128 16.9607 59.2528 17.2207 59.5596 17.3997C59.8665 17.5758 60.223 17.6639 60.6293 17.6639C60.8935 17.6639 61.1321 17.6269 61.3452 17.5531C61.5611 17.4764 61.7471 17.3627 61.9034 17.2122C62.0596 17.0587 62.1804 16.8684 62.2656 16.6411L63.2372 16.9139C63.1349 17.2434 62.9631 17.5332 62.7216 17.7832C62.4801 18.0303 62.1818 18.2235 61.8267 18.3627C61.4716 18.4991 61.0724 18.5673 60.6293 18.5673ZM61.3622 11.1014L60.4758 9.90818L59.5895 11.1014H58.6349V11.0332L60.0156 9.26045H60.9361L62.3168 11.0332V11.1014H61.3622ZM60.4758 20.5957C60.2798 20.5957 60.1108 20.5289 59.9687 20.3954C59.8295 20.2619 59.7599 20.1014 59.7599 19.9139C59.7599 19.7264 59.8295 19.5659 59.9687 19.4323C60.1108 19.2988 60.2798 19.232 60.4758 19.232C60.6719 19.232 60.8395 19.2988 60.9787 19.4323C61.1207 19.5659 61.1918 19.7264 61.1918 19.9139C61.1918 20.1014 61.1207 20.2619 60.9787 20.3954C60.8395 20.5289 60.6719 20.5957 60.4758 20.5957ZM65.875 14.4934V18.4309H64.8693V11.8855H65.8409V12.9082H65.9261C66.0795 12.5758 66.3125 12.3087 66.625 12.107C66.9375 11.9025 67.3409 11.8002 67.8352 11.8002C68.2784 11.8002 68.6662 11.8911 68.9986 12.073C69.331 12.2519 69.5895 12.5247 69.7741 12.8911C69.9588 13.2548 70.0511 13.715 70.0511 14.2718V18.4309H69.0454V14.34C69.0454 13.8258 68.9119 13.4252 68.6449 13.1383C68.3778 12.8485 68.0114 12.7036 67.5454 12.7036C67.2244 12.7036 66.9375 12.7732 66.6846 12.9124C66.4346 13.0516 66.2372 13.2548 66.0923 13.5218C65.9474 13.7889 65.875 14.1127 65.875 14.4934ZM75.2638 18.4309V11.8855H76.2695V18.4309H75.2638ZM75.315 10.9991L76.3547 9.02182H77.5309L76.2013 10.9991H75.315ZM80.7706 18.5673C80.1569 18.5673 79.6285 18.4224 79.1854 18.1326C78.7422 17.8428 78.4013 17.4437 78.1626 16.9352C77.924 16.4266 77.8047 15.8457 77.8047 15.1923C77.8047 14.5275 77.9268 13.9409 78.1712 13.4323C78.4183 12.921 78.7621 12.5218 79.2024 12.2349C79.6456 11.9451 80.1626 11.8002 80.7535 11.8002C81.2138 11.8002 81.6285 11.8855 81.9979 12.0559C82.3672 12.2264 82.6697 12.465 82.9055 12.7718C83.1413 13.0786 83.2876 13.4366 83.3444 13.8457H82.3388C82.2621 13.5474 82.0916 13.2832 81.8274 13.0531C81.566 12.8201 81.2138 12.7036 80.7706 12.7036C80.3785 12.7036 80.0348 12.8059 79.7393 13.0105C79.4467 13.2122 79.218 13.4977 79.0533 13.867C78.8913 14.2335 78.8104 14.6639 78.8104 15.1582C78.8104 15.6639 78.8899 16.1042 79.049 16.4792C79.2109 16.8542 79.4382 17.1454 79.7308 17.3528C80.0263 17.5602 80.3729 17.6639 80.7706 17.6639C81.0319 17.6639 81.2692 17.6184 81.4822 17.5275C81.6953 17.4366 81.8757 17.3059 82.0234 17.1355C82.1712 16.965 82.2763 16.7605 82.3388 16.5218H83.3444C83.2876 16.9082 83.147 17.2562 82.9226 17.5659C82.701 17.8727 82.4069 18.117 82.0405 18.2988C81.6768 18.4778 81.2535 18.5673 80.7706 18.5673ZM85.8203 14.4934V18.4309H84.8146V9.70364H85.8203V12.9082H85.9055C86.0589 12.5701 86.2891 12.3016 86.5959 12.1028C86.9055 11.9011 87.3175 11.8002 87.8317 11.8002C88.2777 11.8002 88.6683 11.8897 89.0035 12.0687C89.3388 12.2448 89.5987 12.5161 89.7834 12.8826C89.9709 13.2462 90.0646 13.7093 90.0646 14.2718V18.4309H89.0589V14.34C89.0589 13.8201 88.924 13.4181 88.6541 13.134C88.3871 12.8471 88.0163 12.7036 87.5419 12.7036C87.2123 12.7036 86.9169 12.7732 86.6555 12.9124C86.397 13.0516 86.1925 13.2548 86.0419 13.5218C85.8942 13.7889 85.8203 14.1127 85.8203 14.4934Z" fill="black"/>
<path d="M93.3792 12.653L96.504 15.5991L99.6289 12.653C99.943 12.3569 100.45 12.3569 100.764 12.653C101.079 12.9491 101.079 13.4275 100.764 13.7236L97.0678 17.2088C96.7537 17.5049 96.2463 17.5049 95.9322 17.2088L92.2356 13.7236C91.9215 13.4275 91.9215 12.9491 92.2356 12.653C92.5497 12.3645 93.0651 12.3569 93.3792 12.653Z" fill="black"/>
</svg>
