<svg width="66" height="45" viewBox="0 0 66 45" fill="none" xmlns="http://www.w3.org/2000/svg">
<path d="M1.05682 41.4309V32.7036H4.00568C4.69034 32.7036 5.25 32.8272 5.68466 33.0744C6.12216 33.3187 6.44602 33.6497 6.65625 34.0673C6.86648 34.4849 6.97159 34.9508 6.97159 35.465C6.97159 35.9792 6.86648 36.4465 6.65625 36.867C6.44886 37.2874 6.12784 37.6227 5.69318 37.8727C5.25852 38.1198 4.7017 38.2434 4.02273 38.2434H1.90909V37.3059H3.98864C4.45739 37.3059 4.83381 37.2249 5.1179 37.063C5.40199 36.9011 5.60795 36.6823 5.7358 36.4068C5.86648 36.1284 5.93182 35.8144 5.93182 35.465C5.93182 35.1156 5.86648 34.8031 5.7358 34.5275C5.60795 34.2519 5.40057 34.036 5.11364 33.8798C4.8267 33.7207 4.44602 33.6411 3.97159 33.6411H2.11364V41.4309H1.05682ZM9.54332 37.4934V41.4309H8.53764V32.7036H9.54332V35.9082H9.62855C9.78196 35.5701 10.0121 35.3016 10.3189 35.1028C10.6286 34.9011 11.0405 34.8002 11.5547 34.8002C12.0007 34.8002 12.3913 34.8897 12.7266 35.0687C13.0618 35.2448 13.3217 35.5161 13.5064 35.8826C13.6939 36.2462 13.7876 36.7093 13.7876 37.2718V41.4309H12.782V37.34C12.782 36.8201 12.647 36.4181 12.3771 36.134C12.1101 35.8471 11.7393 35.7036 11.2649 35.7036C10.9354 35.7036 10.6399 35.7732 10.3786 35.9124C10.12 36.0516 9.91548 36.2548 9.76491 36.5218C9.61719 36.7889 9.54332 37.1127 9.54332 37.4934ZM19.7525 38.7548V34.8855H20.7582V41.4309H19.7525V40.323H19.6843C19.5309 40.6553 19.2923 40.938 18.9684 41.171C18.6445 41.4011 18.2354 41.5161 17.7411 41.5161C17.332 41.5161 16.9684 41.4266 16.6502 41.2477C16.332 41.0659 16.082 40.7931 15.9002 40.4295C15.7184 40.063 15.6275 39.6014 15.6275 39.0445V34.8855H16.6332V38.9764C16.6332 39.4536 16.7667 39.8343 17.0337 40.1184C17.3036 40.4025 17.6474 40.5445 18.065 40.5445C18.315 40.5445 18.5692 40.4806 18.8278 40.3528C19.0891 40.2249 19.3079 40.0289 19.484 39.7647C19.663 39.5005 19.7525 39.1639 19.7525 38.7548ZM18.2013 43.5957C18.0053 43.5957 17.8363 43.5289 17.6942 43.3954C17.555 43.2619 17.4854 43.1014 17.4854 42.9139C17.4854 42.7264 17.555 42.5659 17.6942 42.4323C17.8363 42.2988 18.0053 42.232 18.2013 42.232C18.3974 42.232 18.565 42.2988 18.7042 42.4323C18.8462 42.5659 18.9173 42.7264 18.9173 42.9139C18.9173 43.1014 18.8462 43.2619 18.7042 43.3954C18.565 43.5289 18.3974 43.5957 18.2013 43.5957ZM26.9126 39.0445L26.8956 37.8002H27.1001L29.9638 34.8855H31.2081L28.157 37.9707H28.0717L26.9126 39.0445ZM25.9751 41.4309V32.7036H26.9808V41.4309H25.9751ZM30.1342 41.4309L27.5774 38.1923L28.2933 37.4934L31.4126 41.4309H30.1342ZM32.5025 41.4309V34.8855H33.5082V41.4309H32.5025ZM33.0138 33.7945C32.8178 33.7945 32.6488 33.7278 32.5067 33.5943C32.3675 33.4607 32.2979 33.3002 32.2979 33.1127C32.2979 32.9252 32.3675 32.7647 32.5067 32.6312C32.6488 32.4977 32.8178 32.4309 33.0138 32.4309C33.2099 32.4309 33.3775 32.4977 33.5167 32.6312C33.6587 32.7647 33.7298 32.9252 33.7298 33.1127C33.7298 33.3002 33.6587 33.4607 33.5167 33.5943C33.3775 33.7278 33.2099 33.7945 33.0138 33.7945ZM38.0945 41.5673C37.4638 41.5673 36.9197 41.4281 36.4624 41.1497C36.0078 40.8684 35.657 40.4764 35.4098 39.9735C35.1655 39.4678 35.0433 38.8798 35.0433 38.2093C35.0433 37.5389 35.1655 36.948 35.4098 36.4366C35.657 35.9224 36.0007 35.5218 36.4411 35.2349C36.8842 34.9451 37.4013 34.8002 37.9922 34.8002C38.3331 34.8002 38.6697 34.857 39.0021 34.9707C39.3345 35.0843 39.6371 35.269 39.9098 35.5247C40.1825 35.7775 40.3999 36.1127 40.5618 36.5303C40.7237 36.948 40.8047 37.4622 40.8047 38.073V38.4991H35.7592V37.6298H39.782C39.782 37.2605 39.7081 36.9309 39.5604 36.6411C39.4155 36.3514 39.2081 36.1227 38.9382 35.9551C38.6712 35.7874 38.3558 35.7036 37.9922 35.7036C37.5916 35.7036 37.245 35.8031 36.9524 36.0019C36.6626 36.198 36.4396 36.4536 36.2834 36.769C36.1271 37.0843 36.049 37.4224 36.049 37.7832V38.3627C36.049 38.857 36.1342 39.2761 36.3047 39.6198C36.478 39.9607 36.718 40.2207 37.0249 40.3997C37.3317 40.5758 37.6882 40.6639 38.0945 40.6639C38.3587 40.6639 38.5973 40.6269 38.8104 40.5531C39.0263 40.4764 39.2124 40.3627 39.3686 40.2122C39.5249 40.0587 39.6456 39.8684 39.7308 39.6411L40.7024 39.9139C40.6001 40.2434 40.4283 40.5332 40.1868 40.7832C39.9453 41.0303 39.647 41.2235 39.2919 41.3627C38.9368 41.4991 38.5376 41.5673 38.0945 41.5673ZM38.8274 34.1014L37.9411 32.9082L37.0547 34.1014H36.1001V34.0332L37.4808 32.2605H38.4013L39.782 34.0332V34.1014H38.8274ZM37.9411 43.5957C37.745 43.5957 37.576 43.5289 37.4339 43.3954C37.2947 43.2619 37.2251 43.1014 37.2251 42.9139C37.2251 42.7264 37.2947 42.5659 37.4339 42.4323C37.576 42.2988 37.745 42.232 37.9411 42.232C38.1371 42.232 38.3047 42.2988 38.4439 42.4323C38.5859 42.5659 38.657 42.7264 38.657 42.9139C38.657 43.1014 38.5859 43.2619 38.4439 43.3954C38.3047 43.5289 38.1371 43.5957 37.9411 43.5957ZM43.3402 37.4934V41.4309H42.3345V34.8855H43.3061V35.9082H43.3913C43.5447 35.5758 43.7777 35.3087 44.0902 35.107C44.4027 34.9025 44.8061 34.8002 45.3004 34.8002C45.7436 34.8002 46.1314 34.8911 46.4638 35.073C46.7962 35.2519 47.0547 35.5247 47.2393 35.8911C47.424 36.2548 47.5163 36.715 47.5163 37.2718V41.4309H46.5107V37.34C46.5107 36.8258 46.3771 36.4252 46.1101 36.1383C45.843 35.8485 45.4766 35.7036 45.0107 35.7036C44.6896 35.7036 44.4027 35.7732 44.1499 35.9124C43.8999 36.0516 43.7024 36.2548 43.5575 36.5218C43.4126 36.7889 43.3402 37.1127 43.3402 37.4934Z" fill="black"/>
<path d="M25 15.4309H28.75C29.413 15.4309 30.0489 15.6943 30.5178 16.1631C30.9866 16.632 31.25 17.2679 31.25 17.9309V24.1809C31.25 24.8439 30.9866 25.4798 30.5178 25.9487C30.0489 26.4175 29.413 26.6809 28.75 26.6809H25C24.337 26.6809 23.7011 26.4175 23.2322 25.9487C22.7634 25.4798 22.5 24.8439 22.5 24.1809V15.4309C22.5 8.52716 28.0963 2.93091 35 2.93091C41.9037 2.93091 47.5 8.52716 47.5 15.4309V24.1809C47.5 24.8439 47.2366 25.4798 46.7678 25.9487C46.2989 26.4175 45.663 26.6809 45 26.6809H41.25C40.587 26.6809 39.9511 26.4175 39.4822 25.9487C39.0134 25.4798 38.75 24.8439 38.75 24.1809V17.9309C38.75 17.2679 39.0134 16.632 39.4822 16.1631C39.9511 15.6943 40.587 15.4309 41.25 15.4309H45C45 12.7787 43.9464 10.2352 42.0711 8.35984C40.1957 6.48448 37.6522 5.43091 35 5.43091C32.3478 5.43091 29.8043 6.48448 27.9289 8.35984C26.0536 10.2352 25 12.7787 25 15.4309Z" fill="black"/>
<path d="M54.1454 33.7863L59.0063 38.5L63.8671 33.7863C64.3557 33.3125 65.145 33.3125 65.6336 33.7863C66.1221 34.2601 66.1221 35.0254 65.6336 35.4992L59.8832 41.0756C59.3946 41.5494 58.6054 41.5494 58.1168 41.0756L52.3664 35.4992C51.8779 35.0254 51.8779 34.2601 52.3664 33.7863C52.855 33.3246 53.6568 33.3125 54.1454 33.7863Z" fill="black"/>
</svg>
