<svg width="40" height="40" viewBox="0 0 40 40" fill="none" xmlns="http://www.w3.org/2000/svg">
<path d="M1.05682 37V28.2727H2.11364V36.0625H6.17045V37H1.05682ZM9.59659 37.1534C9.18182 37.1534 8.8054 37.0753 8.46733 36.919C8.12926 36.7599 7.8608 36.5312 7.66193 36.233C7.46307 35.9318 7.36364 35.5682 7.36364 35.142C7.36364 34.767 7.4375 34.4631 7.58523 34.2301C7.73295 33.9943 7.9304 33.8097 8.17756 33.6761C8.42472 33.5426 8.69744 33.4432 8.99574 33.3778C9.29688 33.3097 9.59943 33.2557 9.90341 33.2159C10.3011 33.1648 10.6236 33.1264 10.8707 33.1009C11.1207 33.0724 11.3026 33.0256 11.4162 32.9602C11.5327 32.8949 11.5909 32.7812 11.5909 32.6193V32.5852C11.5909 32.1648 11.4759 31.8381 11.2457 31.6051C11.0185 31.3722 10.6733 31.2557 10.2102 31.2557C9.73011 31.2557 9.35369 31.3608 9.08097 31.571C8.80824 31.7812 8.61648 32.0057 8.50568 32.2443L7.55114 31.9034C7.72159 31.5057 7.94886 31.196 8.23295 30.9744C8.51989 30.75 8.83239 30.5937 9.17045 30.5057C9.51136 30.4148 9.84659 30.3693 10.1761 30.3693C10.3864 30.3693 10.6278 30.3949 10.9006 30.446C11.1761 30.4943 11.4418 30.5952 11.6974 30.7486C11.956 30.902 12.1705 31.1335 12.3409 31.4432C12.5114 31.7528 12.5966 32.1676 12.5966 32.6875V37H11.5909V36.1136H11.5398C11.4716 36.2557 11.358 36.4077 11.1989 36.5696C11.0398 36.7315 10.8281 36.8693 10.5639 36.983C10.2997 37.0966 9.97727 37.1534 9.59659 37.1534ZM9.75 36.25C10.1477 36.25 10.483 36.1719 10.7557 36.0156C11.0313 35.8594 11.2386 35.6577 11.3778 35.4105C11.5199 35.1634 11.5909 34.9034 11.5909 34.6307V33.7102C11.5483 33.7614 11.4545 33.8082 11.3097 33.8509C11.1676 33.8906 11.0028 33.9261 10.8153 33.9574C10.6307 33.9858 10.4503 34.0114 10.2741 34.0341C10.1009 34.054 9.96023 34.071 9.85227 34.0852C9.59091 34.1193 9.34659 34.1747 9.11932 34.2514C8.89489 34.3253 8.71307 34.4375 8.57386 34.5881C8.4375 34.7358 8.36932 34.9375 8.36932 35.1932C8.36932 35.5426 8.49858 35.8068 8.7571 35.9858C9.01847 36.1619 9.34943 36.25 9.75 36.25ZM14.4322 39.4545V30.4545H15.4038V31.4943H15.5231C15.5969 31.3807 15.6992 31.2358 15.8299 31.0597C15.9634 30.8807 16.1538 30.7216 16.4009 30.5824C16.6509 30.4403 16.989 30.3693 17.4151 30.3693C17.9663 30.3693 18.4521 30.5071 18.8725 30.7827C19.293 31.0582 19.6211 31.4489 19.8569 31.9545C20.0927 32.4602 20.2106 33.0568 20.2106 33.7443C20.2106 34.4375 20.0927 35.0384 19.8569 35.5469C19.6211 36.0526 19.2944 36.4446 18.8768 36.723C18.4592 36.9986 17.9776 37.1364 17.4322 37.1364C17.0117 37.1364 16.6751 37.0668 16.4222 36.9276C16.1694 36.7855 15.9748 36.625 15.8384 36.446C15.7021 36.2642 15.5969 36.1136 15.5231 35.9943H15.4379V39.4545H14.4322ZM15.4208 33.7273C15.4208 34.2216 15.4933 34.6577 15.6381 35.0355C15.783 35.4105 15.9947 35.7045 16.2731 35.9176C16.5515 36.1278 16.8924 36.233 17.2958 36.233C17.7163 36.233 18.0671 36.1222 18.3484 35.9006C18.6325 35.6761 18.8455 35.375 18.9876 34.9972C19.1325 34.6165 19.2049 34.1932 19.2049 33.7273C19.2049 33.267 19.1339 32.8523 18.9918 32.483C18.8526 32.1108 18.641 31.8168 18.3569 31.6009C18.0756 31.3821 17.7219 31.2727 17.2958 31.2727C16.8867 31.2727 16.543 31.3764 16.2646 31.5838C15.9862 31.7884 15.7759 32.0753 15.6339 32.4446C15.4918 32.8111 15.4208 33.2386 15.4208 33.7273ZM24.5913 30.4545V31.3068H21.1992V30.4545H24.5913ZM22.1879 28.8864H23.1935V35.125C23.1935 35.4091 23.2347 35.6222 23.3171 35.7642C23.4023 35.9034 23.5103 35.9972 23.641 36.0455C23.7745 36.0909 23.9151 36.1136 24.0629 36.1136C24.1737 36.1136 24.2646 36.108 24.3356 36.0966C24.4066 36.0824 24.4634 36.071 24.506 36.0625L24.7106 36.9659C24.6424 36.9915 24.5472 37.017 24.4251 37.0426C24.3029 37.071 24.1481 37.0852 23.9606 37.0852C23.6765 37.0852 23.3981 37.0241 23.1254 36.902C22.8555 36.7798 22.631 36.5938 22.4521 36.3438C22.2759 36.0938 22.1879 35.7784 22.1879 35.3977V28.8864ZM28.6928 37.1364C28.1019 37.1364 27.5835 36.9957 27.1374 36.7145C26.6942 36.4332 26.3477 36.0398 26.0977 35.5341C25.8505 35.0284 25.7269 34.4375 25.7269 33.7614C25.7269 33.0795 25.8505 32.4844 26.0977 31.9759C26.3477 31.4673 26.6942 31.0724 27.1374 30.7912C27.5835 30.5099 28.1019 30.3693 28.6928 30.3693C29.2837 30.3693 29.8008 30.5099 30.244 30.7912C30.69 31.0724 31.0366 31.4673 31.2837 31.9759C31.5337 32.4844 31.6587 33.0795 31.6587 33.7614C31.6587 34.4375 31.5337 35.0284 31.2837 35.5341C31.0366 36.0398 30.69 36.4332 30.244 36.7145C29.8008 36.9957 29.2837 37.1364 28.6928 37.1364ZM28.6928 36.233C29.1417 36.233 29.511 36.1179 29.8008 35.8878C30.0906 35.6577 30.305 35.3551 30.4442 34.9801C30.5835 34.6051 30.6531 34.1989 30.6531 33.7614C30.6531 33.3239 30.5835 32.9162 30.4442 32.5384C30.305 32.1605 30.0906 31.8551 29.8008 31.6222C29.511 31.3892 29.1417 31.2727 28.6928 31.2727C28.244 31.2727 27.8746 31.3892 27.5849 31.6222C27.2951 31.8551 27.0806 32.1605 26.9414 32.5384C26.8022 32.9162 26.7326 33.3239 26.7326 33.7614C26.7326 34.1989 26.8022 34.6051 26.9414 34.9801C27.0806 35.3551 27.2951 35.6577 27.5849 35.8878C27.8746 36.1179 28.244 36.233 28.6928 36.233ZM33.1939 39.4545V30.4545H34.1655V31.4943H34.2848C34.3587 31.3807 34.4609 31.2358 34.5916 31.0597C34.7251 30.8807 34.9155 30.7216 35.1626 30.5824C35.4126 30.4403 35.7507 30.3693 36.1768 30.3693C36.728 30.3693 37.2138 30.5071 37.6342 30.7827C38.0547 31.0582 38.3828 31.4489 38.6186 31.9545C38.8544 32.4602 38.9723 33.0568 38.9723 33.7443C38.9723 34.4375 38.8544 35.0384 38.6186 35.5469C38.3828 36.0526 38.0561 36.4446 37.6385 36.723C37.2209 36.9986 36.7393 37.1364 36.1939 37.1364C35.7734 37.1364 35.4368 37.0668 35.1839 36.9276C34.9311 36.7855 34.7365 36.625 34.6001 36.446C34.4638 36.2642 34.3587 36.1136 34.2848 35.9943H34.1996V39.4545H33.1939ZM34.1825 33.7273C34.1825 34.2216 34.255 34.6577 34.3999 35.0355C34.5447 35.4105 34.7564 35.7045 35.0348 35.9176C35.3132 36.1278 35.6541 36.233 36.0575 36.233C36.478 36.233 36.8288 36.1222 37.1101 35.9006C37.3942 35.6761 37.6072 35.375 37.7493 34.9972C37.8942 34.6165 37.9666 34.1932 37.9666 33.7273C37.9666 33.267 37.8956 32.8523 37.7536 32.483C37.6143 32.1108 37.4027 31.8168 37.1186 31.6009C36.8374 31.3821 36.4837 31.2727 36.0575 31.2727C35.6484 31.2727 35.3047 31.3764 35.0263 31.5838C34.7479 31.7884 34.5376 32.0753 34.3956 32.4446C34.2536 32.8111 34.1825 33.2386 34.1825 33.7273Z" fill="black"/>
<path fill-rule="evenodd" clip-rule="evenodd" d="M31.8438 2.51424H9.15625C8.88275 2.51424 8.62044 2.62399 8.42705 2.81934C8.23365 3.01469 8.125 3.27964 8.125 3.55591V19.1809H32.875V3.55591C32.875 3.27964 32.7664 3.01469 32.573 2.81934C32.3796 2.62399 32.1173 2.51424 31.8438 2.51424ZM9.15625 0.430908C8.33574 0.430908 7.54883 0.760148 6.96864 1.3462C6.38845 1.93225 6.0625 2.72711 6.0625 3.55591V21.2642H34.9375V3.55591C34.9375 2.72711 34.6116 1.93225 34.0314 1.3462C33.4512 0.760148 32.6643 0.430908 31.8438 0.430908H9.15625Z" fill="black"/>
<path d="M4 21.2643H37V22.3059C37 23.1347 36.6741 23.9296 36.0939 24.5156C35.5137 25.1017 34.7268 25.4309 33.9062 25.4309H7.09375C6.27324 25.4309 5.48633 25.1017 4.90614 24.5156C4.32595 23.9296 4 23.1347 4 22.3059V21.2643Z" fill="black"/>
</svg>
