<svg width="155" height="78" viewBox="0 0 155 78" fill="none" xmlns="http://www.w3.org/2000/svg">
<path fill-rule="evenodd" clip-rule="evenodd" d="M81.875 12.625H66.125C65.4288 12.625 64.7611 12.9016 64.2688 13.3938C63.7766 13.8861 63.5 14.5538 63.5 15.25V31C63.5 31.3481 63.3617 31.6819 63.1156 31.9281C62.8694 32.1742 62.5356 32.3125 62.1875 32.3125C61.8394 32.3125 61.5056 32.1742 61.2594 31.9281C61.0133 31.6819 60.875 31.3481 60.875 31V15.25C60.875 13.8576 61.4281 12.5223 62.4127 11.5377C63.3973 10.5531 64.7326 10 66.125 10H81.875C83.2674 10 84.6027 10.5531 85.5873 11.5377C86.5719 12.5223 87.125 13.8576 87.125 15.25V31C87.125 31.3481 86.9867 31.6819 86.7406 31.9281C86.4944 32.1742 86.1606 32.3125 85.8125 32.3125C85.4644 32.3125 85.1306 32.1742 84.8844 31.9281C84.6383 31.6819 84.5 31.3481 84.5 31V15.25C84.5 14.5538 84.2234 13.8861 83.7312 13.3938C83.2389 12.9016 82.5712 12.625 81.875 12.625ZM84.5 46.75C84.5 47.4462 84.2234 48.1139 83.7312 48.6062C83.2389 49.0984 82.5712 49.375 81.875 49.375H66.125C65.4288 49.375 64.7611 49.0984 64.2688 48.6062C63.7766 48.1139 63.5 47.4462 63.5 46.75V41.5C63.5 41.1519 63.3617 40.8181 63.1156 40.5719C62.8694 40.3258 62.5356 40.1875 62.1875 40.1875C61.8394 40.1875 61.5056 40.3258 61.2594 40.5719C61.0133 40.8181 60.875 41.1519 60.875 41.5V46.75C60.875 48.1424 61.4281 49.4777 62.4127 50.4623C63.3973 51.4469 64.7326 52 66.125 52H81.875C83.2674 52 84.6027 51.4469 85.5873 50.4623C86.5719 49.4777 87.125 48.1424 87.125 46.75V41.5C87.125 41.1519 86.9867 40.8181 86.7406 40.5719C86.4944 40.3258 86.1606 40.1875 85.8125 40.1875C85.4644 40.1875 85.1306 40.3258 84.8844 40.5719C84.6383 40.8181 84.5 41.1519 84.5 41.5V46.75ZM57.4966 30.8792C57.8127 30.7334 58.0579 30.468 58.1782 30.1413C58.2986 29.8147 58.2843 29.4536 58.1384 29.1376C58.0662 28.9811 57.9639 28.8403 57.8373 28.7234C57.7107 28.6064 57.5622 28.5155 57.4005 28.4559C57.0739 28.3356 56.7128 28.3499 56.3967 28.4958C55.4859 28.9158 54.68 29.4092 54.0815 29.992C53.483 30.5852 53 31.3649 53 32.3125C53 33.7458 54.071 34.78 55.1604 35.4651C56.3154 36.1949 57.8983 36.8039 59.741 37.2921C63.4423 38.2791 68.4823 38.875 74 38.875C74.2599 38.875 74.5171 38.875 74.7717 38.8697L71.7582 41.8832C71.6362 42.0053 71.5394 42.1502 71.4734 42.3096C71.4073 42.469 71.3733 42.6399 71.3733 42.8125C71.3733 42.9851 71.4073 43.156 71.4734 43.3154C71.5394 43.4748 71.6362 43.6197 71.7582 43.7418C72.0047 43.9882 72.339 44.1267 72.6875 44.1267C72.8601 44.1267 73.031 44.0927 73.1904 44.0266C73.3498 43.9606 73.4947 43.8638 73.6168 43.7418L78.8668 38.4918C78.989 38.3698 79.086 38.225 79.1521 38.0655C79.2183 37.9061 79.2523 37.7351 79.2523 37.5625C79.2523 37.3899 79.2183 37.2189 79.1521 37.0595C79.086 36.9 78.989 36.7552 78.8668 36.6332L73.6168 31.3832C73.4947 31.2612 73.3498 31.1644 73.1904 31.0984C73.031 31.0323 72.8601 30.9983 72.6875 30.9983C72.5149 30.9983 72.344 31.0323 72.1846 31.0984C72.0252 31.1644 71.8803 31.2612 71.7582 31.3832C71.6362 31.5053 71.5394 31.6502 71.4734 31.8096C71.4073 31.969 71.3733 32.1399 71.3733 32.3125C71.3733 32.4851 71.4073 32.656 71.4734 32.8154C71.5394 32.9748 71.6362 33.1197 71.7582 33.2418L74.7639 36.2447L74 36.25C68.645 36.25 63.8412 35.6699 60.4182 34.7564C58.6962 34.297 57.3969 33.7746 56.5595 33.247C55.6565 32.6774 55.625 32.3282 55.625 32.3125C55.625 32.3046 55.625 32.1576 55.919 31.8662C56.2209 31.5722 56.7328 31.231 57.494 30.8792H57.4966ZM91.6033 28.4958C91.2872 28.3499 90.9261 28.3356 90.5995 28.4559C90.2729 28.5763 90.0074 28.8215 89.8616 29.1376C89.7157 29.4536 89.7014 29.8147 89.8218 30.1413C89.9421 30.468 90.1873 30.7334 90.5034 30.8792C91.2699 31.231 91.7791 31.5723 92.0784 31.8689C92.375 32.1576 92.375 32.3046 92.375 32.3125C92.375 32.3204 92.375 32.4831 92.0338 32.8034C91.6873 33.1236 91.1097 33.4859 90.2566 33.8534C88.5635 34.5884 86.0671 35.2263 83.0038 35.6568C82.6639 35.7108 82.3588 35.8963 82.1543 36.1731C81.9498 36.4499 81.8622 36.796 81.9104 37.1367C81.9586 37.4775 82.1387 37.7857 82.412 37.995C82.6852 38.2042 83.0297 38.2978 83.3712 38.2555C86.5527 37.8092 89.3038 37.1267 91.2988 36.2657C92.2963 35.8352 93.1704 35.3286 93.8188 34.7249C94.4645 34.1237 95 33.3153 95 32.3125C95 31.3623 94.517 30.58 93.9185 29.9946C93.32 29.4092 92.5141 28.9158 91.6033 28.4958ZM72.6875 15.25C72.3394 15.25 72.0056 15.3883 71.7594 15.6344C71.5133 15.8806 71.375 16.2144 71.375 16.5625C71.375 16.9106 71.5133 17.2444 71.7594 17.4906C72.0056 17.7367 72.3394 17.875 72.6875 17.875H75.3125C75.6606 17.875 75.9944 17.7367 76.2406 17.4906C76.4867 17.2444 76.625 16.9106 76.625 16.5625C76.625 16.2144 76.4867 15.8806 76.2406 15.6344C75.9944 15.3883 75.6606 15.25 75.3125 15.25H72.6875Z" fill="black"/>
<path d="M54.3012 60.2727H55.5626L58.5285 67.517H58.6307L61.5967 60.2727H62.858V69H61.8694V62.3693H61.7842L59.0569 69H58.1023L55.3751 62.3693H55.2898V69H54.3012V60.2727ZM66.7668 69.1534C66.352 69.1534 65.9756 69.0753 65.6375 68.919C65.2994 68.7599 65.031 68.5312 64.8321 68.233C64.6332 67.9318 64.5338 67.5682 64.5338 67.142C64.5338 66.767 64.6077 66.4631 64.7554 66.2301C64.9031 65.9943 65.1006 65.8097 65.3477 65.6761C65.5949 65.5426 65.8676 65.4432 66.1659 65.3778C66.467 65.3097 66.7696 65.2557 67.0736 65.2159C67.4713 65.1648 67.7937 65.1264 68.0409 65.1009C68.2909 65.0724 68.4727 65.0256 68.5864 64.9602C68.7028 64.8949 68.7611 64.7812 68.7611 64.6193V64.5852C68.7611 64.1648 68.646 63.8381 68.4159 63.6051C68.1886 63.3722 67.8435 63.2557 67.3804 63.2557C66.9003 63.2557 66.5239 63.3608 66.2511 63.571C65.9784 63.7812 65.7866 64.0057 65.6758 64.2443L64.7213 63.9034C64.8918 63.5057 65.119 63.196 65.4031 62.9744C65.6901 62.75 66.0026 62.5937 66.3406 62.5057C66.6815 62.4148 67.0168 62.3693 67.3463 62.3693C67.5565 62.3693 67.798 62.3949 68.0707 62.446C68.3463 62.4943 68.6119 62.5952 68.8676 62.7486C69.1261 62.902 69.3406 63.1335 69.5111 63.4432C69.6815 63.7528 69.7668 64.1676 69.7668 64.6875V69H68.7611V68.1136H68.7099C68.6418 68.2557 68.5281 68.4077 68.369 68.5696C68.2099 68.7315 67.9983 68.8693 67.7341 68.983C67.4699 69.0966 67.1474 69.1534 66.7668 69.1534ZM66.9202 68.25C67.3179 68.25 67.6531 68.1719 67.9258 68.0156C68.2014 67.8594 68.4088 67.6577 68.548 67.4105C68.6901 67.1634 68.7611 66.9034 68.7611 66.6307V65.7102C68.7185 65.7614 68.6247 65.8082 68.4798 65.8509C68.3378 65.8906 68.173 65.9261 67.9855 65.9574C67.8008 65.9858 67.6205 66.0114 67.4443 66.0341C67.271 66.054 67.1304 66.071 67.0224 66.0852C66.7611 66.1193 66.5168 66.1747 66.2895 66.2514C66.0651 66.3253 65.8832 66.4375 65.744 66.5881C65.6077 66.7358 65.5395 66.9375 65.5395 67.1932C65.5395 67.5426 65.6687 67.8068 65.9273 67.9858C66.1886 68.1619 66.5196 68.25 66.9202 68.25ZM66.9543 61.5682L67.994 59.5909H69.1702L67.8406 61.5682H66.9543ZM72.0157 71.4545C71.8452 71.4545 71.6932 71.4403 71.5597 71.4119C71.4262 71.3864 71.3339 71.3608 71.2827 71.3352L71.5384 70.4489C71.7827 70.5114 71.9986 70.5341 72.1861 70.517C72.3736 70.5 72.5398 70.4162 72.6847 70.2656C72.8325 70.1179 72.9674 69.8778 73.0896 69.5455L73.2771 69.0341L70.8566 62.4545H71.9475L73.7543 67.6705H73.8225L75.6293 62.4545H76.7202L73.9418 69.9545C73.8168 70.2926 73.662 70.5724 73.4773 70.794C73.2927 71.0185 73.0782 71.1847 72.8339 71.2926C72.5924 71.4006 72.3197 71.4545 72.0157 71.4545ZM84.0817 69.1364C83.4681 69.1364 82.9397 68.9915 82.4965 68.7017C82.0533 68.4119 81.7124 68.0128 81.4738 67.5043C81.2352 66.9957 81.1158 66.4148 81.1158 65.7614C81.1158 65.0966 81.238 64.5099 81.4823 64.0014C81.7295 63.4901 82.0732 63.0909 82.5136 62.804C82.9567 62.5142 83.4738 62.3693 84.0647 62.3693C84.5249 62.3693 84.9397 62.4545 85.309 62.625C85.6783 62.7955 85.9809 63.0341 86.2167 63.3409C86.4525 63.6477 86.5988 64.0057 86.6556 64.4148H85.6499C85.5732 64.1165 85.4028 63.8523 85.1386 63.6222C84.8772 63.3892 84.5249 63.2727 84.0817 63.2727C83.6897 63.2727 83.3459 63.375 83.0505 63.5795C82.7579 63.7812 82.5292 64.0668 82.3644 64.4361C82.2025 64.8026 82.1215 65.233 82.1215 65.7273C82.1215 66.233 82.2011 66.6733 82.3602 67.0483C82.5221 67.4233 82.7494 67.7145 83.042 67.9219C83.3374 68.1293 83.684 68.233 84.0817 68.233C84.3431 68.233 84.5803 68.1875 84.7934 68.0966C85.0065 68.0057 85.1869 67.875 85.3346 67.7045C85.4823 67.5341 85.5874 67.3295 85.6499 67.0909H86.6556C86.5988 67.4773 86.4582 67.8253 86.2337 68.1349C86.0121 68.4418 85.7181 68.6861 85.3516 68.8679C84.988 69.0469 84.5647 69.1364 84.0817 69.1364ZM92.2508 66.3239V62.4545H93.2565V69H92.2508V67.892H92.1826C92.0292 68.2244 91.7905 68.5071 91.4667 68.7401C91.1428 68.9702 90.7337 69.0852 90.2394 69.0852C89.8303 69.0852 89.4667 68.9957 89.1485 68.8168C88.8303 68.6349 88.5803 68.3622 88.3985 67.9986C88.2167 67.6321 88.1258 67.1705 88.1258 66.6136V62.4545H89.1315V66.5455C89.1315 67.0227 89.265 67.4034 89.532 67.6875C89.8019 67.9716 90.1457 68.1136 90.5633 68.1136C90.8133 68.1136 91.0675 68.0497 91.3261 67.9219C91.5874 67.794 91.8062 67.598 91.9823 67.3338C92.1613 67.0696 92.2508 66.733 92.2508 66.3239ZM89.3871 61.6705L88.603 61.6364C88.603 61.2017 88.7266 60.8466 88.9738 60.571C89.2238 60.2926 89.532 60.1534 89.8985 60.1534C90.0604 60.1534 90.2039 60.1818 90.3289 60.2386C90.4539 60.2926 90.5732 60.3551 90.6869 60.4261C90.8005 60.4972 90.917 60.5611 91.0363 60.6179C91.1584 60.6719 91.2962 60.6989 91.4496 60.6989C91.6116 60.6989 91.7479 60.6364 91.8587 60.5114C91.9724 60.3835 92.0292 60.2301 92.0292 60.0511L92.7962 60.1193C92.7962 60.5625 92.6712 60.9148 92.4212 61.1761C92.1741 61.4375 91.8673 61.5682 91.5008 61.5682C91.3048 61.5682 91.1428 61.5412 91.015 61.4872C90.8871 61.4304 90.7735 61.3665 90.6741 61.2955C90.5746 61.2244 90.4695 61.1619 90.3587 61.108C90.2479 61.0511 90.1116 61.0227 89.9496 61.0227C89.7877 61.0227 89.6528 61.0866 89.5448 61.2145C89.4397 61.3395 89.3871 61.4915 89.3871 61.6705Z" fill="black"/>
</svg>
