<svg width="88" height="30" viewBox="0 0 88 30" fill="none" xmlns="http://www.w3.org/2000/svg">
<rect x="0.5" y="0.930908" width="87" height="28" rx="3.5" fill="#FFAC0A" fill-opacity="0.6" stroke="black"/>
<path d="M6.05682 10.7036H7.31818L10.2841 17.948H10.3864L13.3523 10.7036H14.6136V19.4309H13.625V12.8002H13.5398L10.8125 19.4309H9.85795L7.13068 12.8002H7.04545V19.4309H6.05682V10.7036ZM18.5224 19.5843C18.1076 19.5843 17.7312 19.5062 17.3931 19.3499C17.055 19.1909 16.7866 18.9622 16.5877 18.6639C16.3888 18.3627 16.2894 17.9991 16.2894 17.573C16.2894 17.198 16.3633 16.894 16.511 16.661C16.6587 16.4252 16.8562 16.2406 17.1033 16.107C17.3505 15.9735 17.6232 15.8741 17.9215 15.8087C18.2227 15.7406 18.5252 15.6866 18.8292 15.6468C19.2269 15.5957 19.5494 15.5573 19.7965 15.5318C20.0465 15.5034 20.2283 15.4565 20.342 15.3911C20.4585 15.3258 20.5167 15.2122 20.5167 15.0502V15.0161C20.5167 14.5957 20.4016 14.269 20.1715 14.036C19.9442 13.8031 19.5991 13.6866 19.136 13.6866C18.6559 13.6866 18.2795 13.7917 18.0067 14.0019C17.734 14.2122 17.5423 14.4366 17.4315 14.6752L16.4769 14.3343C16.6474 13.9366 16.8746 13.6269 17.1587 13.4053C17.4457 13.1809 17.7582 13.0247 18.0962 12.9366C18.4371 12.8457 18.7724 12.8002 19.1019 12.8002C19.3121 12.8002 19.5536 12.8258 19.8263 12.8769C20.1019 12.9252 20.3675 13.0261 20.6232 13.1795C20.8817 13.3329 21.0962 13.5644 21.2667 13.8741C21.4371 14.1837 21.5224 14.5985 21.5224 15.1184V19.4309H20.5167V18.5445H20.4656C20.3974 18.6866 20.2837 18.8386 20.1246 19.0005C19.9656 19.1624 19.7539 19.3002 19.4897 19.4139C19.2255 19.5275 18.9031 19.5843 18.5224 19.5843ZM18.6758 18.6809C19.0735 18.6809 19.4087 18.6028 19.6815 18.4465C19.957 18.2903 20.1644 18.0886 20.3036 17.8414C20.4457 17.5943 20.5167 17.3343 20.5167 17.0616V16.1411C20.4741 16.1923 20.3803 16.2391 20.2354 16.2818C20.0934 16.3215 19.9286 16.357 19.7411 16.3883C19.5565 16.4167 19.3761 16.4423 19.1999 16.465C19.0266 16.4849 18.886 16.5019 18.7781 16.5161C18.5167 16.5502 18.2724 16.6056 18.0451 16.6823C17.8207 16.7562 17.6388 16.8684 17.4996 17.019C17.3633 17.1667 17.2951 17.3684 17.2951 17.6241C17.2951 17.9735 17.4244 18.2377 17.6829 18.4167C17.9442 18.5928 18.2752 18.6809 18.6758 18.6809ZM18.7099 11.9991L19.7496 10.0218H20.9258L19.5962 11.9991H18.7099ZM23.7713 21.8855C23.6009 21.8855 23.4489 21.8712 23.3153 21.8428C23.1818 21.8173 23.0895 21.7917 23.0384 21.7661L23.294 20.8798C23.5384 20.9423 23.7543 20.965 23.9418 20.948C24.1293 20.9309 24.2955 20.8471 24.4403 20.6965C24.5881 20.5488 24.723 20.3087 24.8452 19.9764L25.0327 19.465L22.6122 12.8855H23.7031L25.5099 18.1014H25.5781L27.3849 12.8855H28.4759L25.6974 20.3855C25.5724 20.7235 25.4176 21.0034 25.233 21.2249C25.0483 21.4494 24.8338 21.6156 24.5895 21.7235C24.348 21.8315 24.0753 21.8855 23.7713 21.8855ZM35.8374 19.5673C35.2237 19.5673 34.6953 19.4224 34.2521 19.1326C33.8089 18.8428 33.468 18.4437 33.2294 17.9352C32.9908 17.4266 32.8714 16.8457 32.8714 16.1923C32.8714 15.5275 32.9936 14.9409 33.2379 14.4323C33.4851 13.921 33.8288 13.5218 34.2692 13.2349C34.7124 12.9451 35.2294 12.8002 35.8203 12.8002C36.2805 12.8002 36.6953 12.8855 37.0646 13.0559C37.4339 13.2264 37.7365 13.465 37.9723 13.7718C38.2081 14.0786 38.3544 14.4366 38.4112 14.8457H37.4055C37.3288 14.5474 37.1584 14.2832 36.8942 14.0531C36.6328 13.8201 36.2805 13.7036 35.8374 13.7036C35.4453 13.7036 35.1016 13.8059 34.8061 14.0105C34.5135 14.2122 34.2848 14.4977 34.12 14.867C33.9581 15.2335 33.8771 15.6639 33.8771 16.1582C33.8771 16.6639 33.9567 17.1042 34.1158 17.4792C34.2777 17.8542 34.505 18.1454 34.7976 18.3528C35.093 18.5602 35.4396 18.6639 35.8374 18.6639C36.0987 18.6639 36.3359 18.6184 36.549 18.5275C36.7621 18.4366 36.9425 18.3059 37.0902 18.1355C37.2379 17.965 37.343 17.7605 37.4055 17.5218H38.4112C38.3544 17.9082 38.2138 18.2562 37.9893 18.5659C37.7678 18.8727 37.4737 19.117 37.1072 19.2988C36.7436 19.4778 36.3203 19.5673 35.8374 19.5673ZM44.0064 16.7548V12.8855H45.0121V19.4309H44.0064V18.323H43.9382C43.7848 18.6553 43.5462 18.938 43.2223 19.171C42.8984 19.4011 42.4893 19.5161 41.995 19.5161C41.5859 19.5161 41.2223 19.4266 40.9041 19.2477C40.5859 19.0659 40.3359 18.7931 40.1541 18.4295C39.9723 18.063 39.8814 17.6014 39.8814 17.0445V12.8855H40.8871V16.9764C40.8871 17.4536 41.0206 17.8343 41.2876 18.1184C41.5575 18.4025 41.9013 18.5445 42.3189 18.5445C42.5689 18.5445 42.8232 18.4806 43.0817 18.3528C43.343 18.2249 43.5618 18.0289 43.7379 17.7647C43.9169 17.5005 44.0064 17.1639 44.0064 16.7548ZM41.1428 12.1014L40.3587 12.0673C40.3587 11.6326 40.4822 11.2775 40.7294 11.0019C40.9794 10.7235 41.2876 10.5843 41.6541 10.5843C41.8161 10.5843 41.9595 10.6127 42.0845 10.6695C42.2095 10.7235 42.3288 10.786 42.4425 10.857C42.5561 10.9281 42.6726 10.992 42.7919 11.0488C42.9141 11.1028 43.0518 11.1298 43.2053 11.1298C43.3672 11.1298 43.5036 11.0673 43.6143 10.9423C43.728 10.8144 43.7848 10.661 43.7848 10.482L44.5518 10.5502C44.5518 10.9934 44.4268 11.3457 44.1768 11.607C43.9297 11.8684 43.6229 11.9991 43.2564 11.9991C43.0604 11.9991 42.8984 11.9721 42.7706 11.9181C42.6428 11.8613 42.5291 11.7974 42.4297 11.7264C42.3303 11.6553 42.2251 11.5928 42.1143 11.5389C42.0036 11.482 41.8672 11.4536 41.7053 11.4536C41.5433 11.4536 41.4084 11.5176 41.3004 11.6454C41.1953 11.7704 41.1428 11.9224 41.1428 12.1014ZM52.8711 22.0218C52.3853 22.0218 51.9677 21.9593 51.6183 21.8343C51.2688 21.7122 50.9776 21.5502 50.7447 21.3485C50.5146 21.1497 50.3313 20.9366 50.195 20.7093L50.9961 20.1468C51.087 20.2661 51.2021 20.4025 51.3413 20.5559C51.4805 20.7122 51.6708 20.8471 51.9123 20.9607C52.1566 21.0772 52.4762 21.1355 52.8711 21.1355C53.3995 21.1355 53.8356 21.0076 54.1793 20.7519C54.5231 20.4962 54.695 20.0957 54.695 19.5502V18.2207H54.6097C54.5359 18.34 54.4308 18.4877 54.2944 18.6639C54.1609 18.8372 53.9677 18.992 53.7148 19.1284C53.4648 19.2619 53.1268 19.3286 52.7006 19.3286C52.1722 19.3286 51.6978 19.2036 51.2773 18.9536C50.8597 18.7036 50.5288 18.34 50.2844 17.8627C50.043 17.3855 49.9222 16.8059 49.9222 16.1241C49.9222 15.4536 50.0401 14.8698 50.2759 14.3727C50.5117 13.8727 50.8398 13.4863 51.2603 13.2136C51.6808 12.938 52.1665 12.8002 52.7177 12.8002C53.1438 12.8002 53.4819 12.8712 53.7319 13.0133C53.9847 13.1525 54.1779 13.3116 54.3114 13.4906C54.4478 13.6667 54.5529 13.8116 54.6268 13.9252H54.729V12.8855H55.7006V19.6184C55.7006 20.1809 55.5728 20.6383 55.3171 20.9906C55.0643 21.3457 54.7234 21.6056 54.2944 21.7704C53.8683 21.938 53.3938 22.0218 52.8711 22.0218ZM52.837 18.4252C53.2404 18.4252 53.5813 18.3329 53.8597 18.1482C54.1381 17.9636 54.3498 17.698 54.4947 17.3514C54.6396 17.0048 54.712 16.59 54.712 16.107C54.712 15.6355 54.641 15.2193 54.4989 14.8585C54.3569 14.4977 54.1467 14.215 53.8683 14.0105C53.5898 13.8059 53.2461 13.7036 52.837 13.7036C52.4109 13.7036 52.0558 13.8116 51.7717 14.0275C51.4904 14.2434 51.2788 14.5332 51.1367 14.8968C50.9975 15.2605 50.9279 15.6639 50.9279 16.107C50.9279 16.5616 50.9989 16.9636 51.141 17.313C51.2859 17.6596 51.4989 17.9323 51.7802 18.1312C52.0643 18.3272 52.4165 18.4252 52.837 18.4252ZM57.5415 19.4309V12.8855H58.5472V19.4309H57.5415ZM58.0529 11.7945C57.8569 11.7945 57.6879 11.7278 57.5458 11.5943C57.4066 11.4607 57.337 11.3002 57.337 11.1127C57.337 10.9252 57.4066 10.7647 57.5458 10.6312C57.6879 10.4977 57.8569 10.4309 58.0529 10.4309C58.2489 10.4309 58.4165 10.4977 58.5558 10.6312C58.6978 10.7647 58.7688 10.9252 58.7688 11.1127C58.7688 11.3002 58.6978 11.4607 58.5558 11.5943C58.4165 11.7278 58.2489 11.7945 58.0529 11.7945ZM62.3153 19.5843C61.9006 19.5843 61.5241 19.5062 61.1861 19.3499C60.848 19.1909 60.5795 18.9622 60.3807 18.6639C60.1818 18.3627 60.0824 17.9991 60.0824 17.573C60.0824 17.198 60.1563 16.894 60.304 16.661C60.4517 16.4252 60.6491 16.2406 60.8963 16.107C61.1435 15.9735 61.4162 15.8741 61.7145 15.8087C62.0156 15.7406 62.3182 15.6866 62.6222 15.6468C63.0199 15.5957 63.3423 15.5573 63.5895 15.5318C63.8395 15.5034 64.0213 15.4565 64.1349 15.3911C64.2514 15.3258 64.3097 15.2122 64.3097 15.0502V15.0161C64.3097 14.5957 64.1946 14.269 63.9645 14.036C63.7372 13.8031 63.392 13.6866 62.929 13.6866C62.4489 13.6866 62.0724 13.7917 61.7997 14.0019C61.527 14.2122 61.3352 14.4366 61.2244 14.6752L60.2699 14.3343C60.4403 13.9366 60.6676 13.6269 60.9517 13.4053C61.2386 13.1809 61.5511 13.0247 61.8892 12.9366C62.2301 12.8457 62.5653 12.8002 62.8949 12.8002C63.1051 12.8002 63.3466 12.8258 63.6193 12.8769C63.8949 12.9252 64.1605 13.0261 64.4162 13.1795C64.6747 13.3329 64.8892 13.5644 65.0597 13.8741C65.2301 14.1837 65.3153 14.5985 65.3153 15.1184V19.4309H64.3097V18.5445H64.2585C64.1903 18.6866 64.0767 18.8386 63.9176 19.0005C63.7585 19.1624 63.5469 19.3002 63.2827 19.4139C63.0185 19.5275 62.696 19.5843 62.3153 19.5843ZM62.4688 18.6809C62.8665 18.6809 63.2017 18.6028 63.4744 18.4465C63.75 18.2903 63.9574 18.0886 64.0966 17.8414C64.2386 17.5943 64.3097 17.3343 64.3097 17.0616V16.1411C64.267 16.1923 64.1733 16.2391 64.0284 16.2818C63.8864 16.3215 63.7216 16.357 63.5341 16.3883C63.3494 16.4167 63.169 16.4423 62.9929 16.465C62.8196 16.4849 62.679 16.5019 62.571 16.5161C62.3097 16.5502 62.0653 16.6056 61.8381 16.6823C61.6136 16.7562 61.4318 16.8684 61.2926 17.019C61.1563 17.1667 61.0881 17.3684 61.0881 17.6241C61.0881 17.9735 61.2173 18.2377 61.4759 18.4167C61.7372 18.5928 62.0682 18.6809 62.4688 18.6809ZM62.5028 11.9991L63.5426 10.0218H64.7188L63.3892 11.9991H62.5028ZM70.5259 19.4309V12.8855H71.4975V13.8741H71.5657C71.685 13.5502 71.9009 13.2874 72.2134 13.0857C72.5259 12.884 72.8782 12.7832 73.2702 12.7832C73.3441 12.7832 73.4364 12.7846 73.5472 12.7874C73.658 12.7903 73.7418 12.7945 73.7987 12.8002V13.823C73.7646 13.8144 73.6864 13.8016 73.5643 13.7846C73.445 13.7647 73.3185 13.7548 73.185 13.7548C72.8668 13.7548 72.5827 13.8215 72.3327 13.9551C72.0856 14.0857 71.8896 14.2676 71.7447 14.5005C71.6026 14.7306 71.5316 14.9934 71.5316 15.2889V19.4309H70.5259ZM77.5359 19.5673C76.9052 19.5673 76.3612 19.4281 75.9038 19.1497C75.4492 18.8684 75.0984 18.4764 74.8512 17.9735C74.6069 17.4678 74.4847 16.8798 74.4847 16.2093C74.4847 15.5389 74.6069 14.948 74.8512 14.4366C75.0984 13.9224 75.4421 13.5218 75.8825 13.2349C76.3256 12.9451 76.8427 12.8002 77.4336 12.8002C77.7745 12.8002 78.1112 12.857 78.4435 12.9707C78.7759 13.0843 79.0785 13.269 79.3512 13.5247C79.6239 13.7775 79.8413 14.1127 80.0032 14.5303C80.1651 14.948 80.2461 15.4622 80.2461 16.073V16.4991H75.2006V15.6298H79.2234C79.2234 15.2605 79.1495 14.9309 79.0018 14.6411C78.8569 14.3514 78.6495 14.1227 78.3796 13.9551C78.1126 13.7874 77.7972 13.7036 77.4336 13.7036C77.033 13.7036 76.6864 13.8031 76.3938 14.0019C76.104 14.198 75.881 14.4536 75.7248 14.769C75.5685 15.0843 75.4904 15.4224 75.4904 15.7832V16.3627C75.4904 16.857 75.5756 17.2761 75.7461 17.6198C75.9194 17.9607 76.1594 18.2207 76.4663 18.3997C76.7731 18.5758 77.1296 18.6639 77.5359 18.6639C77.8001 18.6639 78.0387 18.6269 78.2518 18.5531C78.4677 18.4764 78.6538 18.3627 78.81 18.2122C78.9663 18.0587 79.087 17.8684 79.1722 17.6411L80.1438 17.9139C80.0415 18.2434 79.8697 18.5332 79.6282 18.7832C79.3867 19.0303 79.0884 19.2235 78.7333 19.3627C78.3782 19.4991 77.979 19.5673 77.5359 19.5673ZM77.8256 11.9991H76.9904V11.0786C77.2887 11.0616 77.4989 11.0204 77.6211 10.9551C77.7461 10.8897 77.8086 10.7889 77.8086 10.6525C77.8086 10.4991 77.7191 10.3869 77.5401 10.3159C77.3612 10.2448 77.1438 10.2093 76.8881 10.2093L76.9222 9.56159C77.5103 9.56159 77.9549 9.66386 78.256 9.86841C78.56 10.073 78.712 10.3457 78.712 10.6866C78.712 10.9764 78.6197 11.188 78.435 11.3215C78.2504 11.4551 78.0472 11.5389 77.8256 11.573V11.9991Z" fill="black"/>
</svg>
