<svg width="76" height="44" viewBox="0 0 76 44" fill="none" xmlns="http://www.w3.org/2000/svg">
<path d="M1.05682 31.7036H2.31818L5.28409 38.948H5.38636L8.35227 31.7036H9.61364V40.4309H8.625V33.8002H8.53977L5.8125 40.4309H4.85795L2.13068 33.8002H2.04545V40.4309H1.05682V31.7036ZM13.5224 40.5843C13.1076 40.5843 12.7312 40.5062 12.3931 40.3499C12.055 40.1909 11.7866 39.9622 11.5877 39.6639C11.3888 39.3627 11.2894 38.9991 11.2894 38.573C11.2894 38.198 11.3633 37.894 11.511 37.661C11.6587 37.4252 11.8562 37.2406 12.1033 37.107C12.3505 36.9735 12.6232 36.8741 12.9215 36.8087C13.2227 36.7406 13.5252 36.6866 13.8292 36.6468C14.2269 36.5957 14.5494 36.5573 14.7965 36.5318C15.0465 36.5034 15.2283 36.4565 15.342 36.3911C15.4585 36.3258 15.5167 36.2122 15.5167 36.0502V36.0161C15.5167 35.5957 15.4016 35.269 15.1715 35.036C14.9442 34.8031 14.5991 34.6866 14.136 34.6866C13.6559 34.6866 13.2795 34.7917 13.0067 35.0019C12.734 35.2122 12.5423 35.4366 12.4315 35.6752L11.4769 35.3343C11.6474 34.9366 11.8746 34.6269 12.1587 34.4053C12.4457 34.1809 12.7582 34.0247 13.0962 33.9366C13.4371 33.8457 13.7724 33.8002 14.1019 33.8002C14.3121 33.8002 14.5536 33.8258 14.8263 33.8769C15.1019 33.9252 15.3675 34.0261 15.6232 34.1795C15.8817 34.3329 16.0962 34.5644 16.2667 34.8741C16.4371 35.1837 16.5224 35.5985 16.5224 36.1184V40.4309H15.5167V39.5445H15.4656C15.3974 39.6866 15.2837 39.8386 15.1246 40.0005C14.9656 40.1624 14.7539 40.3002 14.4897 40.4139C14.2255 40.5275 13.9031 40.5843 13.5224 40.5843ZM13.6758 39.6809C14.0735 39.6809 14.4087 39.6028 14.6815 39.4465C14.957 39.2903 15.1644 39.0886 15.3036 38.8414C15.4457 38.5943 15.5167 38.3343 15.5167 38.0616V37.1411C15.4741 37.1923 15.3803 37.2391 15.2354 37.2818C15.0934 37.3215 14.9286 37.357 14.7411 37.3883C14.5565 37.4167 14.3761 37.4423 14.1999 37.465C14.0266 37.4849 13.886 37.5019 13.7781 37.5161C13.5167 37.5502 13.2724 37.6056 13.0451 37.6823C12.8207 37.7562 12.6388 37.8684 12.4996 38.019C12.3633 38.1667 12.2951 38.3684 12.2951 38.6241C12.2951 38.9735 12.4244 39.2377 12.6829 39.4167C12.9442 39.5928 13.2752 39.6809 13.6758 39.6809ZM13.7099 32.9991L14.7496 31.0218H15.9258L14.5962 32.9991H13.7099ZM18.7713 42.8855C18.6009 42.8855 18.4489 42.8712 18.3153 42.8428C18.1818 42.8173 18.0895 42.7917 18.0384 42.7661L18.294 41.8798C18.5384 41.9423 18.7543 41.965 18.9418 41.948C19.1293 41.9309 19.2955 41.8471 19.4403 41.6965C19.5881 41.5488 19.723 41.3087 19.8452 40.9764L20.0327 40.465L17.6122 33.8855H18.7031L20.5099 39.1014H20.5781L22.3849 33.8855H23.4759L20.6974 41.3855C20.5724 41.7235 20.4176 42.0034 20.233 42.2249C20.0483 42.4494 19.8338 42.6156 19.5895 42.7235C19.348 42.8315 19.0753 42.8855 18.7713 42.8855ZM29.3714 31.7036V40.4309H28.3146V31.7036H29.3714ZM32.3597 36.4934V40.4309H31.354V33.8855H32.3256V34.9082H32.4109C32.5643 34.5758 32.7972 34.3087 33.1097 34.107C33.4222 33.9025 33.8256 33.8002 34.32 33.8002C34.7631 33.8002 35.1509 33.8911 35.4833 34.073C35.8157 34.2519 36.0742 34.5247 36.2589 34.8911C36.4435 35.2548 36.5359 35.715 36.5359 36.2718V40.4309H35.5302V36.34C35.5302 35.8258 35.3967 35.4252 35.1296 35.1383C34.8626 34.8485 34.4961 34.7036 34.0302 34.7036C33.7092 34.7036 33.4222 34.7732 33.1694 34.9124C32.9194 35.0516 32.7219 35.2548 32.5771 35.5218C32.4322 35.7889 32.3597 36.1127 32.3597 36.4934ZM39.8736 39.2377L39.8054 39.698C39.7571 40.0218 39.6832 40.3684 39.5838 40.7377C39.4872 41.107 39.3864 41.4551 39.2812 41.7818C39.1761 42.1085 39.0895 42.3684 39.0213 42.5616H38.2543C38.2912 42.3798 38.3395 42.1397 38.3991 41.8414C38.4588 41.5431 38.5185 41.2093 38.5781 40.84C38.6406 40.4735 38.6918 40.0985 38.7315 39.715L38.7827 39.2377H39.8736ZM41.8732 40.4309V31.7036H44.8221C45.5067 31.7036 46.0664 31.8272 46.5011 32.0744C46.9386 32.3187 47.2624 32.6497 47.4727 33.0673C47.6829 33.4849 47.788 33.9508 47.788 34.465C47.788 34.9792 47.6829 35.4465 47.4727 35.867C47.2653 36.2874 46.9442 36.6227 46.5096 36.8727C46.0749 37.1198 45.5181 37.2434 44.8391 37.2434H42.7255V36.3059H44.805C45.2738 36.3059 45.6502 36.2249 45.9343 36.063C46.2184 35.9011 46.4244 35.6823 46.5522 35.4068C46.6829 35.1284 46.7482 34.8144 46.7482 34.465C46.7482 34.1156 46.6829 33.8031 46.5522 33.5275C46.4244 33.2519 46.217 33.036 45.93 32.8798C45.6431 32.7207 45.2624 32.6411 44.788 32.6411H42.93V40.4309H41.8732ZM56.5131 34.4309H55.4563C55.3938 34.1269 55.2844 33.8599 55.1282 33.6298C54.9748 33.3997 54.7873 33.2065 54.5657 33.0502C54.3469 32.8911 54.104 32.7718 53.837 32.6923C53.57 32.6127 53.2915 32.573 53.0018 32.573C52.4734 32.573 51.9947 32.7065 51.5657 32.9735C51.1396 33.2406 50.8001 33.634 50.5472 34.1539C50.2972 34.6738 50.1722 35.3116 50.1722 36.0673C50.1722 36.823 50.2972 37.4607 50.5472 37.9806C50.8001 38.5005 51.1396 38.894 51.5657 39.161C51.9947 39.4281 52.4734 39.5616 53.0018 39.5616C53.2915 39.5616 53.57 39.5218 53.837 39.4423C54.104 39.3627 54.3469 39.2448 54.5657 39.0886C54.7873 38.9295 54.9748 38.7349 55.1282 38.5048C55.2844 38.2718 55.3938 38.0048 55.4563 37.7036H56.5131C56.4336 38.1497 56.2887 38.5488 56.0785 38.9011C55.8683 39.2534 55.6069 39.5531 55.2944 39.8002C54.9819 40.0445 54.631 40.2306 54.2418 40.3585C53.8555 40.4863 53.4421 40.5502 53.0018 40.5502C52.2575 40.5502 51.5955 40.3684 51.016 40.0048C50.4364 39.6411 49.9805 39.1241 49.6481 38.4536C49.3157 37.7832 49.1495 36.9877 49.1495 36.0673C49.1495 35.1468 49.3157 34.3514 49.6481 33.6809C49.9805 33.0105 50.4364 32.4934 51.016 32.1298C51.5955 31.7661 52.2575 31.5843 53.0018 31.5843C53.4421 31.5843 53.8555 31.6482 54.2418 31.7761C54.631 31.9039 54.9819 32.0914 55.2944 32.3386C55.6069 32.5829 55.8683 32.8812 56.0785 33.2335C56.2887 33.5829 56.4336 33.982 56.5131 34.4309Z" fill="black"/>
<path d="M19.1667 9.09758V18.8476C19.167 19.1348 19.2812 19.4102 19.4843 19.6132C19.6874 19.8163 19.9628 19.9306 20.25 19.9309H31.0833C31.3707 19.9309 31.6462 20.045 31.8494 20.2482C32.0525 20.4514 32.1667 20.7269 32.1667 21.0142C32.1667 21.3016 32.0525 21.5771 31.8494 21.7803C31.6462 21.9834 31.3707 22.0976 31.0833 22.0976H28.9167V24.2642H31.0833C31.3707 24.2642 31.6462 24.3784 31.8494 24.5815C32.0525 24.7847 32.1667 25.0603 32.1667 25.3476C32.1667 25.6349 32.0525 25.9104 31.8494 26.1136C31.6462 26.3168 31.3707 26.4309 31.0833 26.4309H24.5833C24.296 26.4309 24.0205 26.3168 23.8173 26.1136C23.6141 25.9104 23.5 25.6349 23.5 25.3476C23.5 25.0603 23.6141 24.7847 23.8173 24.5815C24.0205 24.3784 24.296 24.2642 24.5833 24.2642H26.75V22.0976H20.25C19.3883 22.0966 18.5623 21.7539 17.953 21.1446C17.3437 20.5353 17.001 19.7092 17 18.8476V9.09758C17.001 8.23592 17.3437 7.40985 17.953 6.80057C18.5623 6.19129 19.3883 5.84856 20.25 5.84758H31.0833C31.3707 5.84758 31.6462 5.96171 31.8494 6.16488C32.0525 6.36804 32.1667 6.64359 32.1667 6.93091C32.1667 7.21823 32.0525 7.49378 31.8494 7.69694C31.6462 7.90011 31.3707 8.01424 31.0833 8.01424H20.25C19.9628 8.01457 19.6874 8.12881 19.4843 8.33191C19.2812 8.535 19.167 8.81036 19.1667 9.09758V9.09758ZM44.0833 4.76424H39.75C39.4627 4.76424 39.1871 4.87838 38.984 5.08154C38.7808 5.28471 38.6667 5.56026 38.6667 5.84758C38.6667 6.13489 38.7808 6.41044 38.984 6.61361C39.1871 6.81677 39.4627 6.93091 39.75 6.93091H44.0833C44.3707 6.93091 44.6462 6.81677 44.8494 6.61361C45.0525 6.41044 45.1667 6.13489 45.1667 5.84758C45.1667 5.56026 45.0525 5.28471 44.8494 5.08154C44.6462 4.87838 44.3707 4.76424 44.0833 4.76424ZM44.0833 9.09758H39.75C39.4627 9.09758 39.1871 9.21171 38.984 9.41488C38.7808 9.61804 38.6667 9.89359 38.6667 10.1809C38.6667 10.4682 38.7808 10.7438 38.984 10.9469C39.1871 11.1501 39.4627 11.2642 39.75 11.2642H44.0833C44.3707 11.2642 44.6462 11.1501 44.8494 10.9469C45.0525 10.7438 45.1667 10.4682 45.1667 10.1809C45.1667 9.89359 45.0525 9.61804 44.8494 9.41488C44.6462 9.21171 44.3707 9.09758 44.0833 9.09758ZM49.5 2.59757V24.2642C49.4993 24.8387 49.2709 25.3894 48.8647 25.7956C48.4585 26.2018 47.9078 26.4303 47.3333 26.4309H36.5C35.9256 26.4303 35.3748 26.2018 34.9687 25.7956C34.5625 25.3894 34.334 24.8387 34.3333 24.2642V2.59757C34.334 2.02314 34.5625 1.47242 34.9687 1.06624C35.3748 0.660049 35.9256 0.431565 36.5 0.430908H47.3333C47.9078 0.431565 48.4585 0.660049 48.8647 1.06624C49.2709 1.47242 49.4993 2.02314 49.5 2.59757V2.59757ZM47.3347 24.2642L47.3333 2.59757H36.5V24.2642H47.3333L47.3347 24.2642ZM41.9167 18.8476C41.5953 18.8476 41.2811 18.9429 41.0139 19.1214C40.7466 19.3 40.5384 19.5538 40.4154 19.8507C40.2924 20.1476 40.2602 20.4744 40.3229 20.7896C40.3856 21.1048 40.5404 21.3944 40.7676 21.6216C40.9949 21.8489 41.2844 22.0037 41.5996 22.0664C41.9149 22.1291 42.2416 22.0969 42.5385 21.9739C42.8355 21.8509 43.0892 21.6426 43.2678 21.3754C43.4464 21.1081 43.5417 20.794 43.5417 20.4726C43.5412 20.0417 43.3698 19.6287 43.0652 19.3241C42.7605 19.0194 42.3475 18.8481 41.9167 18.8476V18.8476Z" fill="black"/>
<path d="M64.1454 32.7863L69.0063 37.5L73.8671 32.7863C74.3557 32.3125 75.145 32.3125 75.6336 32.7863C76.1221 33.2601 76.1221 34.0254 75.6336 34.4992L69.8832 40.0756C69.3946 40.5494 68.6054 40.5494 68.1168 40.0756L62.3664 34.4992C61.8779 34.0254 61.8779 33.2601 62.3664 32.7863C62.855 32.3246 63.6568 32.3125 64.1454 32.7863Z" fill="black"/>
</svg>
