<svg width="59" height="44" viewBox="0 0 59 44" fill="none" xmlns="http://www.w3.org/2000/svg">
<path d="M4.75 41H2.65341V40.0625H4.68182C5.40341 40.0625 6.00142 39.9233 6.47585 39.6449C6.95028 39.3665 7.30398 38.9702 7.53693 38.456C7.76989 37.9418 7.88636 37.3295 7.88636 36.6193C7.88636 35.9148 7.77131 35.3082 7.54119 34.7997C7.31108 34.2884 6.96733 33.8963 6.50994 33.6236C6.05256 33.348 5.48295 33.2102 4.80114 33.2102H2.60227V32.2727H4.86932C5.71591 32.2727 6.44034 32.4474 7.04261 32.7969C7.64489 33.1435 8.10653 33.642 8.42756 34.2926C8.74858 34.9403 8.90909 35.7159 8.90909 36.6193C8.90909 37.5284 8.74716 38.3111 8.4233 38.9673C8.09943 39.6207 7.62784 40.1236 7.00852 40.4759C6.3892 40.8253 5.63636 41 4.75 41ZM3.11364 32.2727V41H2.05682V32.2727H3.11364ZM0.710227 36.892V36.108H4.46023V36.892H0.710227ZM10.5455 41V34.4545H11.5511V41H10.5455ZM11.0568 33.3636C10.8608 33.3636 10.6918 33.2969 10.5497 33.1634C10.4105 33.0298 10.3409 32.8693 10.3409 32.6818C10.3409 32.4943 10.4105 32.3338 10.5497 32.2003C10.6918 32.0668 10.8608 32 11.0568 32C11.2528 32 11.4205 32.0668 11.5597 32.2003C11.7017 32.3338 11.7727 32.4943 11.7727 32.6818C11.7727 32.8693 11.7017 33.0298 11.5597 33.1634C11.4205 33.2969 11.2528 33.3636 11.0568 33.3636ZM16.1374 41.1364C15.5067 41.1364 14.9627 40.9972 14.5053 40.7188C14.0508 40.4375 13.6999 40.0455 13.4528 39.5426C13.2085 39.0369 13.0863 38.4489 13.0863 37.7784C13.0863 37.108 13.2085 36.517 13.4528 36.0057C13.6999 35.4915 14.0437 35.0909 14.484 34.804C14.9272 34.5142 15.4442 34.3693 16.0352 34.3693C16.3761 34.3693 16.7127 34.4261 17.0451 34.5398C17.3775 34.6534 17.68 34.8381 17.9528 35.0938C18.2255 35.3466 18.4428 35.6818 18.6048 36.0994C18.7667 36.517 18.8477 37.0312 18.8477 37.642V38.0682H13.8022V37.1989H17.8249C17.8249 36.8295 17.7511 36.5 17.6033 36.2102C17.4585 35.9205 17.2511 35.6918 16.9812 35.5241C16.7141 35.3565 16.3988 35.2727 16.0352 35.2727C15.6346 35.2727 15.288 35.3722 14.9954 35.571C14.7056 35.767 14.4826 36.0227 14.3263 36.3381C14.1701 36.6534 14.092 36.9915 14.092 37.3523V37.9318C14.092 38.4261 14.1772 38.8452 14.3477 39.1889C14.521 39.5298 14.761 39.7898 15.0678 39.9688C15.3746 40.1449 15.7312 40.233 16.1374 40.233C16.4016 40.233 16.6403 40.196 16.8533 40.1222C17.0692 40.0455 17.2553 39.9318 17.4116 39.7812C17.5678 39.6278 17.6886 39.4375 17.7738 39.2102L18.7454 39.483C18.6431 39.8125 18.4712 40.1023 18.2298 40.3523C17.9883 40.5994 17.69 40.7926 17.3349 40.9318C16.9798 41.0682 16.5806 41.1364 16.1374 41.1364ZM16.8704 33.6705L15.984 32.4773L15.0977 33.6705H14.1431V33.6023L15.5238 31.8295H16.4442L17.8249 33.6023V33.6705H16.8704ZM15.984 43.1648C15.788 43.1648 15.619 43.098 15.4769 42.9645C15.3377 42.831 15.2681 42.6705 15.2681 42.483C15.2681 42.2955 15.3377 42.1349 15.4769 42.0014C15.619 41.8679 15.788 41.8011 15.984 41.8011C16.18 41.8011 16.3477 41.8679 16.4869 42.0014C16.6289 42.1349 16.6999 42.2955 16.6999 42.483C16.6999 42.6705 16.6289 42.831 16.4869 42.9645C16.3477 43.098 16.18 43.1648 15.984 43.1648ZM21.3832 37.0625V41H20.3775V34.4545H21.3491V35.4773H21.4343C21.5877 35.1449 21.8207 34.8778 22.1332 34.6761C22.4457 34.4716 22.8491 34.3693 23.3434 34.3693C23.7866 34.3693 24.1744 34.4602 24.5067 34.642C24.8391 34.821 25.0977 35.0938 25.2823 35.4602C25.467 35.8239 25.5593 36.2841 25.5593 36.8409V41H24.5536V36.9091C24.5536 36.3949 24.4201 35.9943 24.1531 35.7074C23.886 35.4176 23.5195 35.2727 23.0536 35.2727C22.7326 35.2727 22.4457 35.3423 22.1928 35.4815C21.9428 35.6207 21.7454 35.8239 21.6005 36.0909C21.4556 36.358 21.3832 36.6818 21.3832 37.0625ZM33.6186 34.4545V35.3068H30.2266V34.4545H33.6186ZM31.2152 32.8864H32.2209V39.125C32.2209 39.4091 32.2621 39.6222 32.3445 39.7642C32.4297 39.9034 32.5376 39.9972 32.6683 40.0455C32.8018 40.0909 32.9425 40.1136 33.0902 40.1136C33.201 40.1136 33.2919 40.108 33.3629 40.0966C33.4339 40.0824 33.4908 40.071 33.5334 40.0625L33.7379 40.9659C33.6697 40.9915 33.5746 41.017 33.4524 41.0426C33.3303 41.071 33.1754 41.0852 32.9879 41.0852C32.7038 41.0852 32.4254 41.0241 32.1527 40.902C31.8828 40.7798 31.6584 40.5938 31.4794 40.3438C31.3033 40.0938 31.2152 39.7784 31.2152 39.3977V32.8864ZM36.2777 37.0625V41H35.272V32.2727H36.2777V35.4773H36.3629C36.5163 35.1392 36.7464 34.8707 37.0533 34.6719C37.3629 34.4702 37.7749 34.3693 38.2891 34.3693C38.7351 34.3693 39.1257 34.4588 39.4609 34.6378C39.7962 34.8139 40.0561 35.0852 40.2408 35.4517C40.4283 35.8153 40.522 36.2784 40.522 36.8409V41H39.5163V36.9091C39.5163 36.3892 39.3814 35.9872 39.1115 35.7031C38.8445 35.4162 38.4737 35.2727 37.9993 35.2727C37.6697 35.2727 37.3743 35.3423 37.1129 35.4815C36.8544 35.6207 36.6499 35.8239 36.4993 36.0909C36.3516 36.358 36.2777 36.6818 36.2777 37.0625ZM45.021 41.1364C44.43 41.1364 43.9116 40.9957 43.4656 40.7145C43.0224 40.4332 42.6758 40.0398 42.4258 39.5341C42.1786 39.0284 42.055 38.4375 42.055 37.7614C42.055 37.0795 42.1786 36.4844 42.4258 35.9759C42.6758 35.4673 43.0224 35.0724 43.4656 34.7912C43.9116 34.5099 44.43 34.3693 45.021 34.3693C45.6119 34.3693 46.1289 34.5099 46.5721 34.7912C47.0181 35.0724 47.3647 35.4673 47.6119 35.9759C47.8619 36.4844 47.9869 37.0795 47.9869 37.7614C47.9869 38.4375 47.8619 39.0284 47.6119 39.5341C47.3647 40.0398 47.0181 40.4332 46.5721 40.7145C46.1289 40.9957 45.6119 41.1364 45.021 41.1364ZM45.021 40.233C45.4698 40.233 45.8391 40.1179 46.1289 39.8878C46.4187 39.6577 46.6332 39.3551 46.7724 38.9801C46.9116 38.6051 46.9812 38.1989 46.9812 37.7614C46.9812 37.3239 46.9116 36.9162 46.7724 36.5384C46.6332 36.1605 46.4187 35.8551 46.1289 35.6222C45.8391 35.3892 45.4698 35.2727 45.021 35.2727C44.5721 35.2727 44.2028 35.3892 43.913 35.6222C43.6232 35.8551 43.4087 36.1605 43.2695 36.5384C43.1303 36.9162 43.0607 37.3239 43.0607 37.7614C43.0607 38.1989 43.1303 38.6051 43.2695 38.9801C43.4087 39.3551 43.6232 39.6577 43.913 39.8878C44.2028 40.1179 44.5721 40.233 45.021 40.233ZM51.4482 41.1534C51.0334 41.1534 50.657 41.0753 50.3189 40.919C49.9808 40.7599 49.7124 40.5312 49.5135 40.233C49.3146 39.9318 49.2152 39.5682 49.2152 39.142C49.2152 38.767 49.2891 38.4631 49.4368 38.2301C49.5845 37.9943 49.782 37.8097 50.0291 37.6761C50.2763 37.5426 50.549 37.4432 50.8473 37.3778C51.1484 37.3097 51.451 37.2557 51.755 37.2159C52.1527 37.1648 52.4751 37.1264 52.7223 37.1009C52.9723 37.0724 53.1541 37.0256 53.2678 36.9602C53.3842 36.8949 53.4425 36.7812 53.4425 36.6193V36.5852C53.4425 36.1648 53.3274 35.8381 53.0973 35.6051C52.87 35.3722 52.5249 35.2557 52.0618 35.2557C51.5817 35.2557 51.2053 35.3608 50.9325 35.571C50.6598 35.7812 50.468 36.0057 50.3572 36.2443L49.4027 35.9034C49.5732 35.5057 49.8004 35.196 50.0845 34.9744C50.3714 34.75 50.6839 34.5937 51.022 34.5057C51.3629 34.4148 51.6982 34.3693 52.0277 34.3693C52.2379 34.3693 52.4794 34.3949 52.7521 34.446C53.0277 34.4943 53.2933 34.5952 53.549 34.7486C53.8075 34.902 54.022 35.1335 54.1925 35.4432C54.3629 35.7528 54.4482 36.1676 54.4482 36.6875V41H53.4425V40.1136H53.3913C53.3232 40.2557 53.2095 40.4077 53.0504 40.5696C52.8913 40.7315 52.6797 40.8693 52.4155 40.983C52.1513 41.0966 51.8288 41.1534 51.4482 41.1534ZM51.6016 40.25C51.9993 40.25 52.3345 40.1719 52.6072 40.0156C52.8828 39.8594 53.0902 39.6577 53.2294 39.4105C53.3714 39.1634 53.4425 38.9034 53.4425 38.6307V37.7102C53.3999 37.7614 53.3061 37.8082 53.1612 37.8509C53.0192 37.8906 52.8544 37.9261 52.6669 37.9574C52.4822 37.9858 52.3018 38.0114 52.1257 38.0341C51.9524 38.054 51.8118 38.071 51.7038 38.0852C51.4425 38.1193 51.1982 38.1747 50.9709 38.2514C50.7464 38.3253 50.5646 38.4375 50.4254 38.5881C50.2891 38.7358 50.2209 38.9375 50.2209 39.1932C50.2209 39.5426 50.3501 39.8068 50.6087 39.9858C50.87 40.1619 51.201 40.25 51.6016 40.25ZM52.0447 43.1648C51.8487 43.1648 51.6797 43.098 51.5376 42.9645C51.3984 42.831 51.3288 42.6705 51.3288 42.483C51.3288 42.2955 51.3984 42.1349 51.5376 42.0014C51.6797 41.8679 51.8487 41.8011 52.0447 41.8011C52.2408 41.8011 52.4084 41.8679 52.5476 42.0014C52.6896 42.1349 52.7607 42.2955 52.7607 42.483C52.7607 42.6705 52.6896 42.831 52.5476 42.9645C52.4084 43.098 52.2408 43.1648 52.0447 43.1648ZM56.2837 41V34.4545H57.2894V41H56.2837ZM56.7951 33.3636C56.5991 33.3636 56.43 33.2969 56.288 33.1634C56.1488 33.0298 56.0792 32.8693 56.0792 32.6818C56.0792 32.4943 56.1488 32.3338 56.288 32.2003C56.43 32.0668 56.5991 32 56.7951 32C56.9911 32 57.1587 32.0668 57.2979 32.2003C57.44 32.3338 57.511 32.4943 57.511 32.6818C57.511 32.8693 57.44 33.0298 57.2979 33.1634C57.1587 33.2969 56.9911 33.3636 56.7951 33.3636Z" fill="black"/>
<path d="M35.5312 0H25.4687C24.2828 0 23.3125 1.12551 23.3125 2.50114V24.1777C23.3125 25.5533 24.2828 26.6788 25.4687 26.6788H35.5312C36.7172 26.6788 37.6875 25.5533 37.6875 24.1777V2.50114C37.6875 1.12551 36.7172 0 35.5312 0ZM30.5 25.0114C29.7051 25.0114 29.0625 24.2661 29.0625 23.344C29.0625 22.4219 29.7051 21.6765 30.5 21.6765C31.2949 21.6765 31.9375 22.4219 31.9375 23.344C31.9375 24.2661 31.2949 25.0114 30.5 25.0114ZM36.25 20.0091H24.75V3.33485H36.25V20.0091Z" fill="black"/>
</svg>
