<svg width="88" height="30" viewBox="0 0 88 30" fill="none" xmlns="http://www.w3.org/2000/svg">
<rect x="0.5" y="0.930908" width="87" height="28" rx="3.5" fill="#FFAC0A" fill-opacity="0.6" stroke="black"/>
<path d="M13.8295 12.8855C13.7784 12.4536 13.571 12.1184 13.2074 11.8798C12.8438 11.6411 12.3977 11.5218 11.8693 11.5218C11.483 11.5218 11.1449 11.5843 10.8551 11.7093C10.5682 11.8343 10.3438 12.0062 10.1818 12.2249C10.0227 12.4437 9.94318 12.6923 9.94318 12.9707C9.94318 13.2036 9.99858 13.4039 10.1094 13.5715C10.223 13.7363 10.3679 13.8741 10.544 13.9849C10.7202 14.0928 10.9048 14.1823 11.098 14.2534C11.2912 14.3215 11.4688 14.3769 11.6307 14.4195L12.517 14.6582C12.7443 14.7178 12.9972 14.8002 13.2756 14.9053C13.5568 15.0105 13.8253 15.1539 14.081 15.3357C14.3395 15.5147 14.5526 15.7448 14.7202 16.0261C14.8878 16.3073 14.9716 16.6525 14.9716 17.0616C14.9716 17.5332 14.848 17.9593 14.6009 18.34C14.3565 18.7207 13.9986 19.0232 13.527 19.2477C13.0582 19.4721 12.4886 19.5843 11.8182 19.5843C11.1932 19.5843 10.652 19.4835 10.1946 19.2818C9.74006 19.0801 9.3821 18.7988 9.12074 18.438C8.86222 18.0772 8.71591 17.6582 8.68182 17.1809H9.77273C9.80114 17.5105 9.91193 17.7832 10.1051 17.9991C10.3011 18.2122 10.5483 18.3712 10.8466 18.4764C11.1477 18.5786 11.4716 18.6298 11.8182 18.6298C12.2216 18.6298 12.5838 18.5644 12.9048 18.4337C13.2259 18.3002 13.4801 18.1156 13.6676 17.8798C13.8551 17.6411 13.9489 17.3627 13.9489 17.0445C13.9489 16.7548 13.8679 16.519 13.706 16.3372C13.544 16.1553 13.331 16.0076 13.0668 15.894C12.8026 15.7803 12.517 15.6809 12.2102 15.5957L11.1364 15.2889C10.4545 15.0928 9.91477 14.813 9.51705 14.4494C9.11932 14.0857 8.92045 13.6099 8.92045 13.0218C8.92045 12.5332 9.05256 12.107 9.31676 11.7434C9.58381 11.3769 9.94176 11.0928 10.3906 10.8911C10.8423 10.6866 11.3466 10.5843 11.9034 10.5843C12.4659 10.5843 12.9659 10.6852 13.4034 10.8869C13.8409 11.0857 14.1875 11.3585 14.4432 11.7051C14.7017 12.0516 14.8381 12.4451 14.8523 12.8855H13.8295ZM16.5728 19.4309V12.8855H17.5785V19.4309H16.5728ZM17.0842 11.7945C16.8881 11.7945 16.7191 11.7278 16.5771 11.5943C16.4379 11.4607 16.3683 11.3002 16.3683 11.1127C16.3683 10.9252 16.4379 10.7647 16.5771 10.6312C16.7191 10.4977 16.8881 10.4309 17.0842 10.4309C17.2802 10.4309 17.4478 10.4977 17.587 10.6312C17.729 10.7647 17.8001 10.9252 17.8001 11.1127C17.8001 11.3002 17.729 11.4607 17.587 11.5943C17.4478 11.7278 17.2802 11.7945 17.0842 11.7945ZM19.4205 19.4309V12.8855H20.392V13.9082H20.4773C20.6136 13.5587 20.8338 13.2874 21.1378 13.0943C21.4418 12.8982 21.8068 12.8002 22.233 12.8002C22.6648 12.8002 23.0241 12.8982 23.3111 13.0943C23.6009 13.2874 23.8267 13.5587 23.9886 13.9082H24.0568C24.2244 13.5701 24.4759 13.3016 24.8111 13.1028C25.1463 12.9011 25.5483 12.8002 26.017 12.8002C26.6023 12.8002 27.081 12.9835 27.4531 13.3499C27.8253 13.7136 28.0114 14.2803 28.0114 15.0502V19.4309H27.0057V15.0502C27.0057 14.5673 26.8736 14.2221 26.6094 14.0147C26.3452 13.8073 26.0341 13.7036 25.6761 13.7036C25.2159 13.7036 24.8594 13.8428 24.6065 14.1212C24.3537 14.3968 24.2273 14.7462 24.2273 15.1695V19.4309H23.2045V14.948C23.2045 14.5758 23.0838 14.2761 22.8423 14.0488C22.6009 13.8187 22.2898 13.7036 21.9091 13.7036C21.6477 13.7036 21.4034 13.7732 21.1761 13.9124C20.9517 14.0516 20.7699 14.2448 20.6307 14.492C20.4943 14.7363 20.4261 15.019 20.4261 15.34V19.4309H19.4205ZM31.3501 18.2377L31.282 18.698C31.2337 19.0218 31.1598 19.3684 31.0604 19.7377C30.9638 20.107 30.8629 20.4551 30.7578 20.7818C30.6527 21.1085 30.5661 21.3684 30.4979 21.5616H29.7308C29.7678 21.3798 29.8161 21.1397 29.8757 20.8414C29.9354 20.5431 29.995 20.2093 30.0547 19.84C30.1172 19.4735 30.1683 19.0985 30.2081 18.715L30.2592 18.2377H31.3501ZM36.2475 11.6411V10.7036H42.793V11.6411H40.0487V19.4309H38.9918V11.6411H36.2475ZM45.2933 15.4934V19.4309H44.2876V10.7036H45.2933V13.9082H45.3786C45.532 13.5701 45.7621 13.3016 46.0689 13.1028C46.3786 12.9011 46.7905 12.8002 47.3047 12.8002C47.7507 12.8002 48.1413 12.8897 48.4766 13.0687C48.8118 13.2448 49.0717 13.5161 49.2564 13.8826C49.4439 14.2462 49.5376 14.7093 49.5376 15.2718V19.4309H48.532V15.34C48.532 14.8201 48.397 14.4181 48.1271 14.134C47.8601 13.8471 47.4893 13.7036 47.0149 13.7036C46.6854 13.7036 46.3899 13.7732 46.1286 13.9124C45.87 14.0516 45.6655 14.2548 45.5149 14.5218C45.3672 14.7889 45.2933 15.1127 45.2933 15.4934ZM54.1218 19.5673C53.4911 19.5673 52.9471 19.4281 52.4897 19.1497C52.0352 18.8684 51.6843 18.4764 51.4371 17.9735C51.1928 17.4678 51.0707 16.8798 51.0707 16.2093C51.0707 15.5389 51.1928 14.948 51.4371 14.4366C51.6843 13.9224 52.0281 13.5218 52.4684 13.2349C52.9116 12.9451 53.4286 12.8002 54.0195 12.8002C54.3604 12.8002 54.6971 12.857 55.0295 12.9707C55.3619 13.0843 55.6644 13.269 55.9371 13.5247C56.2099 13.7775 56.4272 14.1127 56.5891 14.5303C56.7511 14.948 56.832 15.4622 56.832 16.073V16.4991H51.7866V15.6298H55.8093C55.8093 15.2605 55.7354 14.9309 55.5877 14.6411C55.4428 14.3514 55.2354 14.1227 54.9656 13.9551C54.6985 13.7874 54.3832 13.7036 54.0195 13.7036C53.619 13.7036 53.2724 13.8031 52.9798 14.0019C52.69 14.198 52.467 14.4536 52.3107 14.769C52.1545 15.0843 52.0763 15.4224 52.0763 15.7832V16.3627C52.0763 16.857 52.1616 17.2761 52.332 17.6198C52.5053 17.9607 52.7454 18.2207 53.0522 18.3997C53.359 18.5758 53.7156 18.6639 54.1218 18.6639C54.386 18.6639 54.6246 18.6269 54.8377 18.5531C55.0536 18.4764 55.2397 18.3627 55.396 18.2122C55.5522 18.0587 55.6729 17.8684 55.7582 17.6411L56.7298 17.9139C56.6275 18.2434 56.4556 18.5332 56.2141 18.7832C55.9727 19.0303 55.6744 19.2235 55.3192 19.3627C54.9641 19.4991 54.565 19.5673 54.1218 19.5673ZM54.4116 11.9991H53.5763V11.0786C53.8746 11.0616 54.0849 11.0204 54.207 10.9551C54.332 10.8897 54.3945 10.7889 54.3945 10.6525C54.3945 10.4991 54.305 10.3869 54.1261 10.3159C53.9471 10.2448 53.7298 10.2093 53.4741 10.2093L53.5082 9.56159C54.0962 9.56159 54.5408 9.66386 54.842 9.86841C55.146 10.073 55.2979 10.3457 55.2979 10.6866C55.2979 10.9764 55.2056 11.188 55.021 11.3215C54.8363 11.4551 54.6332 11.5389 54.4116 11.573V11.9991ZM64.396 19.5673C63.7823 19.5673 63.2539 19.4224 62.8107 19.1326C62.3675 18.8428 62.0266 18.4437 61.788 17.9352C61.5494 17.4266 61.43 16.8457 61.43 16.1923C61.43 15.5275 61.5522 14.9409 61.7965 14.4323C62.0437 13.921 62.3874 13.5218 62.8278 13.2349C63.271 12.9451 63.788 12.8002 64.3789 12.8002C64.8391 12.8002 65.2539 12.8855 65.6232 13.0559C65.9925 13.2264 66.2951 13.465 66.5309 13.7718C66.7667 14.0786 66.913 14.4366 66.9698 14.8457H65.9641C65.8874 14.5474 65.717 14.2832 65.4528 14.0531C65.1914 13.8201 64.8391 13.7036 64.396 13.7036C64.0039 13.7036 63.6602 13.8059 63.3647 14.0105C63.0721 14.2122 62.8434 14.4977 62.6786 14.867C62.5167 15.2335 62.4357 15.6639 62.4357 16.1582C62.4357 16.6639 62.5153 17.1042 62.6744 17.4792C62.8363 17.8542 63.0636 18.1454 63.3562 18.3528C63.6516 18.5602 63.9982 18.6639 64.396 18.6639C64.6573 18.6639 64.8945 18.6184 65.1076 18.5275C65.3207 18.4366 65.5011 18.3059 65.6488 18.1355C65.7965 17.965 65.9016 17.7605 65.9641 17.5218H66.9698C66.913 17.9082 66.7724 18.2562 66.5479 18.5659C66.3263 18.8727 66.0323 19.117 65.6658 19.2988C65.3022 19.4778 64.8789 19.5673 64.396 19.5673ZM70.3661 19.5843C69.9513 19.5843 69.5749 19.5062 69.2369 19.3499C68.8988 19.1909 68.6303 18.9622 68.4315 18.6639C68.2326 18.3627 68.1332 17.9991 68.1332 17.573C68.1332 17.198 68.207 16.894 68.3548 16.661C68.5025 16.4252 68.6999 16.2406 68.9471 16.107C69.1942 15.9735 69.467 15.8741 69.7653 15.8087C70.0664 15.7406 70.369 15.6866 70.6729 15.6468C71.0707 15.5957 71.3931 15.5573 71.6403 15.5318C71.8903 15.5034 72.0721 15.4565 72.1857 15.3911C72.3022 15.3258 72.3604 15.2122 72.3604 15.0502V15.0161C72.3604 14.5957 72.2454 14.269 72.0153 14.036C71.788 13.8031 71.4428 13.6866 70.9798 13.6866C70.4996 13.6866 70.1232 13.7917 69.8505 14.0019C69.5778 14.2122 69.386 14.4366 69.2752 14.6752L68.3207 14.3343C68.4911 13.9366 68.7184 13.6269 69.0025 13.4053C69.2894 13.1809 69.6019 13.0247 69.94 12.9366C70.2809 12.8457 70.6161 12.8002 70.9457 12.8002C71.1559 12.8002 71.3974 12.8258 71.6701 12.8769C71.9457 12.9252 72.2113 13.0261 72.467 13.1795C72.7255 13.3329 72.94 13.5644 73.1104 13.8741C73.2809 14.1837 73.3661 14.5985 73.3661 15.1184V19.4309H72.3604V18.5445H72.3093C72.2411 18.6866 72.1275 18.8386 71.9684 19.0005C71.8093 19.1624 71.5977 19.3002 71.3335 19.4139C71.0692 19.5275 70.7468 19.5843 70.3661 19.5843ZM70.5195 18.6809C70.9173 18.6809 71.2525 18.6028 71.5252 18.4465C71.8008 18.2903 72.0082 18.0886 72.1474 17.8414C72.2894 17.5943 72.3604 17.3343 72.3604 17.0616V16.1411C72.3178 16.1923 72.2241 16.2391 72.0792 16.2818C71.9371 16.3215 71.7724 16.357 71.5849 16.3883C71.4002 16.4167 71.2198 16.4423 71.0437 16.465C70.8704 16.4849 70.7298 16.5019 70.6218 16.5161C70.3604 16.5502 70.1161 16.6056 69.8888 16.6823C69.6644 16.7562 69.4826 16.8684 69.3434 17.019C69.207 17.1667 69.1388 17.3684 69.1388 17.6241C69.1388 17.9735 69.2681 18.2377 69.5266 18.4167C69.788 18.5928 70.119 18.6809 70.5195 18.6809ZM70.5877 11.9991L69.2582 10.0218H70.4343L71.4741 11.9991H70.5877ZM77.8608 19.5673C77.2699 19.5673 76.7514 19.4266 76.3054 19.1454C75.8622 18.8641 75.5156 18.4707 75.2656 17.965C75.0185 17.4593 74.8949 16.8684 74.8949 16.1923C74.8949 15.5105 75.0185 14.9153 75.2656 14.4068C75.5156 13.8982 75.8622 13.5034 76.3054 13.2221C76.7514 12.9409 77.2699 12.8002 77.8608 12.8002C78.4517 12.8002 78.9688 12.9409 79.4119 13.2221C79.858 13.5034 80.2045 13.8982 80.4517 14.4068C80.7017 14.9153 80.8267 15.5105 80.8267 16.1923C80.8267 16.8684 80.7017 17.4593 80.4517 17.965C80.2045 18.4707 79.858 18.8641 79.4119 19.1454C78.9688 19.4266 78.4517 19.5673 77.8608 19.5673ZM77.8608 18.6639C78.3097 18.6639 78.679 18.5488 78.9688 18.3187C79.2585 18.0886 79.473 17.786 79.6122 17.411C79.7514 17.036 79.821 16.6298 79.821 16.1923C79.821 15.7548 79.7514 15.3471 79.6122 14.9693C79.473 14.5914 79.2585 14.286 78.9688 14.0531C78.679 13.8201 78.3097 13.7036 77.8608 13.7036C77.4119 13.7036 77.0426 13.8201 76.7528 14.0531C76.4631 14.286 76.2486 14.5914 76.1094 14.9693C75.9702 15.3471 75.9006 15.7548 75.9006 16.1923C75.9006 16.6298 75.9702 17.036 76.1094 17.411C76.2486 17.786 76.4631 18.0886 76.7528 18.3187C77.0426 18.5488 77.4119 18.6639 77.8608 18.6639Z" fill="black"/>
</svg>
