<svg width="73" height="46" viewBox="0 0 73 46" fill="none" xmlns="http://www.w3.org/2000/svg">
<path d="M5.82955 35.8855C5.77841 35.4536 5.57102 35.1184 5.20739 34.8798C4.84375 34.6411 4.39773 34.5218 3.86932 34.5218C3.48295 34.5218 3.14489 34.5843 2.85511 34.7093C2.56818 34.8343 2.34375 35.0062 2.18182 35.2249C2.02273 35.4437 1.94318 35.6923 1.94318 35.9707C1.94318 36.2036 1.99858 36.4039 2.10938 36.5715C2.22301 36.7363 2.3679 36.8741 2.54403 36.9849C2.72017 37.0928 2.90483 37.1823 3.09801 37.2534C3.29119 37.3215 3.46875 37.3769 3.63068 37.4195L4.51705 37.6582C4.74432 37.7178 4.99716 37.8002 5.27557 37.9053C5.55682 38.0105 5.82528 38.1539 6.08097 38.3357C6.33949 38.5147 6.55256 38.7448 6.72017 39.0261C6.88778 39.3073 6.97159 39.6525 6.97159 40.0616C6.97159 40.5332 6.84801 40.9593 6.60085 41.34C6.35653 41.7207 5.99858 42.0232 5.52699 42.2477C5.05824 42.4721 4.48864 42.5843 3.81818 42.5843C3.19318 42.5843 2.65199 42.4835 2.1946 42.2818C1.74006 42.0801 1.3821 41.7988 1.12074 41.438C0.862216 41.0772 0.715909 40.6582 0.681818 40.1809H1.77273C1.80114 40.5105 1.91193 40.7832 2.10511 40.9991C2.30114 41.2122 2.5483 41.3712 2.84659 41.4764C3.14773 41.5786 3.47159 41.6298 3.81818 41.6298C4.22159 41.6298 4.58381 41.5644 4.90483 41.4337C5.22585 41.3002 5.48011 41.1156 5.66761 40.8798C5.85511 40.6411 5.94886 40.3627 5.94886 40.0445C5.94886 39.7548 5.8679 39.519 5.70597 39.3372C5.54403 39.1553 5.33097 39.0076 5.06676 38.894C4.80256 38.7803 4.51705 38.6809 4.21023 38.5957L3.13636 38.2889C2.45455 38.0928 1.91477 37.813 1.51705 37.4494C1.11932 37.0857 0.920455 36.6099 0.920455 36.0218C0.920455 35.5332 1.05256 35.107 1.31676 34.7434C1.58381 34.3769 1.94176 34.0928 2.39062 33.8911C2.84233 33.6866 3.34659 33.5843 3.90341 33.5843C4.46591 33.5843 4.96591 33.6852 5.40341 33.8869C5.84091 34.0857 6.1875 34.3585 6.44318 34.7051C6.7017 35.0516 6.83807 35.4451 6.85227 35.8855H5.82955ZM8.5728 42.4309V35.8855H9.54439V36.9082H9.62962C9.76598 36.5587 9.98615 36.2874 10.2901 36.0943C10.5941 35.8982 10.9592 35.8002 11.3853 35.8002C11.8171 35.8002 12.1765 35.8982 12.4634 36.0943C12.7532 36.2874 12.979 36.5587 13.141 36.9082H13.2092C13.3768 36.5701 13.6282 36.3016 13.9634 36.1028C14.2987 35.9011 14.7006 35.8002 15.1694 35.8002C15.7546 35.8002 16.2333 35.9835 16.6055 36.3499C16.9776 36.7136 17.1637 37.2803 17.1637 38.0502V42.4309H16.158V38.0502C16.158 37.5673 16.0259 37.2221 15.7617 37.0147C15.4975 36.8073 15.1864 36.7036 14.8285 36.7036C14.3683 36.7036 14.0117 36.8428 13.7589 37.1212C13.506 37.3968 13.3796 37.7462 13.3796 38.1695V42.4309H12.3569V37.948C12.3569 37.5758 12.2362 37.2761 11.9947 37.0488C11.7532 36.8187 11.4421 36.7036 11.0614 36.7036C10.8001 36.7036 10.5558 36.7732 10.3285 36.9124C10.104 37.0516 9.92223 37.2448 9.78303 37.492C9.64666 37.7363 9.57848 38.019 9.57848 38.34V42.4309H8.5728ZM20.9286 42.5843C20.5138 42.5843 20.1374 42.5062 19.7994 42.3499C19.4613 42.1909 19.1928 41.9622 18.994 41.6639C18.7951 41.3627 18.6957 40.9991 18.6957 40.573C18.6957 40.198 18.7695 39.894 18.9173 39.661C19.065 39.4252 19.2624 39.2406 19.5096 39.107C19.7567 38.9735 20.0295 38.8741 20.3278 38.8087C20.6289 38.7406 20.9315 38.6866 21.2354 38.6468C21.6332 38.5957 21.9556 38.5573 22.2028 38.5318C22.4528 38.5034 22.6346 38.4565 22.7482 38.3911C22.8647 38.3258 22.9229 38.2122 22.9229 38.0502V38.0161C22.9229 37.5957 22.8079 37.269 22.5778 37.036C22.3505 36.8031 22.0053 36.6866 21.5423 36.6866C21.0621 36.6866 20.6857 36.7917 20.413 37.0019C20.1403 37.2122 19.9485 37.4366 19.8377 37.6752L18.8832 37.3343C19.0536 36.9366 19.2809 36.6269 19.565 36.4053C19.8519 36.1809 20.1644 36.0247 20.5025 35.9366C20.8434 35.8457 21.1786 35.8002 21.5082 35.8002C21.7184 35.8002 21.9599 35.8258 22.2326 35.8769C22.5082 35.9252 22.7738 36.0261 23.0295 36.1795C23.288 36.3329 23.5025 36.5644 23.6729 36.8741C23.8434 37.1837 23.9286 37.5985 23.9286 38.1184V42.4309H22.9229V41.5445H22.8718C22.8036 41.6866 22.69 41.8386 22.5309 42.0005C22.3718 42.1624 22.1602 42.3002 21.896 42.4139C21.6317 42.5275 21.3093 42.5843 20.9286 42.5843ZM21.082 41.6809C21.4798 41.6809 21.815 41.6028 22.0877 41.4465C22.3633 41.2903 22.5707 41.0886 22.7099 40.8414C22.8519 40.5943 22.9229 40.3343 22.9229 40.0616V39.1411C22.8803 39.1923 22.7866 39.2391 22.6417 39.2818C22.4996 39.3215 22.3349 39.357 22.1474 39.3883C21.9627 39.4167 21.7823 39.4423 21.6062 39.465C21.4329 39.4849 21.2923 39.5019 21.1843 39.5161C20.9229 39.5502 20.6786 39.6056 20.4513 39.6823C20.2269 39.7562 20.0451 39.8684 19.9059 40.019C19.7695 40.1667 19.7013 40.3684 19.7013 40.6241C19.7013 40.9735 19.8306 41.2377 20.0891 41.4167C20.3505 41.5928 20.6815 41.6809 21.082 41.6809ZM25.7642 42.4309V35.8855H26.7358V36.8741H26.804C26.9233 36.5502 27.1392 36.2874 27.4517 36.0857C27.7642 35.884 28.1165 35.7832 28.5085 35.7832C28.5824 35.7832 28.6747 35.7846 28.7855 35.7874C28.8963 35.7903 28.9801 35.7945 29.0369 35.8002V36.823C29.0028 36.8144 28.9247 36.8016 28.8026 36.7846C28.6832 36.7647 28.5568 36.7548 28.4233 36.7548C28.1051 36.7548 27.821 36.8215 27.571 36.9551C27.3239 37.0857 27.1278 37.2676 26.983 37.5005C26.8409 37.7306 26.7699 37.9934 26.7699 38.2889V42.4309H25.7642ZM33.4858 35.8855V36.7377H30.0938V35.8855H33.4858ZM31.0824 34.3173H32.0881V40.5559C32.0881 40.84 32.1293 41.0531 32.2116 41.1951C32.2969 41.3343 32.4048 41.4281 32.5355 41.4764C32.669 41.5218 32.8097 41.5445 32.9574 41.5445C33.0682 41.5445 33.1591 41.5389 33.2301 41.5275C33.3011 41.5133 33.358 41.5019 33.4006 41.4934L33.6051 42.3968C33.5369 42.4224 33.4418 42.448 33.3196 42.4735C33.1974 42.5019 33.0426 42.5161 32.8551 42.5161C32.571 42.5161 32.2926 42.4551 32.0199 42.3329C31.75 42.2107 31.5256 42.0247 31.3466 41.7747C31.1705 41.5247 31.0824 41.2093 31.0824 40.8286V34.3173ZM39.8565 42.4309L37.8622 35.8855H38.919L40.3338 40.8968H40.402L41.7997 35.8855H42.8736L44.2543 40.8798H44.3224L45.7372 35.8855H46.794L44.7997 42.4309H43.8111L42.3793 37.4025H42.277L40.8452 42.4309H39.8565ZM50.0497 42.5843C49.6349 42.5843 49.2585 42.5062 48.9205 42.3499C48.5824 42.1909 48.3139 41.9622 48.1151 41.6639C47.9162 41.3627 47.8168 40.9991 47.8168 40.573C47.8168 40.198 47.8906 39.894 48.0384 39.661C48.1861 39.4252 48.3835 39.2406 48.6307 39.107C48.8778 38.9735 49.1506 38.8741 49.4489 38.8087C49.75 38.7406 50.0526 38.6866 50.3565 38.6468C50.7543 38.5957 51.0767 38.5573 51.3239 38.5318C51.5739 38.5034 51.7557 38.4565 51.8693 38.3911C51.9858 38.3258 52.044 38.2122 52.044 38.0502V38.0161C52.044 37.5957 51.929 37.269 51.6989 37.036C51.4716 36.8031 51.1264 36.6866 50.6634 36.6866C50.1832 36.6866 49.8068 36.7917 49.5341 37.0019C49.2614 37.2122 49.0696 37.4366 48.9588 37.6752L48.0043 37.3343C48.1747 36.9366 48.402 36.6269 48.6861 36.4053C48.973 36.1809 49.2855 36.0247 49.6236 35.9366C49.9645 35.8457 50.2997 35.8002 50.6293 35.8002C50.8395 35.8002 51.081 35.8258 51.3537 35.8769C51.6293 35.9252 51.8949 36.0261 52.1506 36.1795C52.4091 36.3329 52.6236 36.5644 52.794 36.8741C52.9645 37.1837 53.0497 37.5985 53.0497 38.1184V42.4309H52.044V41.5445H51.9929C51.9247 41.6866 51.8111 41.8386 51.652 42.0005C51.4929 42.1624 51.2813 42.3002 51.017 42.4139C50.7528 42.5275 50.4304 42.5843 50.0497 42.5843ZM50.2031 41.6809C50.6009 41.6809 50.9361 41.6028 51.2088 41.4465C51.4844 41.2903 51.6918 41.0886 51.831 40.8414C51.973 40.5943 52.044 40.3343 52.044 40.0616V39.1411C52.0014 39.1923 51.9077 39.2391 51.7628 39.2818C51.6207 39.3215 51.456 39.357 51.2685 39.3883C51.0838 39.4167 50.9034 39.4423 50.7273 39.465C50.554 39.4849 50.4134 39.5019 50.3054 39.5161C50.044 39.5502 49.7997 39.6056 49.5724 39.6823C49.348 39.7562 49.1662 39.8684 49.027 40.019C48.8906 40.1667 48.8224 40.3684 48.8224 40.6241C48.8224 40.9735 48.9517 41.2377 49.2102 41.4167C49.4716 41.5928 49.8026 41.6809 50.2031 41.6809ZM57.7319 35.8855V36.7377H54.3398V35.8855H57.7319ZM55.3285 34.3173H56.3342V40.5559C56.3342 40.84 56.3754 41.0531 56.4577 41.1951C56.543 41.3343 56.6509 41.4281 56.7816 41.4764C56.9151 41.5218 57.0558 41.5445 57.2035 41.5445C57.3143 41.5445 57.4052 41.5389 57.4762 41.5275C57.5472 41.5133 57.604 41.5019 57.6467 41.4934L57.8512 42.3968C57.783 42.4224 57.6879 42.448 57.5657 42.4735C57.4435 42.5019 57.2887 42.5161 57.1012 42.5161C56.8171 42.5161 56.5387 42.4551 56.266 42.3329C55.9961 42.2107 55.7717 42.0247 55.5927 41.7747C55.4165 41.5247 55.3285 41.2093 55.3285 40.8286V34.3173ZM61.8335 42.5673C61.2198 42.5673 60.6914 42.4224 60.2482 42.1326C59.805 41.8428 59.4641 41.4437 59.2255 40.9352C58.9869 40.4266 58.8675 39.8457 58.8675 39.1923C58.8675 38.5275 58.9897 37.9409 59.234 37.4323C59.4812 36.921 59.8249 36.5218 60.2653 36.2349C60.7085 35.9451 61.2255 35.8002 61.8164 35.8002C62.2766 35.8002 62.6914 35.8855 63.0607 36.0559C63.43 36.2264 63.7326 36.465 63.9684 36.7718C64.2042 37.0786 64.3505 37.4366 64.4073 37.8457H63.4016C63.3249 37.5474 63.1545 37.2832 62.8903 37.0531C62.6289 36.8201 62.2766 36.7036 61.8335 36.7036C61.4414 36.7036 61.0977 36.8059 60.8022 37.0105C60.5096 37.2122 60.2809 37.4977 60.1161 37.867C59.9542 38.2335 59.8732 38.6639 59.8732 39.1582C59.8732 39.6639 59.9528 40.1042 60.1119 40.4792C60.2738 40.8542 60.5011 41.1454 60.7937 41.3528C61.0891 41.5602 61.4357 41.6639 61.8335 41.6639C62.0948 41.6639 62.332 41.6184 62.5451 41.5275C62.7582 41.4366 62.9386 41.3059 63.0863 41.1355C63.234 40.965 63.3391 40.7605 63.4016 40.5218H64.4073C64.3505 40.9082 64.2099 41.2562 63.9854 41.5659C63.7638 41.8727 63.4698 42.117 63.1033 42.2988C62.7397 42.4778 62.3164 42.5673 61.8335 42.5673ZM66.8832 38.4934V42.4309H65.8775V33.7036H66.8832V36.9082H66.9684C67.1218 36.5701 67.3519 36.3016 67.6587 36.1028C67.9684 35.9011 68.3803 35.8002 68.8945 35.8002C69.3406 35.8002 69.7312 35.8897 70.0664 36.0687C70.4016 36.2448 70.6616 36.5161 70.8462 36.8826C71.0337 37.2462 71.1275 37.7093 71.1275 38.2718V42.4309H70.1218V38.34C70.1218 37.8201 69.9869 37.4181 69.717 37.134C69.4499 36.8471 69.0792 36.7036 68.6048 36.7036C68.2752 36.7036 67.9798 36.7732 67.7184 36.9124C67.4599 37.0516 67.2553 37.2548 67.1048 37.5218C66.957 37.7889 66.8832 38.1127 66.8832 38.4934Z" fill="black"/>
<path d="M40.0667 7.43091H32.6C30.7959 7.43091 29.3333 8.89344 29.3333 10.6976V18.1642C29.3333 19.9684 30.7959 21.4309 32.6 21.4309H40.0667C41.8708 21.4309 43.3333 19.9684 43.3333 18.1642V10.6976C43.3333 8.89344 41.8708 7.43091 40.0667 7.43091Z" fill="black"/>
<path d="M41 5.09757V1.36424C41 1.11671 40.9017 0.879309 40.7266 0.704275C40.5516 0.529241 40.3142 0.430908 40.0667 0.430908H32.6C32.3525 0.430908 32.1151 0.529241 31.94 0.704275C31.765 0.879309 31.6667 1.11671 31.6667 1.36424V5.09757C30.4294 5.09896 29.2432 5.59108 28.3684 6.46594C27.4935 7.34081 27.0014 8.52699 27 9.76424V19.0976C27.0014 20.3348 27.4935 21.521 28.3684 22.3959C29.2432 23.2707 30.4294 23.7629 31.6667 23.7642V27.4976C31.6667 27.7451 31.765 27.9825 31.94 28.1575C32.1151 28.3326 32.3525 28.4309 32.6 28.4309H40.0667C40.3142 28.4309 40.5516 28.3326 40.7266 28.1575C40.9017 27.9825 41 27.7451 41 27.4976V23.7642C42.2372 23.7629 43.4234 23.2707 44.2983 22.3959C45.1732 21.521 45.6653 20.3348 45.6667 19.0976V9.76424C45.6653 8.52699 45.1732 7.34081 44.2983 6.46594C43.4234 5.59108 42.2372 5.09896 41 5.09757ZM44.2667 18.1642C44.2654 19.2778 43.8225 20.3453 43.0352 21.1327C42.2478 21.9201 41.1802 22.363 40.0667 22.3642H32.6C31.4865 22.363 30.4189 21.9201 29.6315 21.1327C28.8441 20.3453 28.4012 19.2778 28.4 18.1642V10.6976C28.4012 9.58404 28.8441 8.51648 29.6315 7.72909C30.4189 6.94171 31.4865 6.49881 32.6 6.49757H40.0667C41.1802 6.49881 42.2478 6.94171 43.0352 7.72909C43.8225 8.51648 44.2654 9.58404 44.2667 10.6976V18.1642Z" fill="black"/>
</svg>
