<svg width="36" height="44" viewBox="0 0 36 44" fill="none" xmlns="http://www.w3.org/2000/svg">
<path d="M0.579545 33.2102V32.2727H7.125V33.2102H4.38068V41H3.32386V33.2102H0.579545ZM9.65518 41.1534C9.24041 41.1534 8.86399 41.0753 8.52592 40.919C8.18786 40.7599 7.91939 40.5312 7.72053 40.233C7.52166 39.9318 7.42223 39.5682 7.42223 39.142C7.42223 38.767 7.49609 38.4631 7.64382 38.2301C7.79155 37.9943 7.98899 37.8097 8.23615 37.6761C8.48331 37.5426 8.75604 37.4432 9.05433 37.3778C9.35547 37.3097 9.65803 37.2557 9.962 37.2159C10.3597 37.1648 10.6822 37.1264 10.9293 37.1009C11.1793 37.0724 11.3612 37.0256 11.4748 36.9602C11.5913 36.8949 11.6495 36.7812 11.6495 36.6193V36.5852C11.6495 36.1648 11.5344 35.8381 11.3043 35.6051C11.0771 35.3722 10.7319 35.2557 10.2688 35.2557C9.78871 35.2557 9.41229 35.3608 9.13956 35.571C8.86683 35.7812 8.67507 36.0057 8.56428 36.2443L7.60973 35.9034C7.78018 35.5057 8.00746 35.196 8.29155 34.9744C8.57848 34.75 8.89098 34.5937 9.22905 34.5057C9.56996 34.4148 9.90518 34.3693 10.2347 34.3693C10.445 34.3693 10.6864 34.3949 10.9592 34.446C11.2347 34.4943 11.5004 34.5952 11.756 34.7486C12.0146 34.902 12.229 35.1335 12.3995 35.4432C12.57 35.7528 12.6552 36.1676 12.6552 36.6875V41H11.6495V40.1136H11.5984C11.5302 40.2557 11.4165 40.4077 11.2575 40.5696C11.0984 40.7315 10.8867 40.8693 10.6225 40.983C10.3583 41.0966 10.0359 41.1534 9.65518 41.1534ZM9.80859 40.25C10.2063 40.25 10.5415 40.1719 10.8143 40.0156C11.0898 39.8594 11.2972 39.6577 11.4364 39.4105C11.5785 39.1634 11.6495 38.9034 11.6495 38.6307V37.7102C11.6069 37.7614 11.5131 37.8082 11.3683 37.8509C11.2262 37.8906 11.0614 37.9261 10.8739 37.9574C10.6893 37.9858 10.5089 38.0114 10.3327 38.0341C10.1594 38.054 10.0188 38.071 9.91087 38.0852C9.6495 38.1193 9.40518 38.1747 9.17791 38.2514C8.95348 38.3253 8.77166 38.4375 8.63246 38.5881C8.49609 38.7358 8.42791 38.9375 8.42791 39.1932C8.42791 39.5426 8.55717 39.8068 8.8157 39.9858C9.07706 40.1619 9.40803 40.25 9.80859 40.25ZM14.6271 41V32.2727H15.6328V35.4943H15.718C15.7919 35.3807 15.8942 35.2358 16.0249 35.0597C16.1584 34.8807 16.3487 34.7216 16.5959 34.5824C16.8459 34.4403 17.1839 34.3693 17.6101 34.3693C18.1612 34.3693 18.647 34.5071 19.0675 34.7827C19.4879 35.0582 19.8161 35.4489 20.0518 35.9545C20.2876 36.4602 20.4055 37.0568 20.4055 37.7443C20.4055 38.4375 20.2876 39.0384 20.0518 39.5469C19.8161 40.0526 19.4893 40.4446 19.0717 40.723C18.6541 40.9986 18.1726 41.1364 17.6271 41.1364C17.2067 41.1364 16.87 41.0668 16.6172 40.9276C16.3643 40.7855 16.1697 40.625 16.0334 40.446C15.897 40.2642 15.7919 40.1136 15.718 39.9943H15.5987V41H14.6271ZM15.6158 37.7273C15.6158 38.2216 15.6882 38.6577 15.8331 39.0355C15.978 39.4105 16.1896 39.7045 16.468 39.9176C16.7464 40.1278 17.0874 40.233 17.4908 40.233C17.9112 40.233 18.2621 40.1222 18.5433 39.9006C18.8274 39.6761 19.0405 39.375 19.1825 38.9972C19.3274 38.6165 19.3999 38.1932 19.3999 37.7273C19.3999 37.267 19.3288 36.8523 19.1868 36.483C19.0476 36.1108 18.8359 35.8168 18.5518 35.6009C18.2706 35.3821 17.9169 35.2727 17.4908 35.2727C17.0817 35.2727 16.7379 35.3764 16.4595 35.5838C16.1811 35.7884 15.9709 36.0753 15.8288 36.4446C15.6868 36.8111 15.6158 37.2386 15.6158 37.7273ZM22.9496 32.2727V41H21.9439V32.2727H22.9496ZM27.5359 41.1364C26.9052 41.1364 26.3612 40.9972 25.9038 40.7188C25.4492 40.4375 25.0984 40.0455 24.8512 39.5426C24.6069 39.0369 24.4847 38.4489 24.4847 37.7784C24.4847 37.108 24.6069 36.517 24.8512 36.0057C25.0984 35.4915 25.4421 35.0909 25.8825 34.804C26.3256 34.5142 26.8427 34.3693 27.4336 34.3693C27.7745 34.3693 28.1112 34.4261 28.4435 34.5398C28.7759 34.6534 29.0785 34.8381 29.3512 35.0938C29.6239 35.3466 29.8413 35.6818 30.0032 36.0994C30.1651 36.517 30.2461 37.0312 30.2461 37.642V38.0682H25.2006V37.1989H29.2234C29.2234 36.8295 29.1495 36.5 29.0018 36.2102C28.8569 35.9205 28.6495 35.6918 28.3796 35.5241C28.1126 35.3565 27.7972 35.2727 27.4336 35.2727C27.033 35.2727 26.6864 35.3722 26.3938 35.571C26.104 35.767 25.881 36.0227 25.7248 36.3381C25.5685 36.6534 25.4904 36.9915 25.4904 37.3523V37.9318C25.4904 38.4261 25.5756 38.8452 25.7461 39.1889C25.9194 39.5298 26.1594 39.7898 26.4663 39.9688C26.7731 40.1449 27.1296 40.233 27.5359 40.233C27.8001 40.233 28.0387 40.196 28.2518 40.1222C28.4677 40.0455 28.6538 39.9318 28.81 39.7812C28.9663 39.6278 29.087 39.4375 29.1722 39.2102L30.1438 39.483C30.0415 39.8125 29.8697 40.1023 29.6282 40.3523C29.3867 40.5994 29.0884 40.7926 28.7333 40.9318C28.3782 41.0682 27.979 41.1364 27.5359 41.1364ZM34.6225 34.4545V35.3068H31.2305V34.4545H34.6225ZM32.2191 32.8864H33.2248V39.125C33.2248 39.4091 33.266 39.6222 33.3484 39.7642C33.4336 39.9034 33.5415 39.9972 33.6722 40.0455C33.8058 40.0909 33.9464 40.1136 34.0941 40.1136C34.2049 40.1136 34.2958 40.108 34.3668 40.0966C34.4379 40.0824 34.4947 40.071 34.5373 40.0625L34.7418 40.9659C34.6737 40.9915 34.5785 41.017 34.4563 41.0426C34.3342 41.071 34.1793 41.0852 33.9918 41.0852C33.7077 41.0852 33.4293 41.0241 33.1566 40.902C32.8867 40.7798 32.6623 40.5938 32.4833 40.3438C32.3072 40.0938 32.2191 39.7784 32.2191 39.3977V32.8864Z" fill="black"/>
<path d="M24.875 0.430908H11.375C9.5075 0.430908 8 1.93841 8 3.80591V24.0559C8 25.9234 9.5075 27.4309 11.375 27.4309H24.875C26.7425 27.4309 28.25 25.9234 28.25 24.0559V3.80591C28.25 1.93841 26.7425 0.430908 24.875 0.430908ZM19.8125 25.1809H16.4375C16.1225 25.1809 15.875 24.9334 15.875 24.6184C15.875 24.3034 16.1225 24.0559 16.4375 24.0559H19.8125C20.1275 24.0559 20.375 24.3034 20.375 24.6184C20.375 24.9334 20.1275 25.1809 19.8125 25.1809ZM26.2813 21.8059H9.96875V3.80591H26.2813V21.8059Z" fill="black"/>
</svg>
