<svg width="49" height="46" viewBox="0 0 49 46" fill="none" xmlns="http://www.w3.org/2000/svg">
<path d="M4.75 42.4309H2.65341V41.4934H4.68182C5.40341 41.4934 6.00142 41.3542 6.47585 41.0758C6.95028 40.7974 7.30398 40.4011 7.53693 39.8869C7.76989 39.3727 7.88636 38.7605 7.88636 38.0502C7.88636 37.3457 7.77131 36.7391 7.54119 36.2306C7.31108 35.7193 6.96733 35.3272 6.50994 35.0545C6.05256 34.7789 5.48295 34.6411 4.80114 34.6411H2.60227V33.7036H4.86932C5.71591 33.7036 6.44034 33.8784 7.04261 34.2278C7.64489 34.5744 8.10653 35.073 8.42756 35.7235C8.74858 36.3712 8.90909 37.1468 8.90909 38.0502C8.90909 38.9593 8.74716 39.742 8.4233 40.3982C8.09943 41.0516 7.62784 41.5545 7.00852 41.9068C6.3892 42.2562 5.63636 42.4309 4.75 42.4309ZM3.11364 33.7036V42.4309H2.05682V33.7036H3.11364ZM0.710227 38.323V37.5389H4.46023V38.323H0.710227ZM13.2045 42.5673C12.6136 42.5673 12.0952 42.4266 11.6491 42.1454C11.206 41.8641 10.8594 41.4707 10.6094 40.965C10.3622 40.4593 10.2386 39.8684 10.2386 39.1923C10.2386 38.5105 10.3622 37.9153 10.6094 37.4068C10.8594 36.8982 11.206 36.5034 11.6491 36.2221C12.0952 35.9409 12.6136 35.8002 13.2045 35.8002C13.7955 35.8002 14.3125 35.9409 14.7557 36.2221C15.2017 36.5034 15.5483 36.8982 15.7955 37.4068C16.0455 37.9153 16.1705 38.5105 16.1705 39.1923C16.1705 39.8684 16.0455 40.4593 15.7955 40.965C15.5483 41.4707 15.2017 41.8641 14.7557 42.1454C14.3125 42.4266 13.7955 42.5673 13.2045 42.5673ZM13.2045 41.6639C13.6534 41.6639 14.0227 41.5488 14.3125 41.3187C14.6023 41.0886 14.8168 40.786 14.956 40.411C15.0952 40.036 15.1648 39.6298 15.1648 39.1923C15.1648 38.7548 15.0952 38.3471 14.956 37.9693C14.8168 37.5914 14.6023 37.286 14.3125 37.0531C14.0227 36.8201 13.6534 36.7036 13.2045 36.7036C12.7557 36.7036 12.3864 36.8201 12.0966 37.0531C11.8068 37.286 11.5923 37.5914 11.4531 37.9693C11.3139 38.3471 11.2443 38.7548 11.2443 39.1923C11.2443 39.6298 11.3139 40.036 11.4531 40.411C11.5923 40.786 11.8068 41.0886 12.0966 41.3187C12.3864 41.5488 12.7557 41.6639 13.2045 41.6639ZM13.6648 33.5332L15.4034 35.0843H14.1761L13.2045 34.1809L12.233 35.0843H11.0057L12.7273 33.5332H13.6648ZM10.6307 32.4934L11.4489 34.0445H10.5795L9.36932 32.4934H10.6307ZM18.7113 38.4934V42.4309H17.7056V35.8855H18.6772V36.9082H18.7624C18.9158 36.5758 19.1488 36.3087 19.4613 36.107C19.7738 35.9025 20.1772 35.8002 20.6715 35.8002C21.1147 35.8002 21.5025 35.8911 21.8349 36.073C22.1673 36.2519 22.4258 36.5247 22.6104 36.8911C22.7951 37.2548 22.8874 37.715 22.8874 38.2718V42.4309H21.8817V38.34C21.8817 37.8258 21.7482 37.4252 21.4812 37.1383C21.2141 36.8485 20.8477 36.7036 20.3817 36.7036C20.0607 36.7036 19.7738 36.7732 19.521 36.9124C19.271 37.0516 19.0735 37.2548 18.9286 37.5218C18.7837 37.7889 18.7113 38.1127 18.7113 38.4934ZM27.3672 45.0218C26.8814 45.0218 26.4638 44.9593 26.1143 44.8343C25.7649 44.7122 25.4737 44.5502 25.2408 44.3485C25.0107 44.1497 24.8274 43.9366 24.6911 43.7093L25.4922 43.1468C25.5831 43.2661 25.6982 43.4025 25.8374 43.5559C25.9766 43.7122 26.1669 43.8471 26.4084 43.9607C26.6527 44.0772 26.9723 44.1355 27.3672 44.1355C27.8956 44.1355 28.3317 44.0076 28.6754 43.7519C29.0192 43.4962 29.1911 43.0957 29.1911 42.5502V41.2207H29.1058C29.032 41.34 28.9268 41.4877 28.7905 41.6639C28.657 41.8372 28.4638 41.992 28.2109 42.1284C27.9609 42.2619 27.6229 42.3286 27.1967 42.3286C26.6683 42.3286 26.1939 42.2036 25.7734 41.9536C25.3558 41.7036 25.0249 41.34 24.7805 40.8627C24.5391 40.3855 24.4183 39.8059 24.4183 39.1241C24.4183 38.4536 24.5362 37.8698 24.772 37.3727C25.0078 36.8727 25.3359 36.4863 25.7564 36.2136C26.1768 35.938 26.6626 35.8002 27.2138 35.8002C27.6399 35.8002 27.978 35.8712 28.228 36.0133C28.4808 36.1525 28.674 36.3116 28.8075 36.4906C28.9439 36.6667 29.049 36.8116 29.1229 36.9252H29.2251V35.8855H30.1967V42.6184C30.1967 43.1809 30.0689 43.6383 29.8132 43.9906C29.5604 44.3457 29.2195 44.6056 28.7905 44.7704C28.3643 44.938 27.8899 45.0218 27.3672 45.0218ZM27.3331 41.4252C27.7365 41.4252 28.0774 41.3329 28.3558 41.1482C28.6342 40.9636 28.8459 40.698 28.9908 40.3514C29.1357 40.0048 29.2081 39.59 29.2081 39.107C29.2081 38.6355 29.1371 38.2193 28.995 37.8585C28.853 37.4977 28.6428 37.215 28.3643 37.0105C28.0859 36.8059 27.7422 36.7036 27.3331 36.7036C26.907 36.7036 26.5518 36.8116 26.2678 37.0275C25.9865 37.2434 25.7749 37.5332 25.6328 37.8968C25.4936 38.2605 25.424 38.6639 25.424 39.107C25.424 39.5616 25.495 39.9636 25.6371 40.313C25.782 40.6596 25.995 40.9323 26.2763 41.1312C26.5604 41.3272 26.9126 41.4252 27.3331 41.4252ZM36.4183 38.4934V42.4309H35.4126V33.7036H36.4183V36.9082H36.5036C36.657 36.5701 36.8871 36.3016 37.1939 36.1028C37.5036 35.9011 37.9155 35.8002 38.4297 35.8002C38.8757 35.8002 39.2663 35.8897 39.6016 36.0687C39.9368 36.2448 40.1967 36.5161 40.3814 36.8826C40.5689 37.2462 40.6626 37.7093 40.6626 38.2718V42.4309H39.657V38.34C39.657 37.8201 39.522 37.4181 39.2521 37.134C38.9851 36.8471 38.6143 36.7036 38.1399 36.7036C37.8104 36.7036 37.5149 36.7732 37.2536 36.9124C36.995 37.0516 36.7905 37.2548 36.6399 37.5218C36.4922 37.7889 36.4183 38.1127 36.4183 38.4934ZM45.1616 42.5673C44.5707 42.5673 44.0522 42.4266 43.6062 42.1454C43.163 41.8641 42.8164 41.4707 42.5664 40.965C42.3192 40.4593 42.1957 39.8684 42.1957 39.1923C42.1957 38.5105 42.3192 37.9153 42.5664 37.4068C42.8164 36.8982 43.163 36.5034 43.6062 36.2221C44.0522 35.9409 44.5707 35.8002 45.1616 35.8002C45.7525 35.8002 46.2695 35.9409 46.7127 36.2221C47.1587 36.5034 47.5053 36.8982 47.7525 37.4068C48.0025 37.9153 48.1275 38.5105 48.1275 39.1923C48.1275 39.8684 48.0025 40.4593 47.7525 40.965C47.5053 41.4707 47.1587 41.8641 46.7127 42.1454C46.2695 42.4266 45.7525 42.5673 45.1616 42.5673ZM45.1616 41.6639C45.6104 41.6639 45.9798 41.5488 46.2695 41.3187C46.5593 41.0886 46.7738 40.786 46.913 40.411C47.0522 40.036 47.1218 39.6298 47.1218 39.1923C47.1218 38.7548 47.0522 38.3471 46.913 37.9693C46.7738 37.5914 46.5593 37.286 46.2695 37.0531C45.9798 36.8201 45.6104 36.7036 45.1616 36.7036C44.7127 36.7036 44.3434 36.8201 44.0536 37.0531C43.7638 37.286 43.5494 37.5914 43.4102 37.9693C43.271 38.3471 43.2013 38.7548 43.2013 39.1923C43.2013 39.6298 43.271 40.036 43.4102 40.411C43.5494 40.786 43.7638 41.0886 44.0536 41.3187C44.3434 41.5488 44.7127 41.6639 45.1616 41.6639ZM45.6218 33.5332L47.3604 35.0843H46.1332L45.1616 34.1809L44.19 35.0843H42.9627L44.6843 33.5332H45.6218ZM42.5877 32.4934L43.4059 34.0445H42.5366L41.3263 32.4934H42.5877Z" fill="black"/>
<path d="M34.4615 13.354H33.3846C33.3469 13.354 33.315 13.3716 33.2782 13.3753C32.9584 10.4624 31.3938 7.92716 29.0769 6.37531V1.50288C29.0769 0.910785 28.597 0.430908 28.005 0.430908H19.3797C18.7876 0.430908 18.3077 0.910785 18.3077 1.50288V6.37509C15.7114 8.11432 14 11.0713 14 14.4309C14 17.7905 15.7114 20.7475 18.3077 22.4865V27.3587C18.3077 27.9508 18.7876 28.4309 19.3797 28.4309H28.0047C28.597 28.4309 29.0769 27.9508 29.0769 27.3587V22.4865C31.3938 20.9347 32.9584 18.3994 33.2782 15.4863C33.315 15.4902 33.3469 15.5078 33.3846 15.5078H34.4615C35.0562 15.5078 35.5385 15.0256 35.5385 14.4309C35.5385 13.836 35.0562 13.354 34.4615 13.354ZM23.6923 21.9694C19.5289 21.9694 16.1538 18.5943 16.1538 14.4309C16.1538 10.2675 19.5289 6.89245 23.6923 6.89245C27.8557 6.89245 31.2308 10.2675 31.2308 14.4309C31.2308 18.5943 27.8557 21.9694 23.6923 21.9694Z" fill="black"/>
<path d="M26.9231 13.354H24.7692V10.1232C24.7692 9.52833 24.287 9.0463 23.6923 9.0463C23.0976 9.0463 22.6154 9.52833 22.6154 10.1232V14.4309C22.6154 15.0256 23.0976 15.5078 23.6923 15.5078H26.9231C27.5178 15.5078 28 15.0256 28 14.4309C28 13.836 27.5178 13.354 26.9231 13.354Z" fill="black"/>
</svg>
