<svg width="142" height="31" viewBox="0 0 142 31" fill="none" xmlns="http://www.w3.org/2000/svg">
<path d="M124.795 25.7229L135.343 15.1755L124.795 4.62818C123.735 3.568 123.735 1.85541 124.795 0.795238C125.855 -0.264935 127.568 -0.264935 128.628 0.795238L141.106 13.2727C142.166 14.3328 142.166 16.0454 141.106 17.1056L128.628 29.583C127.568 30.6432 125.855 30.6432 124.795 29.583C123.762 28.5229 123.735 26.7831 124.795 25.7229Z" fill="black"/>
<path d="M1.86621 9.75781L4.08789 13.2998L6.30957 9.75781H7.73779L4.81787 14.3345L7.80762 19H6.3667L4.08789 15.3882L1.80908 19H0.368164L3.35791 14.3345L0.437988 9.75781H1.86621ZM15.0947 18.0034V19H10.2007V18.0034H15.0947ZM10.4482 9.75781V19H9.22314V9.75781H10.4482ZM14.4473 13.7314V14.728H10.2007V13.7314H14.4473ZM15.0312 9.75781V10.7607H10.2007V9.75781H15.0312ZM16.999 9.75781H18.186L21.2139 17.2925L24.2354 9.75781H25.4287L21.6709 19H20.7441L16.999 9.75781ZM16.6118 9.75781H17.6592L17.8306 15.3945V19H16.6118V9.75781ZM24.7622 9.75781H25.8096V19H24.5908V15.3945L24.7622 9.75781ZM34.3472 9.75781V19H33.1411V9.75781H34.3472ZM37.3179 9.75781V10.7607H30.1768V9.75781H37.3179ZM44.7256 13.7314V14.728H39.7236V13.7314H44.7256ZM39.9141 9.75781V19H38.689V9.75781H39.9141ZM45.792 9.75781V19H44.5732V9.75781H45.792ZM53.8408 18.0034V19H48.9468V18.0034H53.8408ZM49.1943 9.75781V19H47.9692V9.75781H49.1943ZM53.1934 13.7314V14.728H48.9468V13.7314H53.1934ZM53.7773 9.75781V10.7607H48.9468V9.75781H53.7773ZM51.1812 7.20605L52.7554 8.93896V9.00244H51.7778L50.8257 7.92969L49.8799 9.00244H48.915V8.93262L50.4702 7.20605H51.1812ZM55.7451 9.75781H56.9321L59.96 17.2925L62.9814 9.75781H64.1748L60.417 19H59.4902L55.7451 9.75781ZM55.3579 9.75781H56.4053L56.5767 15.3945V19H55.3579V9.75781ZM63.5083 9.75781H64.5557V19H63.3369V15.3945L63.5083 9.75781ZM72.4331 19H70.5034L70.5161 18.0034H72.4331C73.0933 18.0034 73.6434 17.8659 74.0835 17.5908C74.5236 17.3115 74.8537 16.9222 75.0737 16.4229C75.298 15.9193 75.4102 15.3311 75.4102 14.6582V14.0933C75.4102 13.5643 75.3467 13.0946 75.2197 12.6841C75.0928 12.2694 74.9066 11.9202 74.6611 11.6367C74.4157 11.349 74.1152 11.131 73.7598 10.9829C73.4085 10.8348 73.0044 10.7607 72.5474 10.7607H70.4653V9.75781H72.5474C73.1525 9.75781 73.7048 9.85938 74.2041 10.0625C74.7035 10.2614 75.133 10.5513 75.4927 10.9321C75.8566 11.3088 76.1359 11.7658 76.3306 12.3032C76.5252 12.8364 76.6226 13.4373 76.6226 14.106V14.6582C76.6226 15.3268 76.5252 15.9299 76.3306 16.4673C76.1359 17.0005 75.8545 17.4554 75.4863 17.832C75.1224 18.2087 74.6823 18.4985 74.166 18.7017C73.654 18.9006 73.0763 19 72.4331 19ZM71.1572 9.75781V19H69.9321V9.75781H71.1572ZM79.7773 9.75781V19H78.5522V9.75781H79.7773ZM78.4316 20.5044C78.4316 20.314 78.4888 20.1532 78.603 20.022C78.7215 19.8908 78.895 19.8252 79.1235 19.8252C79.3478 19.8252 79.5192 19.8908 79.6377 20.022C79.7604 20.1532 79.8218 20.314 79.8218 20.5044C79.8218 20.6864 79.7604 20.8408 79.6377 20.9678C79.5192 21.099 79.3478 21.1646 79.1235 21.1646C78.895 21.1646 78.7215 21.099 78.603 20.9678C78.4888 20.8408 78.4316 20.6864 78.4316 20.5044ZM87.585 16.061H88.8037C88.7402 16.645 88.5731 17.1676 88.3022 17.6289C88.0314 18.0902 87.6484 18.4562 87.1533 18.7271C86.6582 18.9937 86.0404 19.127 85.2998 19.127C84.7581 19.127 84.2651 19.0254 83.8208 18.8223C83.3807 18.6191 83.002 18.3314 82.6846 17.959C82.3672 17.5824 82.1217 17.1317 81.9482 16.6069C81.779 16.078 81.6943 15.4897 81.6943 14.8423V13.9219C81.6943 13.2744 81.779 12.6883 81.9482 12.1636C82.1217 11.6346 82.3693 11.1818 82.6909 10.8052C83.0168 10.4285 83.4082 10.1387 83.8652 9.93555C84.3223 9.73242 84.8364 9.63086 85.4077 9.63086C86.106 9.63086 86.6963 9.76204 87.1787 10.0244C87.6611 10.2868 88.0356 10.6507 88.3022 11.1162C88.5731 11.5775 88.7402 12.1128 88.8037 12.7222H87.585C87.5257 12.2905 87.4157 11.9202 87.2549 11.6113C87.0941 11.2982 86.8656 11.057 86.5693 10.8877C86.2731 10.7184 85.8859 10.6338 85.4077 10.6338C84.9972 10.6338 84.6354 10.7121 84.3223 10.8687C84.0133 11.0252 83.7531 11.2474 83.5415 11.5352C83.3341 11.8229 83.1776 12.1678 83.0718 12.5698C82.966 12.9718 82.9131 13.4183 82.9131 13.9092V14.8423C82.9131 15.2951 82.9596 15.7204 83.0527 16.1182C83.1501 16.516 83.2961 16.8651 83.4907 17.1655C83.6854 17.466 83.9329 17.703 84.2334 17.8765C84.5339 18.0457 84.8893 18.1304 85.2998 18.1304C85.8203 18.1304 86.235 18.0479 86.5439 17.8828C86.8529 17.7178 87.0856 17.4808 87.2422 17.1719C87.403 16.863 87.5173 16.4927 87.585 16.061ZM96.5098 13.7314V14.728H91.5078V13.7314H96.5098ZM91.6982 9.75781V19H90.4731V9.75781H91.6982ZM97.5762 9.75781V19H96.3574V9.75781H97.5762ZM105.961 17.5972L108.685 9.75781H110.011L106.59 19H105.644L105.961 17.5972ZM103.416 9.75781L106.114 17.5972L106.45 19H105.504L102.089 9.75781H103.416ZM116.543 9.75781H117.762V16.0103C117.762 16.7043 117.607 17.2819 117.298 17.7432C116.989 18.2044 116.579 18.5514 116.067 18.7842C115.559 19.0127 115.007 19.127 114.41 19.127C113.784 19.127 113.217 19.0127 112.709 18.7842C112.205 18.5514 111.806 18.2044 111.509 17.7432C111.217 17.2819 111.071 16.7043 111.071 16.0103V9.75781H112.284V16.0103C112.284 16.4927 112.373 16.8905 112.55 17.2036C112.728 17.5168 112.976 17.7495 113.293 17.9019C113.615 18.0542 113.987 18.1304 114.41 18.1304C114.838 18.1304 115.21 18.0542 115.527 17.9019C115.849 17.7495 116.099 17.5168 116.276 17.2036C116.454 16.8905 116.543 16.4927 116.543 16.0103V9.75781ZM113.68 20.5615C113.68 20.3711 113.737 20.2103 113.852 20.0791C113.97 19.9479 114.144 19.8823 114.372 19.8823C114.596 19.8823 114.768 19.9479 114.886 20.0791C115.009 20.2103 115.07 20.3711 115.07 20.5615C115.07 20.7435 115.009 20.8979 114.886 21.0249C114.768 21.1561 114.596 21.2217 114.372 21.2217C114.144 21.2217 113.97 21.1561 113.852 21.0249C113.737 20.8979 113.68 20.7435 113.68 20.5615Z" fill="black"/>
</svg>
